<svg xmlns="http://www.w3.org/2000/svg" viewBox="0 0 900 300"><defs><style>.cls-1{fill:#8bb3ff;}.cls-2{fill:#b91e00;}.cls-3{fill:#00d014;}.cls-4{fill:#0100b9;}</style></defs><title>Asset 1</title><g id="Layer_2" data-name="Layer 2"><g id="Layer_1-2" data-name="Layer 1"><rect class="cls-1" width="900" height="300"/><path class="cls-2" d="M88.73,75a16.37,16.37,0,0,0-6-3.29,23.64,23.64,0,0,0-7.11-1.14A17.54,17.54,0,0,0,68.47,72a16.85,16.85,0,0,0-5.57,3.89,17.93,17.93,0,0,0-3.69,6,20.73,20.73,0,0,0-1.34,7.51,19,19,0,0,0,1.48,7.51,17.93,17.93,0,0,0,4,6,18.57,18.57,0,0,0,6,3.89,19,19,0,0,0,7.31,1.41A17.82,17.82,0,0,0,85,106.18a19.89,19.89,0,0,0,6.44-5.3h-8V82.1h34.48v29.78a49.45,49.45,0,0,1-7.38,10,46.87,46.87,0,0,1-9.59,7.71,46.18,46.18,0,0,1-11.47,5A46.73,46.73,0,0,1,29.71,89.34,48,48,0,0,1,33.19,71.1a46.91,46.91,0,0,1,9.59-15A44.85,44.85,0,0,1,57.27,46.08a44.31,44.31,0,0,1,18-3.69,50.63,50.63,0,0,1,13,1.48,49.87,49.87,0,0,1,9.26,3.35,33.9,33.9,0,0,1,7.38,4.7Zm1.34-17.3a22.17,22.17,0,0,0-3.89-1.34,38.15,38.15,0,0,0-4.43-.94,36.33,36.33,0,0,0-5.63-.4,34.46,34.46,0,0,0-13.28,2.55,33.13,33.13,0,0,0-10.73,7,32.37,32.37,0,0,0-7.18,10.8,36.06,36.06,0,0,0-2.62,14,35.27,35.27,0,0,0,2.68,14,32.16,32.16,0,0,0,7.38,10.8,34.47,34.47,0,0,0,10.93,7,34.93,34.93,0,0,0,13.35,2.55,32.79,32.79,0,0,0,16.77-4.36,35.69,35.69,0,0,0,12.21-11.6V90.15H91.41v3.22h10.73v13.41a30.32,30.32,0,0,1-25.49,13.41,32.2,32.2,0,0,1-12-2.21,29.33,29.33,0,0,1-16.43-16.1A31.85,31.85,0,0,1,45.8,89.34,32.62,32.62,0,0,1,48.15,76.8,29.55,29.55,0,0,1,54.59,67a28.4,28.4,0,0,1,9.59-6.31,31.69,31.69,0,0,1,11.94-2.21,24.76,24.76,0,0,1,4.56.4q2.14.4,3.76.8,1.88.54,3.49,1.07Z"/><path class="cls-2" d="M125.21,44.54h30.85A53.15,53.15,0,0,1,172,46.82a37,37,0,0,1,12.68,6.71A30.77,30.77,0,0,1,193,64.46a35.18,35.18,0,0,1,3,15,30.75,30.75,0,0,1-1.88,11.4A34.94,34.94,0,0,1,190,98.6a29,29,0,0,1-6,5.9L200.73,134H167.2l-13.41-22.67V134H125.21Zm27.9,58.35a48,48,0,0,0,10.19-1.07l12.74,21.46h4.16L166.8,100.74a25.18,25.18,0,0,0,11.54-7.85q4.29-5.3,4.29-13.75a22.27,22.27,0,0,0-2.28-10.33,21.84,21.84,0,0,0-6.24-7.44,28,28,0,0,0-9.32-4.56,42.19,42.19,0,0,0-11.67-1.54H138.63v68h3.49V102.89Zm-11-3.22V58.49h11q12.2,0,19.11,5.37t6.91,15.29q0,9.93-6.91,15.23t-19.11,5.3Zm11.67-11.13h1.47a15.69,15.69,0,0,0,8.65-2.28q3.55-2.28,3.55-7.65T163.91,71a15.71,15.71,0,0,0-8.65-2.28h-1.47Z"/><path class="cls-2" d="M203.42,44.54h52.72V68H232v9.93h23.74v22.27H232v10.33h25.08V134H203.42Zm43.73,78.74v-3.22H220.32V90.68H245.8V87.46H220.32v-29h26.83V55.27H216.83v68Z"/><path class="cls-2" d="M293,44.54h21.46L348.42,134H320.25l-3-8H290.2l-3,8H259.08Zm-14,78.74,2.55-6.71h44.27l2.55,6.71h3.76l-25.89-68h-5.1l-25.89,68Zm24.68-64.79,20.93,54.86H282.83Zm6,47.75-6-15.69-6,15.69Z"/><path class="cls-2" d="M352.18,68h-16.5V44.54h62.51V68h-16.5v66H352.18Zm16.5,55.27V58.49h19.18V55.27H346v3.22h19.18v64.79Z"/><path class="cls-2" d="M88.73,195.11a16.37,16.37,0,0,0-6-3.29,23.64,23.64,0,0,0-7.11-1.14,17.54,17.54,0,0,0-7.11,1.41A16.85,16.85,0,0,0,62.91,196a17.93,17.93,0,0,0-3.69,6,20.73,20.73,0,0,0-1.34,7.51A19,19,0,0,0,59.35,217a17.93,17.93,0,0,0,4,6,18.57,18.57,0,0,0,6,3.89,19,19,0,0,0,7.31,1.41A17.82,17.82,0,0,0,85,226.3a19.89,19.89,0,0,0,6.44-5.3h-8V202.22h34.48V232a49.45,49.45,0,0,1-7.38,10,46.87,46.87,0,0,1-9.59,7.71,46.18,46.18,0,0,1-11.47,5,46.73,46.73,0,0,1-59.69-45.21,48,48,0,0,1,3.49-18.24,46.91,46.91,0,0,1,9.59-15,44.85,44.85,0,0,1,14.49-10.06,44.31,44.31,0,0,1,18-3.69,50.63,50.63,0,0,1,13,1.48,49.87,49.87,0,0,1,9.26,3.35A33.9,33.9,0,0,1,105,172Zm1.34-17.3a22.17,22.17,0,0,0-3.89-1.34,38.15,38.15,0,0,0-4.43-.94,36.33,36.33,0,0,0-5.63-.4,34.46,34.46,0,0,0-13.28,2.55,33.13,33.13,0,0,0-10.73,7,32.37,32.37,0,0,0-7.18,10.8,36.06,36.06,0,0,0-2.62,14,35.27,35.27,0,0,0,2.68,14,32.16,32.16,0,0,0,7.38,10.8,34.47,34.47,0,0,0,10.93,7,34.93,34.93,0,0,0,13.35,2.55,32.79,32.79,0,0,0,16.77-4.36,35.69,35.69,0,0,0,12.21-11.6V210.27H91.41v3.22h10.73v13.41a30.32,30.32,0,0,1-25.49,13.41,32.2,32.2,0,0,1-12-2.21A29.33,29.33,0,0,1,48.22,222a31.85,31.85,0,0,1-2.41-12.54,32.62,32.62,0,0,1,2.35-12.54,29.55,29.55,0,0,1,6.44-9.79,28.4,28.4,0,0,1,9.59-6.31,31.69,31.69,0,0,1,11.94-2.21,24.76,24.76,0,0,1,4.56.4q2.14.4,3.76.8,1.88.54,3.49,1.07Z"/><path class="cls-2" d="M125.21,164.66h30.32v89.47H125.21Zm16.9,78.74v-68h-3.49v68Z"/><path class="cls-2" d="M164.92,164.66h52.72v23.47H193.49v9.93h23.74v22.27H193.49v33.8H164.92Zm16.9,78.74v-32.6H207.3v-3.22H181.82v-29h26.83V175.4H178.33v68Z"/><path class="cls-2" d="M238.83,188.14h-16.5V164.66h62.51v23.47h-16.5v66H238.83Zm16.5,55.27V178.61h19.18V175.4H232.66v3.22h19.18v64.79Z"/><path class="cls-2" d="M288.46,226.37a44.22,44.22,0,0,0,6.17,1.48,48.76,48.76,0,0,0,6.1,1.07,58.92,58.92,0,0,0,6.91.4q6.17,0,6.17-4.56a5.11,5.11,0,0,0-1.88-3.56,57,57,0,0,0-4.76-4q-2.89-2.21-6.17-4.9a44.5,44.5,0,0,1-6.17-6.17,32.19,32.19,0,0,1-4.76-7.85,25,25,0,0,1-1.88-10,25.78,25.78,0,0,1,2.28-11.13,22.41,22.41,0,0,1,6.31-8,28.36,28.36,0,0,1,9.46-4.9,39.14,39.14,0,0,1,11.6-1.68,62.33,62.33,0,0,1,6.44.34l5.77.6,5.77.8v25.08l-2.41-.27-2.41-.27q-1.34-.13-2.82-.13-.8,0-2,.07a12.34,12.34,0,0,0-2.28.34A4.68,4.68,0,0,0,322,190a2.31,2.31,0,0,0-.8,1.88q0,1.07,1.81,2.68t4.43,3.76q2.62,2.15,5.77,5a40.09,40.09,0,0,1,5.77,6.44,37.56,37.56,0,0,1,4.43,8.18,27.39,27.39,0,0,1,1.81,10.19,32.13,32.13,0,0,1-1.88,11.07,23.55,23.55,0,0,1-5.83,9,27.92,27.92,0,0,1-10.13,6,43.38,43.38,0,0,1-14.62,2.21,88.58,88.58,0,0,1-9.46-.47q-4.36-.47-7.71-1.14a64.66,64.66,0,0,1-7.11-1.61Zm11.27,16.1q1.88.4,4,.67,1.88.27,4,.47t4.23.2a30.52,30.52,0,0,0,7.31-.87,18.38,18.38,0,0,0,6.37-2.88,14.77,14.77,0,0,0,4.49-5.16,16.27,16.27,0,0,0,1.68-7.71,15,15,0,0,0-1.95-7.38,34.16,34.16,0,0,0-5-6.71,84,84,0,0,0-6.44-6.17q-3.42-2.95-6.44-6a36.76,36.76,0,0,1-5-6,11.35,11.35,0,0,1-1.95-6.24,9.22,9.22,0,0,1,3.09-7.45q3.08-2.62,9.93-2.62c.71,0,1.45,0,2.21.07s1.5.11,2.21.2a17.14,17.14,0,0,0,2.14.13v-3.49a16.17,16.17,0,0,1-2-.13c-.63-.09-1.32-.15-2.08-.2s-1.54-.07-2.35-.07q-7.24,0-11.94,3.29t-4.69,10.26a13.57,13.57,0,0,0,1.95,7,35.32,35.32,0,0,0,5,6.44q3,3.15,6.44,6.1t6.44,6a33,33,0,0,1,5,6.24,12.79,12.79,0,0,1,1.95,6.71q0,6.44-4.36,9.79t-12,3.35a47.39,47.39,0,0,1-8.32-.67q-2-.27-3.89-.67Z"/><path class="cls-2" d="M349.89,164.66h30.58l-4.56,63H354.46Zm.94,67.07h28.71v22.4H350.83Zm20.66,12.74v-3.09H358.88v3.09Zm-4.69-25.22V174.59h-3.22v44.67Z"/><rect class="cls-3" x="556.91" y="124.35" width="206.99" height="140.78"/><polygon class="cls-4" points="763.9 177.33 673.16 177.33 673.16 124.35 647.66 124.35 647.66 177.33 556.91 177.33 556.91 202.83 647.66 202.83 647.66 265.14 673.16 265.14 673.16 202.83 763.9 202.83 763.9 177.33"/><rect class="cls-3" x="546.42" y="74" width="227.97" height="46.38"/><path class="cls-4" d="M705.92,33C690.12,30.58,677,45.79,670.58,55a25.92,25.92,0,0,0-20.16.26C644.07,46.08,630.84,30.56,614.9,33c-22.47,3.42-20.64,22.06-19.54,25.4,0,0,4.62,21.42,48.95,24.16a20.81,20.81,0,0,0,3.35,2.6v35.24h25.5V85.63a21,21,0,0,0,4.23-3.14c43.51-3,48.07-24.1,48.07-24.1C726.55,55,728.39,36.41,705.92,33Z"/></g></g></svg>