<?xml version="1.0" encoding="utf-8"?>
<!-- Generator: Adobe Illustrator 20.1.0, SVG Export Plug-In . SVG Version: 6.00 Build 0)  -->
<svg version="1.1" id="Layer_1" xmlns="http://www.w3.org/2000/svg" xmlns:xlink="http://www.w3.org/1999/xlink" x="0px" y="0px"
	 viewBox="0 0 325.1 108" style="enable-background:new 0 0 325.1 108;" xml:space="preserve">
<style type="text/css">
	.st0{fill:#1767FF;}
</style>
<title>Asset 1</title>
<g>
	<path class="st0" d="M52.4,55.2l-0.2,1.9l-0.2,0.2c-0.2,0.2-0.5,1.2-0.5,2.8c-0.2,0.2-0.2,0.9-0.5,1.9c-0.2,0.2-0.2,0.3-0.2,0.5
		h0.2c0,0.2,0,0.2,0.2,0.3L50.4,63l0.5,0.7l-0.7,1.6v0.9c-0.2,0.3-0.5,0.7-1.2,1v1.2c-0.7,0.5-1.5,1.6-2.7,3.1
		c0,0.2-0.2,0.2-0.5,0.3c0,0.5-0.5,1.4-1.5,2.6v0.7l-0.7,0.3v0.3l-1.7,1v0.3c-0.5,0.2-0.7,0.5-1,1c-1.7,0.5-1.7,0.3-4.6,1.7
		c-0.5,0.2-1.5,0.3-2.7,0.3l-0.5,0.3h-1.7c-0.5-0.2-1.2-0.2-2.4,0.2c-0.2,0-0.7,0-1.5,0.2c-0.2-0.2-1.2-0.2-2.7-0.3
		c-0.2-0.2-1.2-0.3-2.4-0.5c-0.5,0-1.2-0.2-2-0.3h-1c-0.2-0.2-0.7-0.3-1.7-0.5c-0.2,0-0.5,0-0.7-0.2l-1.2-0.3
		c-0.7-0.2-2.4-0.7-6.3-2.1H9.1c-2.9-0.7-3.7-2.9-4.9-2.9v-1C4,72.5,3.8,72.2,3,71.8v-0.7H2.3C2,70.8,2,70.4,2,70.1
		c0-0.2,0-0.5,0.2-0.9c0-0.2-0.2-0.3-0.5-0.7c0-0.9,0-2.6-0.2-5.2c0-0.2-0.2-0.2-0.5-0.3v-0.3h0.2c0-0.7-1.2-2.8-1.2-4
		c0-1.2,0-1.9,0.2-2.4c0-0.5,0-0.5,0,0c-0.2,0-0.2-0.2-0.2-0.3l0.2-0.2c0-1,0.2-1.6,0.5-1.7v-0.2c-0.2-0.2-0.2-0.5-0.2-0.9
		c0-0.3,0.2-0.7,0.5-1.2c-0.2-0.3-0.2-1,0-2.1c0.2-0.2,0.5-0.9,0.7-2.1v-3.1H2l0.7-0.7C3,43.4,3.3,42.9,3,42.2
		c0.2-0.2,0.5-0.7,0.5-1.6c0.7-0.2,1-0.7,0.7-1.2C4,39.4,4,39.2,4,39c0.2-0.3,0.2-1,0.2-2.1c0.7-0.2,1-0.7,1-1.6
		c0.2-0.2,0.2-0.5,0.5-1l1.5-0.9h1l0.7-0.9c1.2-0.5,2-1.2,2.7-1.7l0.7-0.2c0.7-0.2,1.7-0.9,2.4-1.7c2.2-0.5,2.4-0.7,3.4-1.4
		c0.2,0,0.7,0,1.5-0.2c0-0.2,0-0.2,0.2-0.3c1.2-0.2,1.7-0.3,1.5-0.3h0.2c0.2-0.5,1-0.9,2-0.9c0,0.2,0.2,0.2,0.7,0.2
		c0.7-0.2,1.5-0.7,2.2-1.2h1.2l1.2,0.7c1.2-0.2,1,0.5,2,0.5l0.2-0.2h3.7c0.5,0.3,1.2,0.5,2,0.5l0.7,0.5c1.2,0,2,0.5,2.4,1.4
		c1,0.3,1.7,0.9,2.2,1.7l0.7,0.3l1,0.3c0.2,0.2,0.5,0.5,0.5,1.2c0.7,0.5,1.2,1,1.2,1.4l1,0.9V35c0.2,0.3,0.7,0.9,1.5,1.4
		c0,0.5,0.2,0.9,0.7,1c0,0.2,0,0.3,0.2,0.5v1.6c-0.2,0-0.2,0.2-0.2,0.3h0.2v1.2L48.2,42c0.2,0.2,0.2,0.3,0.2,0.5
		c-0.5,0.2-0.7,0.7-0.7,1.2c-1,0.2-1.5,0.7-1.5,1.4l-3.7,2.6c-0.7,0.5-1.2,0.9-2,1v0.9c-0.7,0.2-1.2,0.5-1.5,0.9h-0.5
		c0,0.3-0.2,0.5-0.5,0.7c-0.2,0.5-0.5,0.9-0.7,0.7l-0.2,0.3l-2,1v0.3C34,54,33.6,54.5,33.6,55c-1.2,0.5-2.7,1.2-4.4,2.4
		c-0.2,0-0.7,0-1.5,0.2c0,0.5-0.2,0.7-1,0.5h-1c0,0.2,0,0.2-0.2,0.2L24,58.6c-1,0.2-1.5,0.3-1.7,0.3c-0.7-0.2-1.2-0.3-1.5-0.3
		c-0.2,0-0.5,0-0.5,0.2c0,0.2,0,0.2,0.2,0.2v4.3c0.2,0.2,0.5,0.3,0.5,0.9c0.2,0,0.2,0.2,0,0.7c0.2,0.2,0.5,0.7,0.5,1.2
		c-0.2,0.2-0.5,0.5-0.5,0.7c0,0.3,0.2,0.7,0.5,0.9c0.2,0.7,0.2,1.2,0.2,1.7l0.7,0.3c0.7,0.2,1.2,0.3,1.2,0.5c-0.2,0-0.5,0-0.7,0.2
		c0,0.5,0.5,0.9,1.2,1c0,0.2,0,0.2,0.2,0.3c1.7,0.2,2.4,0.2,2,0.3v-0.3c0.5,0,0.7,0.2,1,0.3l0.5-0.5c1.2,0,2-0.2,2.2-0.3h0.7l1-0.3
		c0.2-0.2,0.5-0.2,0.5-0.3c0.7-0.2,1.7-0.9,2.4-1.7l1.5-1c0.2-0.2,0.5-0.2,1-0.2c0,0.3,0.5,0,1.5-1l1-0.9c0.2-0.2,1.2-0.7,1.5-1.2
		c-0.2,0,0-0.5,1.2-1.6l1-1.4l1-0.7V60c0.5-0.2,0.7-0.2,0.7-0.3c0-0.9,0.5-1.9,1.5-3.1l-0.2-0.3h-0.5v-0.7h0.7c0-0.2,0.2-0.5,0.5-1
		c0.2-0.2,0.5-0.2,0.7-0.2V54c0.7-0.2,1-0.2,1.2-0.2v-0.3h1c0-0.2-0.2-0.3-0.5-0.5v-0.7c1.7-0.2,2.9,0.2,3.7,0.9
		c0,0.2,0.2,0.2,0.5,0.3L52.4,55.2z M4.7,40.6v0.5c0,0.2,0,0.2-0.2,0.2v0.2c0.2,0,0.2,0,0.2,0.2c0-0.2,0-0.5,0.2-1H4.7z M5.7,65.9
		c0,0.2,0,0.2-0.2,0.2c0.2,0.2,0.2,0.3,0.2,0.5C6,66.5,6,66.3,6,66.1L5.7,65.9z M5.7,60.6v0.2h0.5c0.2,0.3,0.2,0.7,0.2,0.9
		c0.2-0.2,0.2-0.2,0.5-0.2c-0.2-0.2-0.2-0.2-0.2-0.3c0.5-0.2,0.7-0.3,0.7-0.5H5.7z M7.2,34.9v-0.2H6.9v0.2H7.2z M7.4,65.6
		c0.2-0.3,0.2-0.7,0-1.2H6.9c0,0.2,0,0.3,0.2,0.5c-0.2,0.2-0.2,0.3-0.2,0.7H7.4z M7.4,42.9c-0.2,0.5-0.5,0.7-0.2,0.9
		c0.2,0,0.5,0,0.7-0.2C8.2,43,7.9,42.9,7.4,42.9z M9.9,48.8v-0.3h-1c0-0.2,0-0.2-0.2-0.3c-0.7-0.2-1-0.3-1.2-0.5
		c-0.2,1.2,0,1.9,0.7,2.3c0.5-0.3,0.7-0.7,0.7-1H9.9z M7.4,65.9c0,0.3,0,0.5,0.2,0.3L7.4,65.9z M9.1,71.1c0-0.2,0-0.3-0.2-0.5H8.4
		v0.2c0,0.2,0,0.2,0.2,0.3H9.1z M9.1,36.8C9.4,37,9.4,37,9.4,37.1c0-0.2,0-0.2,0.2-0.3H9.1z M12.6,74.4v-0.3h-0.2v0.3H12.6z
		 M17.4,43.7h-0.5c0,0.2,0.2,0.5,0.5,0.7l-1,0.5l-0.2,0.3c0.2,0.2,0.2,0.2,0.5,0.2V46c-0.2,0-0.5,0-0.5,0.2C16,47,16,47.5,16,48.1
		h-0.2c0,0.2,0.2,0.5,0.5,0.9h0.5c-0.2-0.2-0.2-0.3-0.2-0.5c0.2-0.5,0.2-1,0.5-1.2h0.2c0-1.6,0.2-2.6,0.7-2.9L17.4,43.7z M15.7,49.5
		v1c0.5-0.2,0.5-0.5,0.2-1H15.7z M19.6,27.8c-0.2,0-0.5,0-0.7,0.2v0.5h0.2c0.2-0.2,0.2-0.2,0.5-0.2V27.8z M19.6,59l-0.2-0.2L19.6,59
		z M19.6,63.5v-0.9h-0.2v0.9H19.6z M20.4,66.1v-0.2c-0.2,0.2-0.2,0.2-0.5,0.2H20.4z M21.3,29.7c-0.2,0-0.5,0.2-0.7,0.3v0.3
		c0.5,0,0.7,0,1-0.2C21.3,30,21.3,29.8,21.3,29.7z M20.6,45.3v0.2c0.2,0,0.2,0,0.5-0.2H20.6z M37.2,41.1v-2.4
		c-0.2-0.2-0.5-0.2-0.7-0.2l0.7-0.3c0,0.2-0.5-1-1.5-3.8l-1.5-2.4H34c-0.2-0.5-0.2-0.7-0.2-0.9c-1.2-0.3-2.2-0.7-2.7-1
		c-1.5,0.2-2.2,0.5-2.2,1c-0.5,0.2-1,0.2-1.2,0.2c0,0.5-0.2,0.7-0.7,0.7c-0.2,0.3-0.2,0.7-0.2,0.9L26,35c-0.7,1-1.2,1.9-1.5,2.8
		c-0.2,0.5,0,0.7,0.2,0.9l-0.2,0.2c-0.2,0.5-0.2,0.9-0.5,0.9c-0.2,0.9-0.7,1.4-1,1.4c0,0.5,0.5,0.9,0.5,1c-0.2,0.2-0.2,0.2-0.5,0.2
		v1.4l-0.5,0.9c-0.2,1.4-0.5,2.9-1,4.7V51c-0.2,0.2-0.2,0.5-0.5,1c-0.2,0.5,0,0.9,0.2,1c0,0.2,0,0.3-0.2,0.7v0.3
		c0.7-0.2,1.5-0.3,2-0.9c0.2-0.2,0.7-0.2,1.2-0.2v-0.2H25c0.2-0.5,1-0.9,1.7-1c0.2-0.5,1-0.9,2.2-0.9v-0.3l1.5-0.5
		c2.9-0.5,3.9-0.7,2.9-0.7c0.5-0.7,1-1,1.2-1.2v-0.3H34c0.2-0.7,0.7-1,1-1c0,0.5,0,0.3-0.2-0.5l0.7-0.3c0.2-0.9,0.2-1.2,0.5-1.4
		c-0.2-0.2-0.2-0.3-0.2-0.7H36c0-0.9,0-1.4,0.2-1.4c0.2-0.2,0.2-0.3,0-0.5c0.2-0.2,0.2-0.2,0.5-0.2v-0.7H37.2z M23.8,28.8
		c-0.7,0.2-1,0.3-1.2,0.7l-0.7,0.2c-0.2,0.7,0,1.2,0.5,1.4c0.2-0.2,0.5-0.2,0.7-0.2V30c0.2-0.2,0.5-0.2,0.7-0.2
		c0.2-0.7,0.5-1.2,0.5-1.4C24,28.5,24,28.6,23.8,28.8z M22.1,43h-0.2c0.2,0,0.2,0,0.2,0.2V43z M23.8,70.8h-0.2v-0.2h0.2V70.8z
		 M26,26v-0.2h-0.2v0.3L26,26z M29.2,51.9c-0.2,0.2-0.2,0.2-0.2,0.3h-0.7c0,0.5-0.5,0.9-1.2,1c-0.2,0.2-0.2,0.3-0.2,0.7
		c0.7-0.2,1-0.5,1-0.7c0.7-0.2,1.5-0.3,2-0.9C29.4,52.2,29.2,52.1,29.2,51.9z M29.4,26.2h-0.2c0.2,0,0.2,0,0.2,0.2V26.2z M29.4,58.3
		l-0.2-0.2h0.2V58.3z M32.1,57.4l-0.2,0.2l-0.2-0.2H32.1z M32.1,80l-0.2-0.2V80H32.1z M33.1,50.5c-0.2-0.2-0.5-0.2-0.7-0.2
		c-0.2,0.2-0.2,0.3-0.2,0.7c0.2-0.2,0.5-0.2,1-0.2V50.5z M45.8,67v-0.7h-0.5l-2.9,2.1c0.5,0.3,0,0.9-1.2,1.4
		c0.2,0.2,0.2,0.3,0.2,0.5l-0.7,0.3c0,0.2,0,0.3,0.2,0.5c-0.7,0.9-1.7,1.2-2.7,1.2l-0.5,0.5L36,73.2c-0.7,0.3-1.7,0.9-2.9,1.7h-0.7
		c-0.2,0.2,0,0.3,0.2,0.5c0.2,0,0.7-0.2,1.7-0.3l1-0.2c0.2-0.5,0.5-0.7,0.7-0.9l0.7-0.5c1.5-0.2,2.4,0,2.7,0.5l0.5-0.5l0.5-0.3
		c0.7-0.5,1-1,1-1.6h0.2c0.7-1.9,1.7-3.3,3.4-4.2c0-0.2,0-0.3,0.2-0.5H45.8z M35.5,78.8c0-0.5-0.2-1.2-0.5-1.9h-0.5L34.3,77
		c0.2,0.9,0.2,1.4,0.2,1.7H35.5z M36.2,37.7h-0.7v-0.2h0.7V37.7z M35.7,42.7l-0.2,0.2v-0.3h0.2V42.7z M38.9,78.3
		c-0.5-0.2-0.7-0.2-1,0v0.3h0.7L38.9,78.3z M40.4,77.9l-0.2-0.2l-0.2,0.2H40.4z M43.3,46.2c0-0.2,0-0.2-0.2-0.2l-0.2,0.2H43.3z
		 M43.6,64.2C43.3,64,43.3,64,43.1,64v0.2H43.6z M43.6,45.1h-0.2c0,0.2,0,0.2,0.2,0.3V45.1z M45,32.8h-0.2c-0.2,0.3-0.5,0.5-0.5,0.7
		l-0.2,0.2c0.2,0,0.7,0,1-0.2V32.8z M45,44.6v-0.2l-0.2,0.2H45z M45,62.1v-0.3h-0.2v0.3H45z M46,64.7c-0.2,0.2-0.5,0.5-0.5,1
		c0.5,0,1-0.3,1.2-0.9C46.5,64.7,46.2,64.7,46,64.7z M46,34.9V35c0.2,0,0.2,0,0.2-0.2H46z M47,59.9c0.2-0.3,0.2-0.5,0-0.7V59.9z
		 M48,35.9l-0.2,0.3v-0.3H48z M48,37.5h-0.2v0.2L48,37.5z M48,57.4h-0.2v0.3L48,57.4z M49.2,53.3l-0.2,0.2v-0.2H49.2z M50.4,60.7
		v-0.3h-0.5c0,0.2,0,0.2,0.2,0.3H50.4z M50.4,54.1c0,0.2,0,0.2,0.2,0.2L50.4,54.1z M51.1,57.6h-0.2c0,0.2,0,0.5,0.2,0.9V57.6z
		 M52.1,54l0.2,0.2c0-0.2,0-0.2,0.2-0.2H52.1z"/>
	<path class="st0" d="M104.9,57.4l-0.5,0.5l-0.5,0.2c0,0.7,0.2,1,0.5,1v0.2c-0.7,0.2-1,0.5-1.2,1.4l-0.5,0.3l0.5,0.3l-0.2,0.2
		c-0.2,0.2-0.7,0.5-1,1l0.5,0.3l-0.5,0.7l-1,1.2c-0.7,0.9-1,1.2-1,1h0.7v0.2l-0.5,0.3L98.8,68l-0.2,1c-0.7,0.2-1,0.5-1.2,1.2
		c-0.7,0.3-1,1-1.2,2.3c-0.7,1.2-1.2,2.1-1.2,2.6h-0.7c-0.7,0.9-1.2,1.2-1.7,1.2l-0.2-0.2L91.4,77H88l-1,0.3c0,0.5-0.2,1-0.7,1.6
		c-0.2-0.2-1.2,0-2.4,0.3c-0.7,0-1.7,0-3.2,0.2v0.2l-1.2-0.5h-2L76,78.3v-0.3c-0.2-0.2-0.5-0.2-0.7-0.2c-0.2-0.5-0.7-0.9-1.5-1.2
		c-0.2-0.3-0.2-0.9-0.5-1.6h-0.5c0-0.5,0-1.2-0.2-2.1h-0.7l1-2.8c0-0.2,0-0.2,0.2-0.2c0.2,0,0,0.2-1.2,0.5l-1.5,0.9
		c0.2,0.5,0.5,0.7,0.5,0.9c-0.5,0.2-0.7,0.7-0.7,1.4c-0.2,0-0.2,0-0.5,0.2c-0.5,0.5-1,0.7-1.5,0.9l-0.2-1h-0.2c0,0.7,0,1,0.2,1.2
		c-0.5,0-1.5,0.9-2.9,2.4c-0.5,0-0.7,0.3-0.7,1l-2.2,0.9c-1,0.7-1.5,1-1.5,0.9h-0.7c-0.2,0-0.2,0-0.2-0.2c-0.7,0-1,0-1.2,0.2
		l-0.7,0.5c-0.7-0.3-1-0.5-1.2-0.3h-1.7c-0.2-0.2-1-0.2-2-0.2c-0.2-0.5-0.7-0.7-1.5-0.9v-1c-0.2-0.2-0.5-0.3-0.2-0.9
		c-0.2-0.2-0.5-0.5-0.5-1c-0.2-0.2-0.5-0.3-0.2-0.7v-1.2h0.5l-0.7-0.9c0-0.7,0-1.7,0.2-3.1h0.5c-0.2-0.2-0.5-0.2-0.7-0.2
		c0-0.3,0-0.9,0.2-1.6c-0.2-0.2-0.2-0.7,0-1.2l0.2-0.2c-0.2,0-0.2,0-0.5-0.2l0.2-0.3h0.5v-0.9h-0.5c-0.2-0.5-0.2-0.7,0.2-0.9h-0.2
		c-0.2-0.2-0.2-0.5-0.2-0.7c-0.5-0.2-0.5-0.5-0.2-0.7c0.2-0.2,0.2-1.2,0.2-2.8l0.7-0.3v0.3h0.5V60l-0.7-0.3V60c-0.2,0-0.2,0-0.2-0.2
		c0-0.2,0-0.5,0.2-0.7c0-0.2,0-0.2-0.2-0.3l-0.7-0.2c0-0.5,0.7-1.9,0.7-2.4c0.2,0,0.2,0,0.2,0.2l0.5-0.5c-0.7-1-1-1.4-1-1.2
		c0.7-1.2,1.2-1.7,1.2-1.9c-0.2-0.2-0.5-0.7-0.5-1.6c-0.2-0.2-0.5-0.5-0.2-1.2c-0.2-0.3,0.2-1,1.5-2.3l0.5-0.5l0.2-1
		c-0.2-0.2-0.2-0.5,0-0.9l0.2-0.2c-0.2-0.2-0.5-0.3-0.2-0.5h0.5c0-0.2,0-0.3-0.2-0.5c0.2-0.2,0.7-1.2,1-2.9c0.2-0.2,0.5-0.5,0.2-1
		c0.2-0.2,0.2-0.3,0.2-0.5c-0.2,0-0.2,0-0.5-0.2c0.2-0.2,0.7-1.6,1-4h0.5c0-0.2,0.7-0.5,0.7-1c0-0.3-0.2-0.9-0.5-1.4
		c-0.2,0.2-0.5,0.9-0.5,2.1c-0.2,0.2-0.2,0.2-0.5,0v-1.7c-0.7-0.5-1.7-0.7-2.9-0.7l-0.2,0.2c-0.7-0.2-2-1.2-2.2-1.2v-0.2h0.7
		c0-0.3,0.5-0.7,1.2-1.2c0-0.2,0.5-0.5,1.2-0.9c3.2-0.2,5.1-0.3,5.4-0.2l0.7,0.9c-0.5,0,0.5-0.2,3.2-0.3c0.7-0.5,2.2-0.7,4.4-0.7
		c0.5,0.3,1,0.5,1.5,0.7c0,0.2,0.2,0.2,0.5,0.3l1,0.3h1c0.2,0.2,0.7,0.2,1.2,0.3v1.7c-0.7,0.5-1.2,0.7-2,0.9l-0.2-0.2
		c-0.2,0.2-0.7,0.2-1,0.2c0,0.3,0.2,0.7,0.7,0.9v0.5h-0.7C68,34.9,68,35,68,35.2v0.5l-1.2,1.7h-0.2c0.2,0.2,0.5,0.5,0.5,0.9
		c0,0.2-0.2,0.5-0.5,1c-0.2,0.9-0.2,1.4-0.2,1.7c0,0.2,0,0.5,0.2,0.7h-0.7c0,0.9-0.2,1.6-0.5,1.7v0.5h0.2v0.2
		c-0.2,0.2-0.5,0.7-0.5,1.6h-0.2c0.2,1-0.2,2.3-1.5,3.8v0.2c0,0.2,0,0.2,0.2,0.3l-0.2,0.2c-0.2,0.2-0.2,0.5-0.2,0.9V54l-0.7,2.3
		c0,0.2,0,0.3,0.2,0.7c-0.5,0-0.7,0-0.7,0.2c0.5,0.2,0.5,0.5,0.2,0.9c0.2,0.3,0.2,0.5,0,0.7c0.2,0.5,0.2,0.9-0.2,1
		c0,0.5,0.2,1,0.5,1.6c-0.2,0.2-0.2,0.5,0,0.9c-0.2,0.2-0.7,0.2-1.2,0.3v0.3c0.2,0.2,0.2,0.2,0.5,0.2c0.2-0.2,0.5-0.2,0.7-0.2
		c0.2,0.2,0.2,0.3,0.2,0.7c-0.2,0.2-0.2,0.3-0.2,0.5c0,0.2,0,0.3,0.2,0.5c-0.2,0.2-0.2,0.3-0.2,0.7h-0.5v0.9h2l0.5-0.3l0.5-0.5h2
		c0.2-0.2,1-0.3,1.7-0.5c0,0.2,0,0.2,0.2,0.2H69c1.7-1.2,2.4-0.9,3.7-2.1v-0.5h-0.5c0-0.5,0.5-0.7,1.7-0.9c0-0.9,0.2-1.2,1-1.4v-0.7
		c0-0.5,0.5-1,1.2-1.9v-3.1c0.2-0.2,0.2-0.7,0.5-1.2c0.2-0.2,0.2-0.2,0.2-0.3c-0.2-0.2-0.2-0.5,0-0.7c0,0.3,0,0.3,0.2,0.2
		c0-0.2,0-0.5,0.2-1.4l0.2-2.1h0.2c0-0.5,0.5-1.4,0.5-2.1c0.7,0,1.2-0.2,1.5-0.3c-0.5-0.2-1,0-1.2,0.2c-0.5,0-0.7-0.3-0.7-0.9
		c0.7-0.5,1-2.1,1.2-2.1c-0.2-0.2-0.2-0.3,0-0.7c0.2-0.2,0.5-0.2,0.7-0.2c0-0.2-0.2-0.3-0.7-0.7l0.7-1.9v-0.5h-0.2l0.5-1.4
		c0.2-0.2,0.5-0.2,0.7-0.2v-1c-0.2,0-0.5-0.3-0.7-0.9l0.7-0.2v-0.2h-0.7l-0.2-1.2c-0.5-0.2-0.5-0.5-0.2-1l1,0.3c0-0.2,0-0.3,0.2-0.5
		c-0.2,0-0.5,0-0.7,0.2v-0.7h0.5l0.2-0.2l-0.7-0.2l-0.2-3.1h0.5c0.2,0,0.7-0.2,1.5-0.3h1.5l0.2,0.2c0.2-0.2,0.5-0.2,0.7-0.2v0.2
		l0.2-0.2c0.2-0.2,0.7,0,1.5,0.2c1.2,0,2.2-0.2,2.4-0.5c0.7,0,1.2-0.2,1.5-0.3c0.2,0,0.7,0.2,1.5,0.3c0.5,0,1.2,0,2.4-0.2
		c0.7,0,1.7,0.5,2.7,1.7c0.5,0,1.2,0.3,2,0.9v0.3l-0.7,0.9c0.2,0.2,0.2,0.5,0.2,0.7c-0.5,0.2-1,0.5-1.5,0.9c0,0.7-0.2,1.2-0.5,1.4
		v0.2c0,0.2,0,0.3-0.2,0.5v0.5l-0.5,0.3c-0.7,2.3-1,3.1-1,2.3c-0.2,0.2-0.2,0.7-0.5,1.4c-0.2,0-0.2,0-0.5,0.2l-0.5,0.3h-0.7l0.7,0.5
		v1h-0.7v0.3c0,0.2,0,0.2-0.2,0.3v0.2c0.2,0,0.2,0,0.5,0.2v0.5c-0.7,0-1,0.9-1,2.6l-0.7,0.5L90.2,50c-0.2,0-0.2,0-0.5-0.2
		C89.5,50,89.5,50,89.2,50c0.2,0.2,0.2,0.7,0.2,1.6c0.2,0.2,0.5,0.3,0.2,0.5c-0.5-0.2-0.7-0.2-1-0.2l-0.5,0.3
		c0.2,0.2,0.5,0.3,0.7,0.9V54h-0.2c0,0.2,0,0.3,0.2,0.5c-0.2,0.2-0.2,0.5,0,0.7c0.2,0.2,0,0.3-0.5,0.5L87.8,56
		c0,0.2,0.2,0.3,0.5,0.5v0.2H88c0.2-0.5,0.2,0.3,0.2,2.3c-0.2,0-0.5,0-0.5,0.2v1.6c-0.7,0.2-1,0.3-1.2,0.7c-0.2,0.5-0.2,0.9,0.2,1
		c0,0.2,0,0.3-0.2,0.5c0.2,0,0.2,0,0.2,0.2C87,63.7,87,63.9,87,64h0.7v0.9c0.2,0,0.2,0.2,0.5,0.3H89l0.2,1.7c0.2,0.2,0.2,0.5,0,1
		c0.2,0,1,0,1.7,0.2c0.2-0.2,0.5-0.5,0.5-1c-0.5-0.2,0-0.7,1.5-1.4v-0.3c0.5,0,1-0.2,1.5-0.5h0.5c0.5-0.9,1-1.7,1.5-2.3h0.2v-0.3
		c-0.2,0-0.2,0-0.2-0.2v-0.3c0.2-0.3,0.5-0.9,1.2-1.4l0.7-0.9c-0.2-0.9-0.5-1-0.5-0.9l0.7-0.2c0-0.9,0.5-1.7,1.2-2.3l-0.5-0.3
		l0.7-0.5v-1.2l0.7-0.2c0-0.2,0.2-0.7,0.5-1.4h2c0.2,0.2,0.7,0.2,1.2,0.2c0,0.7,0.2,1,0.5,1.2v0.5c0,0.2,0,0.2-0.2,0.2
		c0,0.2,0,0.2,0.2,0.3V57.4z M51.1,64v-0.2h-0.7V64H51.1z M51.9,30.5c0.2,0.2,0.2,0.2,0.2,0.3c0-0.2,0-0.2,0.2-0.3H51.9z M56,79.5
		l-0.2-0.2l-0.2,0.2H56z M59.7,56.4c0-0.3-0.2-0.5-0.5-0.7c-0.2,0-0.2,0-0.2,0.2v0.3c-0.2,0-0.5,0.2-0.5,0.7c-0.2,0-0.2,0-0.2-0.2
		c-0.2-0.3,0-0.9,0.2-1.7v-2.1c-0.2-0.3-0.5-0.7-0.2-0.9l1,0.3v-0.5c-1-0.5-1.5-0.9-1.5-1l0.7-1.7l-0.7-0.2c0-0.2,0-0.2-0.2-0.2
		c-0.2,0.2-0.2,0.3-0.2,0.5c-0.2,0.7-0.5,1.2-0.5,1.6c-0.2,0.5,0,0.7,0,0.9c-0.2,0.2-0.5,0.9-0.5,1.7C56,54,56,54.3,56,54.5
		c0.7,0.5,1.2,1,1.2,1.2c-0.2,0-0.5,0-0.7,0.2c0.2,0.2,0.2,0.2,0.2,0.3c-0.2,0-0.2,0.5-0.2,1.4c0.5,0.3,0.5,0.7,0.2,0.9V59h-0.5v0.3
		c0.5,0.2,0.7,0.3,1,0.3l-0.7,1l0.5,0.5h0.7v-0.7h0.7l-0.2-0.2v-1.9c0.2,0,0.2-0.2,0.2-0.5c-0.2-0.2-0.2-0.3-0.2-0.5l0.7-0.2v0.2
		l0.2,0.2C59.4,57.1,59.7,56.6,59.7,56.4z M58.9,54c0.2,0.2,0.2,0.2,0.2,0.3c0-0.2,0-0.2,0.2-0.3H58.9z M59.2,52.7v0.3h0.2
		c0-0.2,0-0.2,0.2-0.3H59.2z M59.4,58.1L59.2,58v0.2H59.4z M61.4,61.9l-0.2-0.2v0.2H61.4z M61.9,64.7v-0.3h-0.5v0.3H61.9z
		 M62.6,51.4v-0.2l-0.2,0.2H62.6z M64.8,69.1h-1.7v0.5c-0.2,0.2-0.2,0.2-0.5,0.2l0.7,0.7l0.7-0.5c1,0,2-0.3,2.7-0.9h0.7
		c0.2-0.2,0.2-0.2,0.2-0.3C67,68.7,65.5,69.1,64.8,69.1z M63.3,48.6c-0.2,0-0.2,0-0.2,0.2c0,0.2,0,0.2,0.2,0.2V48.6z M64.1,52.4
		c-0.2,0-0.2,0-0.2,0.2l-0.2-0.2c0-0.2,0-0.2,0.2-0.2L64.1,52.4z M64.6,29.8v0.3c0.2-0.2,0.2-0.2,0.2-0.3H64.6z M65.3,48.2
		c0-0.2,0-0.2,0.2-0.2C65.5,48.2,65.5,48.2,65.3,48.2z M66.3,45.3c-0.2-0.2-0.2-0.2,0-0.3c0,0.2,0,0.2,0.2,0.3H66.3z M68.7,32.8
		v-0.2h-0.5v0.2H68.7z M71.9,64.9v-0.3h-0.2v0.3H71.9z M76.5,46.3V46c0.2,0,0.2,0,0.5,0.2C76.8,46.2,76.8,46.2,76.5,46.3z M78.5,39
		c0,0.2,0,0.2-0.2,0.3V39H78.5z M78.7,78.6l-0.2-0.2c-0.2,0-0.2,0-0.2,0.2H78.7z M79.5,38h-0.2C79,38,79,38,79,37.8
		c0-0.2,0.2-0.2,0.5-0.2V38z M79.5,46v-0.2h-0.2v0.3L79.5,46z M80.2,29.7l0.2,0.2c0.2-0.2,0.2-0.2,0.5-0.2
		C80.7,29.5,80.4,29.5,80.2,29.7z M80.7,40.8l-0.2-0.3v0.3H80.7z M81.2,63.9v0.5c0.2-0.2,0.5-0.3,0.5-0.5H81.2z M83.6,77.7v-0.3
		h-0.2v0.3H83.6z M83.6,29.8V30c0.2,0,0.2,0,0.2-0.2H83.6z M83.6,48.6v0.3h0.2c0-0.2,0-0.2,0.2-0.3H83.6z M84.3,54.7v-0.3h-0.2v0.3
		H84.3z M84.6,49.8h-0.2c0,0.2,0,0.5,0.2,1c0.2,0,0.2,0,0.5-0.2C85.3,50.3,85.3,50,84.6,49.8z M85.6,49.1v-0.7l-1,0.7v0.5L85.6,49.1
		z M84.8,52.4l-0.2-0.2v0.2H84.8z M86.1,61.2v-0.9c-0.2,0-0.2,0-0.5,0.2c-0.2,0-0.2,0.2,0,0.3h0.2v0.3H86.1z M87.3,42.9l-0.7-0.2
		c0-0.2,0-0.3-0.2-0.5h-0.7V43c0.2,0.2,0.7,0.2,1,0.2v0.3c0.2,0,0.5,0,0.7-0.2V42.9z M86.1,63.2h-0.5v-0.3c0,0.3,0,0.7,0.2,0.9
		c0.2-0.2,0.2-0.2,0.5-0.2C86.3,63.3,86.3,63.3,86.1,63.2z M86.1,47.4h-0.2v0.3L86.1,47.4z M86.1,61.9v-0.3h-0.2v0.3H86.1z M86.3,59
		h-0.2v0.2L86.3,59z M86.8,57.6v-0.7c-0.2,0.2-0.2,0.5-0.2,0.7H86.8z M87.5,52.1h-0.2v0.3c0.2-0.2,0.2-0.2,0.5-0.2L87.5,52.1z
		 M89,48.8c-0.2,0.2-0.5,0.2-0.7,0.2l0.5,0.5h0.5c0.2-0.2,0.2-0.2,0.2-0.3C89.2,48.9,89,48.9,89,48.8z M88.7,56.4V56
		c0,0.2,0,0.2,0.2,0.3H88.7z M89,76.5v-0.3h-0.2v0.3H89z M90.7,46.2c-0.5-0.3-0.7-0.5-1-0.5v0.2H89c0.2,0.2,0.2,0.2,0.2,0.3l0.5-0.3
		l0.7,0.3H90.7z M89.7,29.1V29l-0.2,0.2H89.7z M90.2,44.9c-0.2-0.2-0.5-0.2-0.5-0.3c-0.2,0.3-0.2,0.5,0,0.7c0.2-0.2,0.2-0.2,0.5-0.2
		V44.9z M90.2,67.3h-0.5L90,67h0.2V67.3z M91.2,42.2h-0.5c0,0.2,0,0.2,0.2,0.2L91.2,42.2z M90.9,71.3h-0.2c0,0.2,0,0.2,0.2,0.2V71.3
		z M93.6,37.7v-0.3c-0.2,0.2-0.5,0.2-0.7,0.2v0.2H93.6z M93.1,38.3V38h-0.2v0.3H93.1z M93.1,39.9v-0.3h-0.2v0.3H93.1z M94.1,34.7
		v0.2c0.2,0,0.5,0,0.7-0.2H94.1z M96.8,69.2v-0.3c-0.2,0.2-0.2,0.2-0.2,0.3H96.8z M100.2,64.4v-0.2H100v0.2H100.2z M100.7,56.7
		l-0.2-0.2l-0.2,0.2l0.2,0.2L100.7,56.7z M101,63.3V63c-0.2,0.2-0.2,0.2-0.2,0.3H101z M101.9,54.5v-0.3h-0.2v0.3H101.9z M102.4,57.6
		l-0.2-0.2v0.2H102.4z M103.9,55.7v-0.3h-0.2v0.3c-0.2,0-0.5,0.2-0.2,0.3L103.9,55.7z M103.4,54.1v0.2c0.2,0,0.5,0,0.5-0.2H103.4z"
		/>
	<path class="st0" d="M156.6,39.2c-0.2,0-1,0.2-1.7,0.3c0.5,0.5,0.2,1.2-0.7,2.3h-0.5c0,0.2,0,0.7-0.2,1.2l-0.5,0.3l-3.2,3.6
		c0,0.3-0.5,0.7-1.2,0.9v0.5l-2.2,1.2c-0.2,0-0.5,0-0.7,0.2V50h-1.7v-0.2c-0.5,0-0.7,0-1,0.2c-0.2-0.2-1-0.2-2.2-0.3
		c-0.2,0-0.7,0-1.2-0.2c0-0.9-0.2-1.4-0.5-1.6v0.2h-0.5v-0.9c-0.2-0.5-0.5-1-1.2-1.7l-0.2-0.5c-0.2-0.5-0.2-1.6-0.2-2.8
		c-0.2,0-0.5,0-0.7-0.2v-0.5c0.2-0.2,0.2-0.2,0.5-0.2l0.7-3.5l0.7-0.5l0.5-1.2c0.2-0.2,0.5-0.2,0.7-0.2c-0.2-0.2,0-0.5,0.5-0.9v-0.9
		c0.5-0.2,0.7-0.3,1-0.7l1.2-0.9v-0.7h0.2l0.2,0.2v-0.7c-0.2-0.2-0.2-0.2-0.5-0.2v-0.2c0.2,0.2,0.2,0.2,0.5,0.2l1.5-1.2
		c-0.2-0.2-0.7-0.2-1.2-0.2l-0.2,0.2H142v0.2c-1.2,0-2.2,0.3-2.4,1.2h0.7c-0.2,0.2-0.2,0.5-0.5,0.9c-0.5,0-0.7,0-1-0.2
		c-0.2,0.2-0.2,0.2-0.5,0.2c-0.2-0.2-0.7-0.2-1,0c-0.2,0.5-1,1-2.2,1.7c-0.2,0.3-0.7,0.5-1.5,0.7c0,0.3-0.2,0.7-0.5,1.2
		c0,0.2,0,0.2,0.2,0.3c-0.7,0.2-1,0.5-1.2,1c-0.7,0.2-1,0.5-1.2,1c-0.2,0-0.7,0.3-1.2,1v0.5H129c0,0.9-0.5,1.2-1.2,1.2
		c0,0.2,0.2,0.5,1,1V43l-0.5,0.7h-0.5c-0.2,0.5-0.5,0.9-1.2,1v0.7l-0.7,0.5c0,1.2,0,1.6-0.2,1.2h-0.5v1.9h-0.7
		c-0.2,0.2-0.2,0.5,0,0.7c-0.7,1.2-1.2,2.3-1.2,3.3c0.2,0,0.2,0,0.5,0.2v0.3c-0.2,0.2-0.5,0.7-1,1.6c0,0.2,0,0.5,0.2,1
		c-0.2,0-0.2,0-0.2,0.2v0.7H122l-0.7,3.8h-0.5c0.2,0.2,0.2,0.3,0,0.5c0.2,0.2,0.2,0.5,0.2,0.7c-0.2,0.2-0.5,0.7-0.2,1.4
		c0.2-0.2,0.5-0.2,0.7-0.2v0.3c-0.2,0.2-0.5,0.2-0.7,0.2c0,1-0.2,2.1-0.5,3.3v1h-0.7c-0.2,0.2,0,0.3,0.2,0.5v1.7l-1.2,1.9v2.3
		c0.2,0.2,0.2,0.5,0.5,1l-0.7,0.5c0,0.7,0,1-0.2,1.2c0,0.5,0,0.7-0.2,0.7h-0.5l-0.7,1l-0.2,0.2c-1,0-1.5,0.5-5.1,1.2
		c-0.2,0.5-0.7,0.5-1.7,0.3c-0.2,0-0.2,0-0.5,0.2h-2.4c-0.5,0-1,0-1.5-0.2c-1.7,0-2.9-0.5-3.2-1.6h-0.5c0-0.2,0.2-0.5,0.5-1
		c0.7-0.2,1-0.5,1.2-1.4l1-0.9c0-1.2,0-1.9,0.2-2.4c0-0.2,0.2-0.2,0.7-0.2c0-1,0-1.6,0.2-1.6c0-0.5,0.5-0.9,1.2-1
		c0.2-0.3,0.2-0.5,0.2-0.7h0.2c0.2-0.9,0.2-1.4,0.2-1.7l0.2-0.2c-0.2-0.2-0.2-0.3,0-0.5l0.2-5h0.2v0.2h0.2c0.2-0.2,0.2-0.3,0-0.5
		h-0.5c-0.2-0.2-0.2-0.5,0-0.7l0.5-0.7v-0.7c-0.2-0.2-0.5-0.5-0.5-0.7h0.5c0.7-0.5,1-1.2,0.7-2.3c-0.2-1.4-0.2-2.3,0-2.6
		c-0.2-0.2,0-0.3,0.2-0.5v-0.7c0-0.7,0.5-1.6,1.2-2.4c-0.2-0.2-0.5-0.2-0.5-0.3l0.7-0.5v-0.5h-0.5c0.2-0.2,0.2-0.2,0.5-0.2v-0.3
		l-0.5-0.5l0.7-0.2c0-1.7,0.2-2.6,0.5-2.8v-0.9c0.2-0.2,0.5-0.5,0.5-1v-1.2c0.2-0.2,0.2-0.5,0.5-1c-0.2-0.3-0.2-0.5,0.5-0.7
		c0-0.2,0-0.2,0.2-0.3l-0.7-0.3c-0.7,0.2-1,0.3-1.2,0.3l-0.2,0.7h-0.7l-1.5,0.9l-0.5,0.3h-0.5c-0.7,0.5-1.2,0.7-1.5,0.7l-1,1.6
		c-0.2,0-0.7,0.2-1.2,0.7h-0.2c0,0.3,0,0.5-0.2,0.7h-0.7v0.5h-0.2c0,0.2-0.2,0.5-1,1c0,0.7-0.5,1.9-0.5,2.6
		c-0.5,0.2-0.7,0.9-0.7,2.4c-0.2,0.9-0.7,1.2-1.5,1l-0.2-0.2H98c0,0.2-0.2,0.2-0.7,0.2c-0.5-0.3-1-0.5-1.7-0.7c0-0.2,0-0.3,0.2-0.7
		h-0.2v-0.7h0.2v-0.7c0.2,0,0.5,0,0.7-0.2c0.2-0.5,0.2-0.9,0.5-0.9c0-0.9,0-1.4,0.2-1.6c-0.2-0.2-0.2-0.5,0-0.9h0.5
		c0.2-0.7,0.2-1,0.5-1c0.2-1,0.2-1.4,0.5-1c0.2-0.5,0.5-1,1.2-1.7c0-0.5,0.5-1.6,0.5-1.7l1.7-2.8c0.2-0.3,0-0.7-0.5-0.9l2.4-2.9
		c0-0.2,0-0.7,0.2-1.2c0.7-0.7,1.5-1.6,2.2-2.6c0.7-0.2,1-0.5,1.2-1c0.2,0.2,0.5,0.2,0.7,0.2c1.7-1.2,2.4-1.6,2.4-1.4l1-0.5
		c0.5-0.7,1-1,1.5-1v-0.2h1.5v0.2h0.5c0.2-0.2,0.2-0.2,0.2-0.3c0.7,0,1.2,0,1.5-0.2l1.2,0.5c0-0.2,0-0.2,0.2-0.3
		c0.7,0,1.5,0.3,2.2,1l1,0.2l1,0.7c0,1.2,0.2,1.9,1,2.3c0.2,0.2,0.2,0.5,0.2,1c-0.2,0.5-0.2,0.7,0,0.9c0,1,0,1.6-0.2,1.7
		c0.2,0.2,0.2,1,0,2.3c0-0.2-0.2-0.2-0.5-0.2v0.5c0,0,1.2-1.2,3.4-3.6c0.2,0,0.5,0,1-0.2c0-0.5,0-0.9,0.2-1h0.5c0-0.2,0-0.5,0.2-0.7
		c0.7,0,1.5-0.5,1.7-1.4c0.5-0.2,1-0.3,1.7-0.9c0.7-0.9,1.7-1.6,3.4-1.7c1.5-0.7,2.2-1.2,2.2-1.7c0-0.2,0.2-0.3,0.7-0.7h1
		c0.2-0.3,0.5-0.5,1-0.5v0.2c-0.5,0,0-0.2,1.5-0.3c0-0.2,0.2-0.5,1-0.7c0.2-0.2,0.7,0,1.5,0.2c1.5,0.2,2,0.2,1.7,0.2
		c0.2-0.2,0.5-0.3,1.2-0.2c0.5,0.2,1,0.5,1.7,1c0.2,0.2,0.2,0.3,0.2,0.5h0.5l0.5,0.7h0.2v0.2c0.2,0,0.2,0,0.5,0.2l0.5,0.3h0.2l1,1.2
		h0.7c0.2,0.2,0.2,0.7,0.5,1.6l1,0.7c0,1,0,1.7,0.2,1.9c-0.2,0.2-0.5,0.3-0.5,0.7c0.7-0.2,1.2-0.2,1.5,0l0.7,0.5l-0.5,0.3
		c0.5,0.2,0.7,1.6,0.7,4.2L156.6,39.2z M99.7,42c-0.2,0-0.2,0-0.5,0.2v-0.3h0.2L99.7,42z M100.5,49.6v-0.3h-0.7c0,0.2,0,0.2,0.2,0.3
		H100.5z M101.4,41.6V42c0.2-0.2,0.2-0.2,0.2-0.3H101.4z M103.1,38.7v0.5c0.2-0.2,0.2-0.3,0.2-0.5H103.1z M105.1,39.9l-0.7-0.2
		c0.2,0.3,0,0.7-0.5,0.9c0,0.2,0,0.2,0.2,0.3h1c0.2-0.2,0.2-0.3,0.5-0.3C105.3,40.3,105.1,40.1,105.1,39.9z M105.8,39.4l-0.7-0.7
		c0,0.2,0,0.5,0.2,0.7H105.8z M105.8,33.8v-0.3l-0.2,0.2L105.8,33.8z M106.8,34h-0.5c0,0.2,0,0.2,0.2,0.2L106.8,34z M108.3,80.2H108
		c0,0.2,0,0.2,0.2,0.2V80.2z M108.8,31.6v-0.3h-0.2v0.3H108.8z M109.3,66.3v-0.3H109v0.3H109.3z M109.5,55.2v0.3
		c0-0.2,0-0.2,0.2-0.2C109.5,55.4,109.5,55.4,109.5,55.2z M111.2,54.5l-0.2-0.2v-0.2c-0.2,0-0.2,0-0.5,0.2c0.2,0.5,0,0.7-0.7,0.9
		v0.2c0.5-0.2,1-0.2,1.2-0.2v-0.7H111.2z M110,57.8h-0.2c0,0.2,0,0.3,0.2,0.5V57.8z M110.7,53.6c-0.2-0.2-0.2-0.2-0.5-0.2v0.2H110.7
		z M113.4,73.7c0-0.3-0.5-0.5-1.2-0.3c-1.2,0-1,1.2-2,1.4c0,0.5,0.2,0.9,0.7,1.2c-0.2,0.3,0,1,0.2,1.9c0.2-0.2,0.7-0.2,1-0.2v-0.5
		c0-0.9,0.2-1.2,0.7-1.4c0.2-0.7,0-1.2-0.2-1.4v-0.3L113.4,73.7z M110.7,80v-0.2c-0.2,0-0.2,0-0.5,0.2v0.2h0.2V80H110.7z
		 M112.4,45.6V46h0.5c0-0.2,0.2-0.5,0.5-0.7C113.2,45.3,112.9,45.5,112.4,45.6z M113.6,66.3v0.5c0.2,0,0.2,0,0.2-0.2
		C113.9,66.5,113.9,66.3,113.6,66.3z M114.9,67.5v-0.3h-0.5L114.9,67.5z M115.1,66.5c0,0.2,0,0.2,0.2,0.3
		C115.1,66.6,115.1,66.6,115.1,66.5z M118.8,69.6v-0.2c-0.2,0-0.2,0-0.2,0.2H118.8z M120.7,62.3l0.2-0.2v0.2H120.7z M123.2,34.2v0.2
		c0.2,0,0.2,0,0.5-0.2H123.2z M123.7,48.9v-0.3h-0.2v0.2h-0.2v0.2H123.7z M145.9,44.9c-0.2,0-0.7,0-1.2,0.2V46
		c-0.5,0.3-0.5,0.5-0.2,0.7v0.5h0.7c0.2-0.5,0.7-0.9,1.2-1c0-0.5,0.2-0.7,0.7-0.7C146.9,45.1,146.4,44.9,145.9,44.9z M146.1,25.5
		l-0.2-0.2v0.2H146.1z M146.4,48.8c0-0.2,0-0.2-0.2-0.3v0.3H146.4z"/>
	<path class="st0" d="M204.2,55.2l-0.2,1.9l-0.2,0.2c-0.2,0.2-0.5,1.2-0.5,2.8c-0.2,0.2-0.2,0.9-0.5,1.9c-0.2,0.2-0.2,0.3-0.2,0.5
		h0.2c0,0.2,0,0.2,0.2,0.3l-0.7,0.2l0.5,0.7l-0.7,1.6v0.9c-0.2,0.3-0.5,0.7-1.2,1v1.2c-0.7,0.5-1.5,1.6-2.7,3.1
		c0,0.2-0.2,0.2-0.5,0.3c0,0.5-0.5,1.4-1.5,2.6v0.7l-0.7,0.3v0.3l-1.7,1v0.3c-0.5,0.2-0.7,0.5-1,1c-1.7,0.5-1.7,0.3-4.6,1.7
		c-0.5,0.2-1.5,0.3-2.7,0.3l-0.5,0.3h-1.7c-0.5-0.2-1.2-0.2-2.4,0.2c-0.2,0-0.7,0-1.5,0.2c-0.2-0.2-1.2-0.2-2.7-0.3
		c-0.2-0.2-1.2-0.3-2.4-0.5c-0.5,0-1.2-0.2-2-0.3h-1c-0.2-0.2-0.7-0.3-1.7-0.5c-0.2,0-0.5,0-0.7-0.2l-1.2-0.3
		c-0.7-0.2-2.4-0.7-6.3-2.1H161c-2.9-0.7-3.7-2.9-4.9-2.9v-1c-0.2-0.2-0.5-0.5-1.2-0.9v-0.7h-0.7c-0.2-0.3-0.2-0.7-0.2-1
		c0-0.2,0-0.5,0.2-0.9c0-0.2-0.2-0.3-0.5-0.7c0-0.9,0-2.6-0.2-5.2c0-0.2-0.2-0.2-0.5-0.3v-0.3h0.2c0-0.7-1.2-2.8-1.2-4
		c0-1.2,0-1.9,0.2-2.4c0-0.5,0-0.5,0,0c-0.2,0-0.2-0.2-0.2-0.3l0.2-0.2c0-1,0.2-1.6,0.5-1.7v-0.2c-0.2-0.2-0.2-0.5-0.2-0.9
		c0-0.3,0.2-0.7,0.5-1.2c-0.2-0.3-0.2-1,0-2.1c0.2-0.2,0.5-0.9,0.7-2.1v-3.1h0.2l0.7-0.7c0.2-0.3,0.5-0.9,0.2-1.6
		c0.2-0.2,0.5-0.7,0.5-1.6c0.7-0.2,1-0.7,0.7-1.2c-0.2,0-0.2-0.2-0.2-0.3c0.2-0.3,0.2-1,0.2-2.1c0.7-0.2,1-0.7,1-1.6
		c0.2-0.2,0.2-0.5,0.5-1l1.5-0.9h1l0.7-0.9c1.2-0.5,2-1.2,2.7-1.7l0.7-0.2c0.7-0.2,1.7-0.9,2.4-1.7c2.2-0.5,2.4-0.7,3.4-1.4
		c0.2,0,0.7,0,1.5-0.2c0-0.2,0-0.2,0.2-0.3c1.2-0.2,1.7-0.3,1.5-0.3h0.2c0.2-0.5,1-0.9,2-0.9c0,0.2,0.2,0.2,0.7,0.2
		c0.7-0.2,1.5-0.7,2.2-1.2h1.2l1.2,0.7c1.2-0.2,1,0.5,2,0.5l0.2-0.2h3.7c0.5,0.3,1.2,0.5,2,0.5l0.7,0.5c1.2,0,2,0.5,2.4,1.4
		c1,0.3,1.7,0.9,2.2,1.7l0.7,0.3l1,0.3c0.2,0.2,0.5,0.5,0.5,1.2c0.7,0.5,1.2,1,1.2,1.4l1,0.9V35c0.2,0.3,0.7,0.9,1.5,1.4
		c0,0.5,0.2,0.9,0.7,1c0,0.2,0,0.3,0.2,0.5v1.6c-0.2,0-0.2,0.2-0.2,0.3h0.2v1.2l-0.7,0.9c0.2,0.2,0.2,0.3,0.2,0.5
		c-0.5,0.2-0.7,0.7-0.7,1.2c-1,0.2-1.5,0.7-1.5,1.4l-3.7,2.6c-0.7,0.5-1.2,0.9-2,1v0.9c-0.7,0.2-1.2,0.5-1.5,0.9h-0.5
		c0,0.3-0.2,0.5-0.5,0.7c-0.2,0.5-0.5,0.9-0.7,0.7l-0.2,0.3l-2,1v0.3c-1.2,0.3-1.7,0.9-1.7,1.4c-1.2,0.5-2.7,1.2-4.4,2.4
		c-0.2,0-0.7,0-1.5,0.2c0,0.5-0.2,0.7-1,0.5h-1c0,0.2,0,0.2-0.2,0.2l-1.5,0.3c-1,0.2-1.5,0.3-1.7,0.3c-0.7-0.2-1.2-0.3-1.5-0.3
		s-0.5,0-0.5,0.2c0,0.2,0,0.2,0.2,0.2v4.3c0.2,0.2,0.5,0.3,0.5,0.9c0.2,0,0.2,0.2,0,0.7c0.2,0.2,0.5,0.7,0.5,1.2
		c-0.2,0.2-0.5,0.5-0.5,0.7c0,0.3,0.2,0.7,0.5,0.9c0.2,0.7,0.2,1.2,0.2,1.7l0.7,0.3c0.7,0.2,1.2,0.3,1.2,0.5c-0.2,0-0.5,0-0.7,0.2
		c0,0.5,0.5,0.9,1.2,1c0,0.2,0,0.2,0.2,0.3c1.7,0.2,2.4,0.2,2,0.3v-0.3c0.5,0,0.7,0.2,1,0.3l0.5-0.5c1.2,0,2-0.2,2.2-0.3h0.7l1-0.3
		c0.2-0.2,0.5-0.2,0.5-0.3c0.7-0.2,1.7-0.9,2.4-1.7l1.5-1c0.2-0.2,0.5-0.2,1-0.2c0,0.3,0.5,0,1.5-1l1-0.9c0.2-0.2,1.2-0.7,1.5-1.2
		c-0.2,0,0-0.5,1.2-1.6l1-1.4l1-0.7V60c0.5-0.2,0.7-0.2,0.7-0.3c0-0.9,0.5-1.9,1.5-3.1l-0.2-0.3h-0.5v-0.7h0.7c0-0.2,0.2-0.5,0.5-1
		c0.2-0.2,0.5-0.2,0.7-0.2V54c0.7-0.2,1-0.2,1.2-0.2v-0.3h1c0-0.2-0.2-0.3-0.5-0.5v-0.7c1.7-0.2,2.9,0.2,3.7,0.9
		c0,0.2,0.2,0.2,0.5,0.3L204.2,55.2z M156.6,40.6v0.5c0,0.2,0,0.2-0.2,0.2v0.2c0.2,0,0.2,0,0.2,0.2c0-0.2,0-0.5,0.2-1H156.6z
		 M157.6,65.9c0,0.2,0,0.2-0.2,0.2c0.2,0.2,0.2,0.3,0.2,0.5c0.2-0.2,0.2-0.3,0.2-0.5L157.6,65.9z M157.6,60.6v0.2h0.5
		c0.2,0.3,0.2,0.7,0.2,0.9c0.2-0.2,0.2-0.2,0.5-0.2c-0.2-0.2-0.2-0.2-0.2-0.3c0.5-0.2,0.7-0.3,0.7-0.5H157.6z M159.1,34.9v-0.2h-0.2
		v0.2H159.1z M159.3,65.6c0.2-0.3,0.2-0.7,0-1.2h-0.5c0,0.2,0,0.3,0.2,0.5c-0.2,0.2-0.2,0.3-0.2,0.7H159.3z M159.3,42.9
		c-0.2,0.5-0.5,0.7-0.2,0.9c0.2,0,0.5,0,0.7-0.2C160,43,159.8,42.9,159.3,42.9z M161.8,48.8v-0.3h-1c0-0.2,0-0.2-0.2-0.3
		c-0.7-0.2-1-0.3-1.2-0.5c-0.2,1.2,0,1.9,0.7,2.3c0.5-0.3,0.7-0.7,0.7-1H161.8z M159.3,65.9c0,0.3,0,0.5,0.2,0.3L159.3,65.9z
		 M161,71.1c0-0.2,0-0.3-0.2-0.5h-0.5v0.2c0,0.2,0,0.2,0.2,0.3H161z M161,36.8c0.2,0.2,0.2,0.2,0.2,0.3c0-0.2,0-0.2,0.2-0.3H161z
		 M164.4,74.4v-0.3h-0.2v0.3H164.4z M169.3,43.7h-0.5c0,0.2,0.2,0.5,0.5,0.7l-1,0.5l-0.2,0.3c0.2,0.2,0.2,0.2,0.5,0.2V46
		c-0.2,0-0.5,0-0.5,0.2c-0.2,0.9-0.2,1.4-0.2,1.9h-0.2c0,0.2,0.2,0.5,0.5,0.9h0.5c-0.2-0.2-0.2-0.3-0.2-0.5c0.2-0.5,0.2-1,0.5-1.2
		h0.2c0-1.6,0.2-2.6,0.7-2.9L169.3,43.7z M167.6,49.5v1c0.5-0.2,0.5-0.5,0.2-1H167.6z M171.5,27.8c-0.2,0-0.5,0-0.7,0.2v0.5h0.2
		c0.2-0.2,0.2-0.2,0.5-0.2V27.8z M171.5,59l-0.2-0.2L171.5,59z M171.5,63.5v-0.9h-0.2v0.9H171.5z M172.3,66.1v-0.2
		c-0.2,0.2-0.2,0.2-0.5,0.2H172.3z M173.2,29.7c-0.2,0-0.5,0.2-0.7,0.3v0.3c0.5,0,0.7,0,1-0.2C173.2,30,173.2,29.8,173.2,29.7z
		 M172.5,45.3v0.2c0.2,0,0.2,0,0.5-0.2H172.5z M189.1,41.1v-2.4c-0.2-0.2-0.5-0.2-0.7-0.2l0.7-0.3c0,0.2-0.5-1-1.5-3.8l-1.5-2.4
		h-0.2c-0.2-0.5-0.2-0.7-0.2-0.9c-1.2-0.3-2.2-0.7-2.7-1c-1.5,0.2-2.2,0.5-2.2,1c-0.5,0.2-1,0.2-1.2,0.2c0,0.5-0.2,0.7-0.7,0.7
		c-0.2,0.3-0.2,0.7-0.2,0.9l-0.7,2.3c-0.7,1-1.2,1.9-1.5,2.8c-0.2,0.5,0,0.7,0.2,0.9l-0.2,0.2c-0.2,0.5-0.2,0.9-0.5,0.9
		c-0.2,0.9-0.7,1.4-1,1.4c0,0.5,0.5,0.9,0.5,1c-0.2,0.2-0.2,0.2-0.5,0.2v1.4l-0.5,0.9c-0.2,1.4-0.5,2.9-1,4.7V51
		c-0.2,0.2-0.2,0.5-0.5,1c-0.2,0.5,0,0.9,0.2,1c0,0.2,0,0.3-0.2,0.7v0.3c0.7-0.2,1.5-0.3,2-0.9c0.2-0.2,0.7-0.2,1.2-0.2v-0.2h0.7
		c0.2-0.5,1-0.9,1.7-1c0.2-0.5,1-0.9,2.2-0.9v-0.3l1.5-0.5c2.9-0.5,3.9-0.7,2.9-0.7c0.5-0.7,1-1,1.2-1.2v-0.3h-0.5
		c0.2-0.7,0.7-1,1-1c0,0.5,0,0.3-0.2-0.5l0.7-0.3c0.2-0.9,0.2-1.2,0.5-1.4c-0.2-0.2-0.2-0.3-0.2-0.7h0.2c0-0.9,0-1.4,0.2-1.4
		c0.2-0.2,0.2-0.3,0-0.5c0.2-0.2,0.2-0.2,0.5-0.2v-0.7H189.1z M175.7,28.8c-0.7,0.2-1,0.3-1.2,0.7l-0.7,0.2c-0.2,0.7,0,1.2,0.5,1.4
		c0.2-0.2,0.5-0.2,0.7-0.2V30c0.2-0.2,0.5-0.2,0.7-0.2c0.2-0.7,0.5-1.2,0.5-1.4C175.9,28.5,175.9,28.6,175.7,28.8z M174,43h-0.2
		c0.2,0,0.2,0,0.2,0.2V43z M175.7,70.8h-0.2v-0.2h0.2V70.8z M177.9,26v-0.2h-0.2v0.3L177.9,26z M181,51.9c-0.2,0.2-0.2,0.2-0.2,0.3
		h-0.7c0,0.5-0.5,0.9-1.2,1c-0.2,0.2-0.2,0.3-0.2,0.7c0.7-0.2,1-0.5,1-0.7c0.7-0.2,1.5-0.3,2-0.9C181.3,52.2,181,52.1,181,51.9z
		 M181.3,26.2H181c0.2,0,0.2,0,0.2,0.2V26.2z M181.3,58.3l-0.2-0.2h0.2V58.3z M184,57.4l-0.2,0.2l-0.2-0.2H184z M184,80l-0.2-0.2V80
		H184z M185,50.5c-0.2-0.2-0.5-0.2-0.7-0.2c-0.2,0.2-0.2,0.3-0.2,0.7c0.2-0.2,0.5-0.2,1-0.2V50.5z M197.7,67v-0.7h-0.5l-2.9,2.1
		c0.5,0.3,0,0.9-1.2,1.4c0.2,0.2,0.2,0.3,0.2,0.5l-0.7,0.3c0,0.2,0,0.3,0.2,0.5c-0.7,0.9-1.7,1.2-2.7,1.2l-0.5,0.5l-1.7,0.3
		c-0.7,0.3-1.7,0.9-2.9,1.7h-0.7c-0.2,0.2,0,0.3,0.2,0.5c0.2,0,0.7-0.2,1.7-0.3l1-0.2c0.2-0.5,0.5-0.7,0.7-0.9l0.7-0.5
		c1.5-0.2,2.4,0,2.7,0.5l0.5-0.5l0.5-0.3c0.7-0.5,1-1,1-1.6h0.2c0.7-1.9,1.7-3.3,3.4-4.2c0-0.2,0-0.3,0.2-0.5H197.7z M187.4,78.8
		c0-0.5-0.2-1.2-0.5-1.9h-0.5l-0.2,0.2c0.2,0.9,0.2,1.4,0.2,1.7H187.4z M188.1,37.7h-0.7v-0.2h0.7V37.7z M187.6,42.7l-0.2,0.2v-0.3
		h0.2V42.7z M190.8,78.3c-0.5-0.2-0.7-0.2-1,0v0.3h0.7L190.8,78.3z M192.3,77.9l-0.2-0.2l-0.2,0.2H192.3z M195.2,46.2
		c0-0.2,0-0.2-0.2-0.2l-0.2,0.2H195.2z M195.5,64.2c-0.2-0.2-0.2-0.2-0.5-0.2v0.2H195.5z M195.5,45.1h-0.2c0,0.2,0,0.2,0.2,0.3V45.1
		z M196.9,32.8h-0.2c-0.2,0.3-0.5,0.5-0.5,0.7l-0.2,0.2c0.2,0,0.7,0,1-0.2V32.8z M196.9,44.6v-0.2l-0.2,0.2H196.9z M196.9,62.1v-0.3
		h-0.2v0.3H196.9z M197.9,64.7c-0.2,0.2-0.5,0.5-0.5,1c0.5,0,1-0.3,1.2-0.9C198.4,64.7,198.1,64.7,197.9,64.7z M197.9,34.9V35
		c0.2,0,0.2,0,0.2-0.2H197.9z M198.9,59.9c0.2-0.3,0.2-0.5,0-0.7V59.9z M199.9,35.9l-0.2,0.3v-0.3H199.9z M199.9,37.5h-0.2v0.2
		L199.9,37.5z M199.9,57.4h-0.2v0.3L199.9,57.4z M201.1,53.3l-0.2,0.2v-0.2H201.1z M202.3,60.7v-0.3h-0.5c0,0.2,0,0.2,0.2,0.3H202.3
		z M202.3,54.1c0,0.2,0,0.2,0.2,0.2L202.3,54.1z M203,57.6h-0.2c0,0.2,0,0.5,0.2,0.9V57.6z M204,54l0.2,0.2c0-0.2,0-0.2,0.2-0.2H204
		z"/>
	<path class="st0" d="M255.5,53.8c0,0.5-0.2,1.2-0.7,2.1v0.5c0,0.3,0,0.9-0.2,1.4l-0.7,0.2c0.5,0,0.7,0.2,0.7,0.5
		c-0.2,0.2-0.2,0.3,0,0.5v0.7c-0.2-0.2-0.5-0.2-0.7-0.2c0,0.7-0.2,1.6-0.7,2.6c0.2,0.2,0.2,0.2,0.2,0.3c-0.2,0-0.2,0-0.5,0.2v1.2
		c-0.5,0.5-1,0.7-1.5,0.9c0.2,0,0.5,0,1,0.2v0.5c-0.2,0-0.2,0-0.5,0.2v0.3l0.2,0.2l-0.7,0.9c0,0.9-0.2,1.6-0.5,1.7
		c0.2,0.2,0.2,0.3,0.2,0.5c-0.7,0-1,0.5-1.2,1.4c-0.7,0.2-1,0.7-0.7,1.7c0.2,0,0.2,0,0.2,0.2c0,0.5-0.7,0.9-0.7,1
		c-0.7,0-2,0.5-3.7,1.7c-1,0.2-1.2,0.7-1,1.2c-0.2,0-0.7,0-1.2,0.2c-1,0.7-2,1.2-3.2,1.4l-1.5,0.5c-0.2,0-0.7,0-1-0.2
		c-0.5,0.2-1.2,0.2-2.2,0.3c-0.2-0.3-1-0.5-2.4-0.5l-1.5-0.5h-1c-1.2-0.5-1.5-1.9-2.2-1.9l-0.2-0.7c-0.5-0.3-0.7-0.7-0.7-1.2
		c0-0.2,0-0.5,0.2-0.7c-0.5-0.3-0.7-0.9-0.7-1.6c-0.2-0.2-0.7-0.2-1-0.2c-0.2-0.7-0.2-1.2-0.2-1.6c-0.5-0.2-0.7-0.7-1-1.2h-1
		c0-0.5,0.2-0.7,0.7-0.9v-0.5c-0.2-0.2-0.2-0.5-0.2-1c-0.2-0.2-0.2-0.5,0.2-0.7c-0.2-0.2-0.5-0.2-0.7-0.2c0-1,0-2.1-0.2-3.3
		c0-0.9,0-1.7,0.2-2.4c0-0.2,0-1-0.2-2.6c0-0.5,0.2-1,1-1.2V55c-0.2-0.3-0.5-0.9-1.2-1.4c0-0.5,0-0.9,0.2-1h-0.2
		c0-0.5,0.2-0.7,1-0.9c0.2-0.2,0.2-0.3,0.2-0.5l3.2-1c1.5,0,2.7-0.3,3.7-0.9c0.2-0.2,0.7-0.2,1.5-0.2c0-0.2,0-0.2,0.2-0.3h1.7
		l-0.5-0.5v-0.5c0.5-0.2,1-0.7,1.2-1.7c0.7-0.2,1-0.3,1.2-0.9l0.5-0.3v-0.7l1.2-1.2c0-0.3,0-0.5,0.2-0.7c0.2-0.5,0.2-1,0.5-1.2
		c-0.2-1.2-0.2-1.7,0-1.7l-0.2-0.2v-0.5h0.2V38c-0.2-0.3-0.2-1.4-0.5-3.3l-1.7-1.7c-1.2,0-1.7,0-2,0.2v0.5c-0.5,0.2-1.2,0.5-2.2,1.2
		c-0.2,0.3-1,0.7-2,1.2c0,0.2-0.2,0.2-0.5,0.2c0,0.7-1.7,1.6-1.7,1.7h-0.5v0.7l-2.2,1.6c-0.2,0.5-0.5,0.7-1,0.9
		c-0.2,0.5-0.7,1-1.7,1.6c0.2,0.2,0,0.5-0.7,0.9c0,0.2-0.2,0.3-0.5,0.5c0,0.2,0,0.7,0.2,1.4l-1,0.3c-1,0.2-1.2,0.7-1,1.6h0.2v0.3
		h-0.5v0.7l0.2-0.3h0.2c0,0.2,0,0.2,0.2,0.3c-0.7,0.2-1,1-1,2.4h-0.2v0.9h-0.7v0.7c0.2,0,0.5,0,0.7,0.2l-0.2,0.2h-0.7v2.1
		c-0.2,0-0.5,0-1,0.2h0.2v1c-0.2,0.2-0.5,0.3-0.5,0.7l0.2,0.2v1.6c-0.7,0-1,0.3-1.2,1c0.2,0.7,0.2,1.2,0,1.6h-0.2c0,0.5,0,1-0.2,1.4
		l-0.5,0.2v0.9c0.2,0,0.2,0,0.5,0.2v0.2L215,64l-0.2,1.7c-0.2,0.2-0.2,0.3-0.2,0.5c0,0.3,0,0.9,0.2,1.4c0,1,0,1.4-0.2,1.2h0.2v0.2
		c-0.2,0.2-0.2,1.2-0.2,3.1c-0.2,0.2-0.5,0.3-0.5,0.5c-0.5,0-0.7,0-0.7,0.2h1c0,0.5,0,1,0.2,1.4c-0.7,0-1,0.3-1,1.2v1.4l0.7,0.3
		c-0.2,0.2,0,0.5,0.5,0.9c-0.2,0.2-0.2,0.3,0,0.5c-0.2,0.2-0.7,0.2-1.2,0.3v0.9c-0.2,0-0.7,0-1-0.2l-1.5,0.5c-1.5-0.2-2.4-0.2-2.7,0
		c-0.2,0-0.7,0-1,0.2v2.9c0.2,0,0.2,0,0.2,0.2c-0.7,0.5-1.2,0.9-1.2,0.7l-2,0.3l-0.7-0.5l-0.5-0.2c0-0.3-0.2-0.5-0.5-0.5v-0.3
		c0-0.2,0-0.2,0.2-0.2c0-0.9,0-1.4-0.2-1.6c-0.2,0,0-0.2,0.2-0.3l-0.5-0.7c-0.5,0.2-1,0.2-1.7,0.2c-1,0.5-1.5,0.7-1.5,0.3h-0.7
		c-0.7-0.2-1.7-0.5-2.7-1.2l-0.2-0.2v-0.3c-0.2,0,0-0.3,1.2-1.2c0.2-0.2,0.7-0.2,1.2-0.3v-0.7c0.2-0.3,0.5-0.9,1.2-1.6v-2.9l0.2-4
		l0.2-0.2c-0.2-0.2-0.2-0.2-0.2-0.3c0-0.2,0.2-0.2,0.5-0.2c-0.2-0.2-0.2-0.3-0.2-0.5c0-0.2,0.2-0.5,0.5-0.7v-0.9h0.2
		c0-1.2,0-2.3,0.2-2.9c0.2,0,0.5,0,0.7-0.2c0.2-0.3,0.2-1,0-1.9c0.2-0.2,0.2-0.7,0.5-1.2l0.5-0.5c-0.2-0.2-0.2-0.2-0.2-0.3
		c0-0.2,0-0.3,0.2-0.3c0.7-0.9,1-1.9,1-2.8l-0.2-0.2v-0.2c0.2-0.2,0.2-0.2,0.5-0.2c0.5-0.7,0.5-1.2,0.2-1.4v-0.5
		c0.2,0,0.5,0,0.7-0.2v-1l1-2.1v-1.2c0-0.2,0.2-0.3,0.7-0.7v-1.9c0-0.2,0-0.7,0.2-1.2c0.2,0,0.5,0,0.7-0.2c-0.2-0.2-0.2-0.3-0.2-0.5
		c0-0.2,0.2-0.7,0.5-1.2l0.2-2.8c0.2-0.2,0.5-0.9,0.7-1.7c1.2-0.9,1.5-1.4,1-1.9v-0.2c0.2-0.2,0.7-0.2,1.5-0.2l-1.2-0.5
		c0-0.5,0.2-1.2,0.5-2.1c0.2-0.2,0.5-0.3,0.7-0.3l-0.5-0.3c0.2-0.2,0.2-0.2,0.5-0.2v-3.1l0.7-1h0.2v-1c0-0.2,0-0.3,0.2-0.5v-2.3
		l1-1.6c0-0.2,0-0.5,0.2-1v-2.6c0.2,0,0.5-0.2,0.7-0.3L215,13h0.5v-0.2H215v-0.2h0.5c0-0.9,0.2-1.9,0.5-3.3c-0.2-0.5-0.2-0.7,0-0.9
		l0.7-3.1c0-0.2,0-0.5-0.2-1c-0.2,0.2-0.5,0.2-0.7,0.2l-1.2-0.9v-1c1,0,2-0.3,2.9-0.9h1.5l0.5-0.3c0.2-0.9,0.7-1.2,2-1.2
		c0.2,0,0.7,0,1.5,0.2v0.2l2.9-0.2c1,0,1.7,0.2,2,0.3h0.7c0.2-0.3,0.7-0.5,1.5-0.5l1.2-0.2c0.2,0,0.7,0,1.5,0.2v0.7h0.2V0.3
		c0.7,0,1,0.9,0.7,2.4c-1.2-0.2-2.2,0.5-2.4,1.7c-0.7,0.2-1.2,0.3-1.5,0.7h-0.5c0,1.4-0.2,2.3-0.5,2.4v0.5h-0.7c0,0.3,0,0.5,0.2,0.5
		l0.2-0.2v0.3h-0.2l-1,0.9c0.2,0.2,0.2,0.5,0,1c-0.2,0-0.2,0-0.5,0.2h0.2l0.2,0.3c0.2,1,0,2.1-0.7,3.1v2.1c-0.2,0.2-0.5,0.2-1,0.2
		c0.2,0,0.7,0,1,0.2v0.7l-1,1.2v1.9l-0.2,1.2h-0.5v-0.2h-0.5c0,0.3,0.2,0.7,1,0.9c-0.2,0-0.2,0.2,0,0.5c-0.2,0.7-0.7,1.4-1.2,2.3
		v1.2c-0.2,0-0.5,0-0.7-0.2c0,0.2-0.2,0.2-0.5,0.2v0.3c0.2,0,0.7,0,1,0.2v0.3c-0.2,0-0.2,0-0.5,0.2c0,0.5-0.2,1-0.5,1.2v2.9
		c-0.5,0.3-0.5,0.5-0.2,0.5c0,0.2,0,0.5,0.2,0.9c-0.5,0.2-0.7,0.3-0.7,0.7h0.5v0.3c-0.2,0-1,0.2-1.7,0.5l0.2,0.2l0.2,0.3
		c0.2-0.2,0.7-0.2,1.5-0.3v0.3c-0.2,0.2-0.2,0.3-0.2,0.5h-0.2v0.2l0.7-0.3l0.7-0.5c0.2-0.2,0.2-0.5,0.2-1l1.7-1.2
		c0.2-0.2,0.5-0.5,0.5-1.4c0.2-0.2,1-0.5,1.7-1.4c0.2,0,0.5,0,0.7-0.2v-0.5c0.7-0.3,1.7-1,2.7-1.9l1-0.3l1.5-0.7l0.7-0.3h1.2
		c0.7-0.3,1.5-0.9,2.7-1.7l1.7-0.9l0.7-0.5h0.7l0.5,0.2c0,0.7-0.5,1-1.2,1.2V25c0.7,0,1.5,0.2,2,0.3h0.5c0.2-0.2,0.7-0.3,1.2-0.2
		l2,0.9l0.5,0.3c0.5,0.2,0.7,0.5,1,1h1.2c0,0.5,0.2,0.7,0.7,0.9c0,0.2,0.2,0.5,0.5,0.9c0,1,0.2,1.7,0.5,1.9c0,0.9,0,1.2-0.2,0.9h0.5
		c0,0.9,0,1.4,0.2,1.6c0,0.5,0,1.2-0.2,2.1l-0.5,0.3v1.6l-1,2.9c0,0.2-0.2,0.3-0.5,0.5c0,0.9-0.2,1.9-1,3.3v0.3l-2.9,4.5
		c-1,0-1.2,0-1-0.2v0.5c0.2,0.2,0.2,0.3,0.2,0.5l-0.7,1l-0.5-0.2v0.7h-0.2c-0.2,0.5-0.5,0.9-1,1c-0.2,0.5-0.7,0.7-1.2,0.9l-0.5,1.2
		c-1,0.2-1.7,0.9-2.2,1.7l-1,0.2l-0.2,0.5h-0.7v0.5c-0.5,0.2-0.7,0.3-0.7,0.7c0,0.2,0.2,0.5,0.7,0.9c0,0.5,0.2,1,0.5,1.6
		c-0.2,0.2-0.5,0.3-0.2,0.5h0.5c0.2,0.2,0.5,0.3,0.5,0.5c-0.2,0.2-0.2,0.5-0.5,0.9v0.9c0.2,0.2,0.2,0.5,0.2,1l0.5,0.5
		c0.5,0.2,0.7,0.5,0.7,1.2l0.2,0.2c0.2,0.5,0.7,1,2,1.2l0.7,0.2l1.5,0.9l1.2,0.2l1,0.7h0.5c0.2-0.2,0.7-0.9,1.2-2.3l1.5-2.6h0.7
		v-0.2c-0.2,0-0.5-0.2-0.5-0.3c0.5-0.3,0.5-2.1,2-3.8V59l0.5-0.3c0.2-0.5,1.2-2.3,1.5-2.3l0.2-1.6c0.5-0.7,0.7-1.4,0.7-1.9
		c0.2,0,0.7,0,1-0.2l1.2,0.5V53.8z M197.4,79.3l-0.2-0.2h-0.2c0,0.2,0,0.2,0.2,0.2H197.4z M200.3,72.4v0.2c0.2-0.2,0.2-0.2,0.2-0.3
		L200.3,72.4z M201.8,64.4v-0.2l-0.2,0.2H201.8z M203.5,53.3h-0.2v-0.3h0.2V53.3z M203.5,58.5c0-0.2,0-0.2-0.2-0.2v0.3L203.5,58.5z
		 M204.5,81.7c-0.2,0-0.2,0-0.2,0.2c0.2,0,0.2,0,0.2,0.2V81.7z M206,60.7v-0.3c0,0.2,0,0.2-0.2,0.3H206z M210.4,67.8h-1.2v1.4
		c0.2-0.2,0.5-0.2,0.7-0.2v-0.7l0.5-0.3V67.8z M209.6,41.5v0.2c0-0.2,0-0.2,0.2-0.2H209.6z M209.9,67.5v0.2c0.2-0.2,0.2-0.2,0.2-0.3
		C209.9,67.3,209.9,67.3,209.9,67.5z M210.8,34.4V35c0.2-0.2,0.2-0.3,0.2-0.7H210.8z M214.7,47l-0.5,0.2c-0.2,0.9-0.2,1.4-0.5,1.4
		c0.2,0.2,0.2,0.2,0.5,0.2c0,0.2-0.2,0.5-0.7,0.7v1c-0.7,0.5-1,1.6-1,3.5c-0.2,0.5-0.5,0.9-0.5,1.2h1.5l-0.2-0.2
		c0-0.2,0-0.3,0.2-0.7v-1c0.7-0.5,1.2-1.4,1.2-2.3l-0.2-0.2c0.2-0.7,0.5-1.6,0.5-2.6c0.2-0.2,0.5-0.9,0.5-1.9
		C215,46.5,214.7,46.7,214.7,47z M212.3,51c-0.2,0-0.2,0-0.2-0.2V51H212.3z M213,49.3h-0.2c0.2,0.2,0.2,0.2,0.2,0.3V49.3z
		 M215.7,56.7l-0.2-0.2c0,0.2,0,0.2-0.2,0.2H215.7z M216,57.8v-0.2l-0.2,0.2H216z M216,63.2h-0.2c0-0.2,0-0.2,0.2-0.3V63.2z M216,67
		c-0.2,0-0.2,0-0.2-0.2h0.2V67z M221.6,9.9h-0.2l-0.5,0.7c0,1.4-0.2,2.1-0.5,2.1c-0.2,0.5-0.5,1-0.7,1.2c-0.2,1.4-0.7,2.4-1,3.3V18
		c-0.2,0.2-0.2,0.2-0.5,0.2c0,1-0.2,1.7-0.7,1.9c-0.2,2.1-0.5,3.6-0.5,4.9c-0.5,0.7-0.7,1.2-0.5,1.7c0,0.2,0,0.3,0.2,0.5h0.2v-0.2
		c0.2-0.7,0.5-1.2,0.5-1.7h0.5c-0.2-0.2-0.2-0.2-0.2-0.3h0.2c0,0.7,0-0.2,0.2-2.4h0.2c0.7-1.9,1-2.6,1-2.4c0.5-0.5,0.7-1,0.7-1.4
		v-0.3c0.2-0.5,0.5-1.4,1.2-2.3c0-0.2,0-0.2-0.2-0.2c0.2-1.2,0.5-2.4,0.5-3.6c0.2-0.2,0.2-0.5,0.2-0.9
		C221.6,10.9,221.3,10.4,221.6,9.9z M217.9,6.1V5.4h-0.5c-0.2,0.2,0,0.3,0.2,0.7H217.9z M217.7,52.6v-0.5h-0.2v0.5H217.7z
		 M217.9,7.3V7.1c-0.2,0-0.2,0-0.2,0.2H217.9z M218.9,14.6c-0.2,0-0.2,0-0.5-0.2v0.2H218.9z M219.1,55.7h-0.2c-0.2,0-0.2,0-0.2-0.2
		h0.2L219.1,55.7z M221.3,39.7c-1.2,0.3-1.7,0.9-1.7,1.4l1-0.9h0.5c0.2,0,0.2,0,0.2,0.2V39.7z M219.9,52.4h-0.2v-0.2L219.9,52.4z
		 M222.1,38.9c-0.7,0.2-1.2,0.3-1,0.3c-0.2-0.2-0.2-0.2-0.2-0.3v0.7h0.5c1.2-0.9,2-1.6,2-1.7c0-0.2-0.2-0.3-0.5-0.5
		C221.8,37.3,221.6,37.8,222.1,38.9z M222.1,36.8l-0.2-0.2c-0.2,0-0.2,0-0.2,0.2H222.1z M222.3,36.3c-0.2-0.2-0.2-0.2-0.2-0.3v0.3
		H222.3z M222.3,65.4l-0.2,0.2v-0.3h0.2V65.4z M222.8,11.5v-0.3l-0.2-0.2v0.5H222.8z M223.5,69.9c0,0.2,0,0.2-0.2,0.3v-0.3H223.5z
		 M224.3,7.5V7.1H224v0.3H224.3z M226.7,64.9c-0.2-0.2-0.2-0.2-0.2-0.3h-0.2v0.3H226.7z M228.7,68.5v-1.4c-0.7-0.2-1-0.5-1-0.9h-1.2
		c0,0.3,0.5,0.9,1.5,1.4v0.9H228.7z M227.7,14.7l-0.2-0.2h0.2V14.7z M228.9,63.7v-1.9c-0.2-1-0.2-1.7-0.2-2.1V59h-0.7
		c-0.2,0.5-0.2,1-0.2,1.7v0.2c-0.2,0.9-0.2,1.2-0.2,1h0.2c0.2,0.5,0.2,0.9,0.2,1c0.2,0.5,0.2,0.7,0.5,0.9L228.9,63.7z M227.9,50.8
		V51c0.2-0.2,0.2-0.2,0.2-0.3L227.9,50.8z M228.4,65.9v-0.2h-0.5v0.2H228.4z M228.9,68.7h-0.7l0.2,0.3c0,0.2,0,0.2-0.2,0.2h-0.2v0.3
		c0.2,0,0.5,0,0.7,0.2h0.2v-0.3l-0.5-0.2c0.2-0.2,0.5-0.2,0.7-0.2L228.9,68.7z M228.4,70.3v-0.3h-0.5v0.2c0,0.2,0,0.2,0.2,0.2H228.4
		z M228.7,74.4V75c0.2,0,0.5-0.2,0.7-0.3C229.2,74.4,228.9,74.4,228.7,74.4z M229.6,71.8c0-0.2,0-0.3-0.2-0.5h-0.2
		c0,0.2,0,0.3,0.2,0.5H229.6z M230.1,72.4V72h-0.5c0,0.2,0,0.3,0.2,0.3H230.1z M230.4,0.7V1c0.2-0.2,0.2-0.3,0.5-0.3H230.4z
		 M231.1,32.1v-0.3h-0.2v0.3H231.1z M231.6,60.6v-0.3h-0.2v0.3H231.6z M231.8,77.2V77c0,0.2,0,0.2-0.2,0.2H231.8z M232.8,76v-0.2
		c-0.2,0-0.2,0-0.5,0.2H232.8z M232.6,74.3c-0.2,0.2-0.2,0.7,0,1.6c0.7-0.3,1.5-0.5,1.7-0.3c0.7,0.3,1.2,0.3,1.7,0.2
		C236,75,233.1,74.4,232.6,74.3z M232.8,1.2V1h-0.2v0.2H232.8z M238.2,53.4c-0.7,0.3-1.2,0.7-1.2,0.9c-1.2,0.2-1.7,0.5-2,0.9v1.9
		c1-0.7,1.5-1,1.2-1v-0.3h0.2c0-0.9,0.5-1.4,1.7-1.4C238.4,54,238.4,53.6,238.2,53.4z M236,64.2v-0.3h-0.2L236,64.2z M238.2,69.2
		c-0.5,0-0.7-0.2-0.7-0.3c-0.5,0-1,0-1.2,0.2v0.3c0.2-0.2,0.2-0.2,0.5-0.2l1.2,1c-0.2,0.2-0.2,0.5-0.2,0.9h0.5
		c0-0.2,0.2-0.3,0.7-0.5C238.9,69.9,238.2,69.4,238.2,69.2z M237.5,55.5v-0.2h-0.2v0.2H237.5z M244.3,31.9c0.2,0,0.2-0.2-0.2-0.5
		v-1.2l-1.7-1c-0.2-0.2-0.2-0.3,0-0.3c-0.2-0.3-0.7-0.3-1.2-0.2c-0.5-0.3-0.7-0.7-0.7-0.9c-0.2,0.2-0.5,0.2-0.7,0.2
		c0-0.2,0-0.2-0.2-0.2h-1.7c-0.2,0.2-0.2,0.3-0.2,0.5c0.5,0.2,0.7,0.2,1,0.2l1.7,0.7l2,1.4L244.3,31.9z M237.9,52.6h-0.2v0.2
		L237.9,52.6z M238.7,67.3v-0.2h-1c0,0.2,0,0.2,0.2,0.2H238.7z M248,36.4l-0.5-0.3c-0.7,0.3-1,0.7-1,0.9c0,0.2,0,0.2,0.2,0.2
		c0,1-0.2,1.6-0.5,1.7c0.2,0.2,0.2,0.5,0.2,0.7c-0.2,0.2-0.5,0.5-0.5,1h-0.5c-0.2,1.7-0.5,2.8-0.7,2.9c-0.2,1.2-0.2,1.7-0.5,1.7
		c-0.2,0.5-0.5,1-1,1.2v0.7l-1.7,1.7l-1.2,1.9h-0.2c0,0.3,0,0.5,0.2,0.7c-0.7,0.3-1.5,0.7-2.2,1.2c0.2,0.5,0.7,0.7,1,0.7
		c1-0.3,1.2-0.5,0.7-0.5v-0.2c0.2,0,0.5,0.2,0.7,0.3l0.7-1v-0.3h-0.5c0,0.7,0.5,0,1.2-2.1c0.7-0.2,1.2-0.7,1.5-1.7l0.5-0.2
		c0,0.2,0,0.2,0.2,0.3h0.2c-0.2-0.2-0.2-0.3-0.2-0.5h-0.2c0.2-0.2,0.2-0.3,0.5-0.3c-0.2-0.5,0-0.9,0.7-1.2l1-1.9
		c-0.2-0.2-0.2-0.2-0.2-0.3l0.5-0.3c0.2-0.9,0.2-1.4,0.2-1.7h0.2v-0.2c0.2-0.2,0.2-0.2,0.5-0.2l-0.5-0.5c0.7-1,1-1.9,0.7-2.8v-1
		L248,36.4z M240.6,70.3v-0.2h-0.2v0.2H240.6z M241.6,48.2l-0.2-0.2v0.2H241.6z M242.3,76v-0.2h-0.2V76H242.3z M246,73.7
		c0-0.2-0.2-0.2-0.5,0H246z M247.5,35.7v-0.3c-0.2,0-0.2,0.2-0.2,0.3H247.5z M248,70.8l-0.2,0.2c0.2,0,0.2,0,0.2,0.2
		c0.2-0.2,0.2-0.2,0.2-0.3H248z M248.9,39.4V39h-0.5l0.2,0.3H248.9z M249.2,68.9c-0.2,0-0.2,0-0.2-0.2l-0.2,0.2H249.2z M250.6,66.1
		h-0.2c0.2,0,0.2,0,0.2,0.2V66.1z M251.4,65.1h-0.2c0,0.2,0,0.2,0.2,0.3V65.1z M252.1,59.2v-0.3h-0.2c-0.2,0.2-0.2,0.3-0.5,0.3
		H252.1z M251.9,63.5c0.2-0.2,0.2-0.5,0-0.9l-0.2,0.2L251.9,63.5z M252.8,61.9v-0.3h-0.2v0.3H252.8z M253.3,58c0-0.2,0-0.2-0.2-0.2
		v0.3L253.3,58z M254.3,55.2v-0.5h-0.5v0.5H254.3z M254.1,56.2c0-0.2,0-0.3-0.2-0.3v0.3H254.1z M254.6,54.3v-0.5h-0.2v0.5H254.6z"/>
	<path class="st0" d="M323.9,54.7l-0.2,1.6c-0.7,0.2-1,0.7-1.2,1.6h-0.2l-0.5,0.7c-0.2,0.2-0.2,0.9-0.5,2.1c-0.2,0.2-0.7,0.7-1,1.2
		v0.9c-1,0.5-1.5,1.2-1.5,2.1c-0.7,0.5-1.2,0.9-1.2,1.4h-0.7l-0.2-0.2c-0.2,0.2-0.2,0.2-0.5,0.2c0,1.6-2.4,2.4-1.7,3.3
		c-0.2,0.2-0.2,0.5-0.2,0.7h-0.5c0-0.2,0-0.3-0.2-0.3c0,0.2,0,0.3-0.2,0.5c0.2,0.2,0.2,0.5,0,1c-0.2,0.5-0.7,0.9-1,1
		c-0.2,0.2-0.5,0.7-0.7,1.2c-0.7,0-1,0.2-1.2,0.7c-1,0.2-2,0.7-3.2,1.6c-1.2,0.5-2.9,1.2-3.7,1.4l-1.7,0.3c0,0.3-0.2,0.5-0.5,0.7
		c-0.7,0-1.2,0.2-1.5,0.5l-1.7,0.3l-2.7-0.3h-0.2c-0.2,0-0.5,0-0.7,0.2c-0.2,0-0.2,0-0.2-0.2c-0.7,0-1.7,0-2.4-0.2v-0.2h-0.7
		c-0.2-0.3-0.5-0.7-1.2-1l-0.2-1.2c-0.7-0.3-1.2-0.7-1.5-1.2c-1.2,0-1.2-1.9-1.5-2.1v-0.3h-0.7c0,0.3-0.5,0.9-1.5,1.6h-0.5
		c-0.2,0.2-0.5,0.7-1.2,1.2v0.3c-0.2,0.2-0.2,0.3-0.2,0.7c-0.7,0.2-1.2,0.7-1.2,1.4c1,0,0,0.3-2.9,1l-2.2,0.7h-1
		c-0.5,0.2-1.5,0.3-3.2,0.3l-0.2-0.2c-0.5,0.2-1.5,0.2-3.2,0.2c-0.2-0.2-1.5-0.5-2.2-1c-0.7,0.2-1.2,0-2-0.3c-0.7,0-1-0.3-1.2-0.9
		c0.2,0-0.7-0.5-3.4-1.6v-0.9l-1.2-1h-0.7v-0.7c-0.7,0-1.5-0.3-2.4-0.9V72l0.5-0.2c0-0.7-0.2-1.6-1-2.6c0-0.3,0-0.5,0.2-0.7
		l-0.2-0.5c-0.2,0-0.5,0-0.7-0.2v-0.7c0.2-0.2,0-0.5-0.2-1c0-0.2,0-0.5,0.2-0.9c0.2,0,0.2-0.2,0.2-0.3c0-0.2,0-0.5-0.2-0.9v-1.2
		c0-0.3,0-1-0.2-2.1c0-0.5,0.2-1.4,1-2.3c0.2-0.7,0.2-1.7,0.5-2.9l0.2-0.2c-0.2-0.2-0.2-0.5,0-1h-0.2l1-2.4c0-0.2,0-0.9,0.2-1.9
		c0-0.3,0.5-1,1.2-2.1c0-0.3,0.5-0.9,1.2-1.6v-1.2l1.2-0.9c0.5-0.3,1-1,1.5-1.9c0.2-0.2,0.5-0.7,0.7-1.9c0.7-0.2,1.2-0.7,1.2-1.4
		h0.7v-0.3c0-0.3,0.5-0.7,1.2-1.2c0-0.2,0.5-0.5,1.2-0.7c0-0.2,0.2-0.5,0.7-0.9c-0.2-0.2-0.2-0.3-0.2-0.5c0.2-0.2,0.5-0.2,0.7-0.2
		h0.2c0.7-0.2,1-0.5,1.2-1.2c0.2,0,0.2,0,0.5,0.2c0.2-0.5,0.7-1,2-1.7l2.7-1.7c0.2-0.3,0.7-0.7,1.7-1l3.7-0.9c0.2,0,0.7,0.2,1.2,0.5
		c1.2-0.2,2,0,2.2,0.2l0.5-0.3c0.5,0,1,0.2,1.2,0.5l1-0.2l0.7,0.5c1.2,0,2,0.5,2.7,1.4c0.2,0,0.7,0,1,0.2l0.5-0.3
		c0-0.2,0-0.2-0.2-0.2c0.2-0.2,0.7-0.3,1.2-0.2c0.2-0.5,0.2-1,0.2-1.6l0.2-0.2c-0.2-0.2-0.2-0.3-0.2-0.5l5.6-1.2l2.2-0.3
		c0.7-0.2,1.5-0.3,2.4-0.3c0-0.3,1.2-0.7,3.7-0.9c0.2-0.2,0.5-0.2,1.2,0c0.2-0.2,1-0.2,2.2-0.3v-0.2h2.2v0.3c0.2,0,0.5,0,1,0.2v2.1
		h-0.5c0,0.5-1,1.4-1,1.6c-0.7,0.9-1.5,2.3-2.4,4.5c-0.5,0.3-0.7,0.7-0.7,0.9c0,0.2,0,0.3,0.2,0.5c-0.2,0.2-0.5,0.3-0.7,0.3
		c0,0.5,0,1.4-0.2,2.3c-0.2,0.2-0.2,0.7-0.2,1.4c-1.2,0.2-0.5,1.2-1.2,1.7v1h1c0.2,0.2,0.5,0.7,0.7,1.2l-0.7,1.4
		c-0.5,0-0.7,0.3-0.7,1c0,0.3,0,0.7,0.2,0.9l-1,1.2l0.2,0.3c-0.2,0.2-0.5,0.7-0.7,1.6v1c0.2,0.3-0.2,1-1,2.1v1.4l-0.7,1
		c0.2,0.2,0.2,0.2,0.2,0.3l-0.2,0.2c0.2,0,0.2,0.2,0.5,0.3v0.3c-0.2,0.2-0.5,1-1,2.9c-0.5,1.2-0.7,2.3-0.7,3.1
		c-0.2,0.5-0.2,0.9-0.2,1c0,0.5,0.2,0.7,0.7,0.9c0,0.3,0.5,0.5,1.2,0.7v0.2c-0.7,0.2-1.2,1.4-1.2,4l0.2,0.2l1.2-0.9
		c0-0.2,0.2-0.3,0.7-0.5v-0.5l1-0.5l0.5-0.5l1.2-1c0.2-0.3,0.2-0.7,0.2-0.9h0.5c0.2-0.3,0.7-0.5,1.5-0.7c0,0.5,0.5-0.2,1.5-1.9v-0.2
		c0.2,0.2,0.2,0.2,0.5,0.2l0.7-1.2c0.2-0.2,0.2-0.2,0.5-0.2c0-0.5,0.2-1.2,0.5-2.1c0-1.4,0-2.4,0.2-3.1l0.2-0.2
		c-0.5-0.3-0.7-1-0.7-1.9c0.2,0,1-0.2,1.7-0.7l1-0.7h1c0.2-0.2,1.2-0.3,3.4-0.3c0.7-0.2-0.2-2.3,1.5-2.3c0.2,0.5,0.5,0.9,0.5,1.4
		c-0.2,0.2-0.2,0.3-0.2,0.7c0.2,0.2,0.7,0.2,1.5,0.3h0.5c0.2,0.2,0.7,0.3,1.2,0.3v0.5h-0.2v0.3h0.2c0,0.2,0,0.5,0.2,0.9L323.9,54.7z
		 M258.9,66.5c0-0.2,0-0.2-0.2-0.3v0.3H258.9z M258.9,73.2c-0.2,0-0.2,0-0.2-0.2v0.3L258.9,73.2z M263.1,44.8v-0.3h-0.5v0.3H263.1z
		 M266,38.9h-0.2V39L266,38.9z M268.5,62.1v0.2c0.2,0,0.5,0,0.5-0.2H268.5z M291.9,39.9c0-0.5-0.5-0.9-1.2-0.9
		c-0.5-0.2-0.7-0.2-0.7,0h-0.5v-0.3c-1.2-0.5-1.7-0.9-1.7-1c-0.5-0.5-1-0.7-1.5-0.7v-0.5h0.2l-1-1c-0.7,0-1.7-0.3-2-0.3v-0.5h-1.5
		c-0.5,0.2-0.7,0.5-1,0.7c0,0.7,0,1-0.2,1.2h-0.5c-0.5,0.2-0.7,0.5-0.7,1.2h-0.5l-0.7,1c-0.2,0-0.5,0-0.7,0.2v0.3
		c0.2,0,0.7,0,1.2,0.2c0,0.5-0.2,1-0.5,1.2c-1.5,0.2-2.2,0.5-2.2,1.4c0,0.2,0,0.2,0.2,0.2l-1.2,1.6c-0.2,0.9-0.5,1.4-0.7,1.6
		l-0.2,1.2c-0.2,0.2-0.2,0.7-0.2,1.4l-0.7,0.3l0.2,0.2c-0.2,0.2-0.2,0.2-0.5,0.2c0.2,0.2,0.2,0.3,0.2,0.5c-0.2,0.2-0.2,0.2-0.5,0.2
		c-0.2,0.9-0.5,1.2-0.7,1.2v0.2h0.2v0.5l-1,1.6v0.7h-0.5c0,0.5-0.2,0.7-0.5,0.7c0.7,0.9,1.2,1.2,1.2,1.4c-0.2,0.2-0.2,0.2-0.2,0.3
		c-0.7,0.3-1,1-0.7,2.1c0,0.5,0,0.9,0.2,1.2v0.2l-0.2,0.2v1.4c-0.2,0.5-0.5,0.9-0.5,1h-0.7v0.3h0.7v0.5h-0.7c-0.2,0.2-0.2,0.5,0,0.9
		h0.2V64h-0.2c-0.2,0.3,0,0.7,0.2,0.9c-0.2,0.3-0.5,1-0.2,1.9h0.2v-0.2c0.2,0,0.5,0.3,0.7,1.2c-0.2,0.2-0.2,0.2-0.2,0.3
		c0.2,0,1,1.2,1.2,1.2c0,0.2,0,0.3-0.2,0.5h0.2l0.5,0.5c0,0.2,0,0.2,0.2,0.3l0.5,0.3c0.7,0.9,2,1.4,3.9,1.4V73
		c1-0.2,1.7-0.3,2.2-0.3c1.5-0.2,2.2-0.5,2.4-1c0.2,0,0.5-0.2,0.7-0.3l-0.2-0.2c0.2-0.5,0.7-1,1.5-1.2c-0.2-0.2-0.2-0.2-0.2-0.3
		s0.2-0.5,0.7-0.7v-0.7c0.7-0.5,1.2-1.2,2-2.1c-0.2-0.2-0.5-0.3-0.5-0.5c0.2-0.2,0.5-0.3,1-0.3c0.2-0.5,0.7-1.2,1.5-1.7h0.5
		c-0.2-0.5-0.2-1,0.2-1.2v-1.7c-0.2-0.2-0.2-0.5,0-0.9c-0.2,0.2-0.7,0.2-1.2,0.2v-0.2h-1c0-0.2,0-0.2-0.2-0.3c0-1,0.5-2.4,1.2-4.2
		c-0.2-0.5-0.2-0.7-0.2-0.9c0-0.5,0-1.6,0.2-2.8c0.2-0.2,0.2-0.5,0-1c0.5-0.5,0.7-0.9,0.7-1c-0.2-1.2,0-1.9,0.5-2.1v-1.6l0.7-0.3
		c-0.2-0.2-0.2-0.3,0-0.5c0-0.5,0.5-1.9,0.5-2.4c-0.5,0,0.2-0.5,2-1.4v-0.5h-0.2v0.3h-0.2c-0.2-0.5-0.2-0.9-0.2-1H291.9z
		 M271.4,57.1c0,0.2,0,0.2-0.2,0.3v-0.3H271.4z M272.1,40.3c-0.5,0.3-0.5,0.7-0.2,0.9h0.2c0.2-0.2,0.2-0.5,0.5-0.9H272.1z
		 M274.3,44.1v-0.3h-0.2v0.3H274.3z M276.5,76.3v-0.5c-0.7,0-1.5,0-2.2,0.2c0.2,0.3,0.2,0.5,0.2,0.7L276.5,76.3z M277.3,78.3v-0.2
		l-0.2,0.2v0.2L277.3,78.3z M279.7,71.1l-0.2,0.2v-0.2H279.7z M280.4,29.7c-0.2,0-0.2,0-0.2,0.2v0.3c0-0.2,0-0.2,0.2-0.2V29.7z
		 M283.1,39.4c-0.2,0-0.2,0-0.2,0.2v-0.2l0.2-0.2V39.4z M283.1,66.5l-0.2,0.2v-0.2H283.1z M284.3,34.4v-0.2c-0.2,0-0.2,0-0.5,0.2
		H284.3z M284.1,70.8v-0.2c-0.2,0-0.2,0-0.2,0.2H284.1z M285.3,35v-0.3h-0.2V35H285.3z M285.3,72h-0.2v0.2L285.3,72z M287.3,30.7
		v-0.3H287v0.3H287.3z M289,37.3h-0.2v0.2L289,37.3z M289.2,46.2c0-0.2,0-0.2-0.2-0.3h-0.2v0.3H289.2z M290.2,77.2V77l-0.5,0.2
		H290.2z M292.9,33.1c0-0.3-0.2-0.5-0.5-0.7h-1l1.2,0.7H292.9z M292.2,54.3c-0.2,0.5-0.2,0.9,0,1.2c0.7-0.2,0.7-0.5,0.5-1
		C292.4,54.3,292.4,54.3,292.2,54.3z M292.6,34.5V34c-0.2,0.2-0.2,0.3-0.2,0.5H292.6z M294.6,43.4v-0.2h-0.2v0.3L294.6,43.4z
		 M295.3,43v-0.3c-0.2,0.2-0.2,0.2-0.5,0.2V43H295.3z M297,70.4c-0.2-0.5-0.2-0.9-0.5-1l-0.7-0.3c-0.2,0.2-0.2,0.2-0.5,0.2
		c0.2,1.6,0.2,2.6,0.5,2.8v0.2c0.5,0,0.7-0.5,1-1.6c0.2-0.2,0.5-0.2,0.7-0.2H297z M296.6,73c-0.2-0.2-0.5-0.5-1-0.7h-0.2
		c0,0.9,0,1.4,0.2,1.6c0.2,0,0.7,0,1-0.2V73z M297.3,43.4l-1-0.3l-0.2,0.5h0.2v1c0.2,0,0.7,0,1-0.2V43.4z M297.3,45.6
		c-0.7,0.2-1,0.5-1,0.9L297.3,45.6z M297,69.1v-0.5h-0.2v0.5H297z M298.5,33.5c-0.2-0.2-0.7-0.2-1-0.2c-0.2,0.3-0.2,0.5,0,0.7
		L298.5,33.5z M298.5,48.4c-0.2,0.2-0.2,0.3-0.2,0.5c0.2,0,0.5,0,0.5-0.2C298.8,48.6,298.8,48.6,298.5,48.4z M299.7,57.8
		c0-0.2,0-0.2-0.2-0.3H299c-0.2,0,0,0.2,0.5,0.3H299.7z M300.2,52.4l-1,0.3v0.3c0.5-0.2,0.7-0.2,1-0.2V52.4z M300.2,53.6v-0.5
		c-0.2,0-0.5,0.2-1,0.5v0.5L300.2,53.6z M300,50.8v0.3c0.2-0.2,0.2-0.2,0.5-0.2C300.2,50.8,300.2,50.8,300,50.8z M301.4,44.6
		c-0.5-0.2-0.7,0-1,0.3c0.2,0.2,0.2,0.2,0.5,0.2l-0.5,0.7v1.7l0.5,0.3c0.2-0.2,0.2-0.2,0.5-0.2c0-0.5,0-0.9-0.2-1
		c0.2-0.5,0.5-1,0.5-1.2C301.7,45.3,301.7,44.9,301.4,44.6z M300.7,48.4c-0.2,0.2-0.2,0.5,0,0.9h0.2c0.2-0.2,0.2-0.3,0.2-0.9H300.7z
		 M301.4,43.9v-0.2h-0.2L301.4,43.9z M302.9,76.7l-0.2-0.2v0.3L302.9,76.7z M304.1,47.9c-0.2,0-0.2,0-0.2,0.2v0.2
		c0.2-0.2,0.2-0.2,0.5-0.2L304.1,47.9z M303.9,48.2v0.2c0.2,0,0.2,0,0.2-0.2H303.9z M304.6,75.5l-0.2-0.2v0.3L304.6,75.5z
		 M307.3,75.1V75c-0.2,0-0.5,0-0.7,0.2H307.3z M307.3,27.8h-0.2v0.2L307.3,27.8z M309,28.8c-0.7,0.2-1.2,0.3-1.2,0.5
		c0.5-0.2,1-0.2,1.2-0.2V28.8z M309.5,34.4c0,0.2,0,0.3-0.2,0.3v-0.3H309.5z M310.5,32.6H310v-0.2h0.5V32.6z M317.8,52.4h-0.2
		c0,0.2,0,0.2,0.2,0.2V52.4z"/>
</g>
<g>
	<path d="M10.8,95.3v1.1H5.9v11.4H4.9V96.4H0v-1.1H10.8z"/>
	<path d="M20.9,101.2h-7.5v6.6h-1.1V95.3h1.1v4.8h7.5v-4.8H22v12.5h-1.1V101.2z"/>
	<path d="M24.8,107.8V95.3H32v1.1h-6.2v3.5H30v1.1h-4.2v5.7h6.6v1.1H24.8z"/>
	<path d="M52,100c0,0,0,0.1,0,0.2c0,0.1,0,0.2,0,0.2v0.2c0,0.1,0,0.2,0,0.3s0,0.2,0,0.3c0,0.5,0,1-0.1,1.5c-0.1,0.5-0.2,1-0.4,1.3
		c-0.3,0.6-0.6,1.1-1,1.6c-0.4,0.5-0.9,0.9-1.4,1.2c-0.5,0.3-1.1,0.6-1.6,0.8c-0.6,0.2-1.2,0.3-1.8,0.3c-0.9,0-1.7-0.2-2.4-0.5
		c-0.8-0.3-1.4-0.8-2-1.4s-1-1.3-1.4-2c-0.3-0.8-0.5-1.6-0.5-2.4c0-0.9,0.2-1.7,0.5-2.5s0.8-1.5,1.4-2c0.6-0.6,1.3-1,2-1.4
		c0.8-0.3,1.6-0.5,2.4-0.5c0.4,0,0.9,0.1,1.4,0.2c0.5,0.1,1,0.3,1.5,0.5l-0.4,1.1c-0.5-0.2-0.9-0.4-1.3-0.5
		c-0.4-0.1-0.8-0.2-1.1-0.2c-0.7,0-1.4,0.1-2.1,0.4c-0.6,0.3-1.2,0.7-1.7,1.2s-0.8,1.1-1.1,1.7s-0.4,1.3-0.4,2
		c0,0.7,0.1,1.4,0.4,2.1c0.3,0.6,0.7,1.2,1.1,1.7c0.5,0.5,1,0.8,1.7,1.1c0.6,0.3,1.3,0.4,2,0.4c0.5,0,1-0.1,1.4-0.2s0.9-0.4,1.3-0.6
		s0.8-0.6,1.1-1c0.3-0.4,0.6-0.8,0.9-1.3c0.1-0.3,0.2-0.7,0.3-1.2s0.1-0.9,0.1-1.2c0,0,0,0,0,0s0,0,0-0.1h-4.5V100H52z"/>
	<path d="M55.4,103v4.8h-1.1V95.3h3.6c0.5,0,1,0.1,1.5,0.3c0.5,0.2,0.9,0.5,1.2,0.9c0.3,0.4,0.6,0.8,0.8,1.2
		c0.2,0.5,0.3,0.9,0.3,1.4c0,0.4-0.1,0.8-0.2,1.1c-0.1,0.4-0.3,0.7-0.5,1s-0.4,0.6-0.7,0.8c-0.3,0.2-0.6,0.4-1,0.6
		c0.3,0.3,0.5,0.7,0.8,1c0.3,0.3,0.5,0.7,0.8,1l2.4,3.1h-1.4l-3.7-4.8H55.4z M55.4,96.4v5.5h2.5c0.4,0,0.7-0.1,1.1-0.2
		s0.6-0.3,0.9-0.6c0.2-0.2,0.4-0.5,0.6-0.9c0.1-0.3,0.2-0.7,0.2-1.1s-0.1-0.7-0.2-1.1c-0.1-0.3-0.3-0.6-0.6-0.9s-0.5-0.5-0.9-0.6
		c-0.3-0.1-0.7-0.2-1.1-0.2H55.4z"/>
	<path d="M64.9,107.8V95.3h7.3v1.1H66v3.5h4.2v1.1H66v5.7h6.6v1.1H64.9z"/>
	<path d="M78,94.9l5.2,12.9c-0.2,0.1-0.3,0.1-0.4,0.1c-0.1,0-0.2,0-0.2,0.1c-0.1,0-0.1,0-0.2,0c-0.1,0-0.1,0-0.2,0l-2.1-5h-4.2
		l-1,2.4c-0.2,0.4-0.4,0.9-0.6,1.3s-0.4,0.9-0.5,1.3c-0.1,0-0.2-0.1-0.3-0.1c-0.1,0-0.4-0.1-0.7-0.2L78,94.9z M79.7,102
		c-0.1-0.4-0.4-1-0.6-1.8c-0.3-0.7-0.6-1.6-1-2.7l-1.7,4.4H79.7z"/>
	<path d="M94.4,95.3v1.1h-4.8v11.4h-1.1V96.4h-4.9v-1.1H94.4z"/>
	<path d="M96,107.8V95.3h7.3v1.1h-6.2v3.5h4.2v1.1h-4.2v5.7h6.6v1.1H96z"/>
	<path d="M114.1,104.3c0,0.6-0.1,1.1-0.4,1.6s-0.6,0.8-1,1.1s-0.9,0.5-1.5,0.7s-1.2,0.2-1.8,0.2c-0.3,0-0.6,0-0.9-0.1
		c-0.3,0-0.7-0.1-1-0.2c-0.3-0.1-0.7-0.2-1-0.2c-0.3-0.1-0.7-0.2-1-0.3l0.5-0.9l0.6,0.1c0.2,0,0.3,0.1,0.5,0.1
		c0.2,0.1,0.4,0.1,0.6,0.1c0.2,0,0.5,0.1,0.7,0.1s0.4,0,0.6,0h0.8c0.4,0,0.8-0.1,1.2-0.2c0.4-0.1,0.7-0.3,1-0.5
		c0.3-0.2,0.5-0.5,0.7-0.8c0.2-0.3,0.3-0.7,0.3-1.1c0-0.2,0-0.4-0.1-0.6c-0.1-0.2-0.2-0.4-0.3-0.5v0c-0.2-0.2-0.4-0.4-0.6-0.6
		c-0.2-0.1-0.4-0.3-0.7-0.3s-0.5-0.1-0.7-0.2c-0.3,0-0.5-0.1-0.8-0.1c-0.4,0-0.9-0.1-1.3-0.1c-0.4-0.1-0.9-0.2-1.3-0.5v0
		c-0.5-0.3-0.8-0.6-1.1-1.1c-0.3-0.5-0.4-1-0.4-1.6c0-0.8,0.3-1.6,0.9-2.1c0.6-0.6,1.4-1,2.5-1.2h0c0.2,0,0.4-0.1,0.7-0.1
		c0.3,0,0.6,0,1,0c0.2,0,0.4,0,0.7,0.1c0.3,0,0.5,0.1,0.8,0.2s0.6,0.1,0.8,0.2c0.3,0.1,0.5,0.2,0.8,0.3l-0.4,1
		c-0.3-0.1-0.6-0.2-0.9-0.3c-0.3-0.1-0.5-0.1-0.8-0.2c-0.2,0-0.5-0.1-0.7-0.1c-0.2,0-0.5,0-0.7,0c-0.4,0-0.8,0-1.2,0.1
		c-0.4,0.1-0.8,0.2-1.1,0.4c-0.3,0.2-0.6,0.4-0.8,0.7c-0.2,0.3-0.3,0.7-0.3,1.1c0,0.1,0,0.3,0.1,0.4s0.1,0.3,0.2,0.5
		c0.1,0.2,0.2,0.3,0.3,0.4c0.1,0.1,0.2,0.3,0.4,0.3c0.3,0.2,0.7,0.3,1,0.4c0.4,0.1,0.7,0.1,1.1,0.1c0.4,0,0.9,0.1,1.4,0.2
		c0.5,0.1,1,0.3,1.4,0.6c0.2,0.2,0.4,0.3,0.6,0.5s0.3,0.4,0.5,0.7c0.1,0.2,0.2,0.5,0.3,0.8S114.1,104.1,114.1,104.3z"/>
	<path d="M125.9,95.3v1.1h-4.8v11.4H120V96.4h-4.9v-1.1H125.9z"/>
	<path d="M142.6,104.3c0,0.6-0.1,1.1-0.4,1.6s-0.6,0.8-1,1.1c-0.4,0.3-0.9,0.5-1.5,0.7s-1.2,0.2-1.8,0.2c-0.3,0-0.6,0-0.9-0.1
		c-0.3,0-0.7-0.1-1-0.2c-0.3-0.1-0.7-0.2-1-0.2c-0.3-0.1-0.7-0.2-1-0.3l0.5-0.9l0.6,0.1c0.2,0,0.3,0.1,0.5,0.1
		c0.2,0.1,0.4,0.1,0.6,0.1c0.2,0,0.5,0.1,0.7,0.1c0.2,0,0.4,0,0.6,0h0.8c0.4,0,0.8-0.1,1.2-0.2s0.7-0.3,1-0.5
		c0.3-0.2,0.5-0.5,0.7-0.8c0.2-0.3,0.3-0.7,0.3-1.1c0-0.2,0-0.4-0.1-0.6c-0.1-0.2-0.2-0.4-0.3-0.5v0c-0.2-0.2-0.4-0.4-0.6-0.6
		s-0.4-0.3-0.7-0.3s-0.5-0.1-0.7-0.2c-0.3,0-0.5-0.1-0.8-0.1c-0.4,0-0.9-0.1-1.3-0.1c-0.4-0.1-0.9-0.2-1.3-0.5v0
		c-0.5-0.3-0.8-0.6-1.1-1.1c-0.3-0.5-0.4-1-0.4-1.6c0-0.8,0.3-1.6,0.9-2.1c0.6-0.6,1.4-1,2.5-1.2h0c0.2,0,0.4-0.1,0.7-0.1
		c0.3,0,0.6,0,1,0c0.2,0,0.4,0,0.7,0.1c0.3,0,0.5,0.1,0.8,0.2s0.6,0.1,0.8,0.2c0.3,0.1,0.5,0.2,0.8,0.3l-0.4,1
		c-0.3-0.1-0.6-0.2-0.9-0.3c-0.3-0.1-0.5-0.1-0.8-0.2c-0.2,0-0.5-0.1-0.7-0.1c-0.2,0-0.5,0-0.7,0c-0.4,0-0.8,0-1.2,0.1
		c-0.4,0.1-0.8,0.2-1.1,0.4c-0.3,0.2-0.6,0.4-0.8,0.7c-0.2,0.3-0.3,0.7-0.3,1.1c0,0.1,0,0.3,0.1,0.4s0.1,0.3,0.2,0.5
		c0.1,0.2,0.2,0.3,0.3,0.4c0.1,0.1,0.2,0.3,0.4,0.3c0.3,0.2,0.7,0.3,1,0.4c0.4,0.1,0.7,0.1,1.1,0.1c0.4,0,0.9,0.1,1.4,0.2
		c0.5,0.1,1,0.3,1.4,0.6c0.2,0.2,0.4,0.3,0.6,0.5c0.2,0.2,0.3,0.4,0.5,0.7c0.1,0.2,0.2,0.5,0.3,0.8S142.6,104.1,142.6,104.3z"/>
	<path d="M154.5,95.3v1.1h-4.8v11.4h-1.1V96.4h-4.9v-1.1H154.5z"/>
	<path d="M162,95.2c0.9,0,1.7,0.2,2.5,0.5s1.4,0.8,2,1.4s1,1.3,1.4,2c0.3,0.8,0.5,1.6,0.5,2.5c0,0.9-0.2,1.7-0.5,2.5
		c-0.3,0.8-0.8,1.5-1.4,2c-0.6,0.6-1.2,1-2,1.4s-1.6,0.5-2.5,0.5c-0.9,0-1.7-0.2-2.5-0.5c-0.8-0.3-1.5-0.8-2-1.4
		c-0.6-0.6-1-1.3-1.4-2c-0.3-0.8-0.5-1.6-0.5-2.5c0-0.9,0.2-1.7,0.5-2.5c0.3-0.8,0.8-1.5,1.4-2s1.3-1,2-1.4
		C160.3,95.4,161.1,95.2,162,95.2z M167.2,101.6c0-0.7-0.1-1.4-0.4-2.1c-0.3-0.6-0.6-1.2-1.1-1.7c-0.5-0.5-1-0.9-1.7-1.1
		c-0.6-0.3-1.3-0.4-2-0.4c-0.7,0-1.4,0.1-2.1,0.4c-0.6,0.3-1.2,0.7-1.7,1.1c-0.5,0.5-0.9,1-1.1,1.7c-0.3,0.6-0.4,1.3-0.4,2.1
		c0,0.7,0.1,1.4,0.4,2.1c0.3,0.6,0.7,1.2,1.1,1.7c0.5,0.5,1,0.9,1.7,1.1c0.6,0.3,1.3,0.4,2.1,0.4c0.7,0,1.4-0.1,2-0.4
		c0.6-0.3,1.2-0.7,1.7-1.1c0.5-0.5,0.8-1,1.1-1.7C167.1,103,167.2,102.3,167.2,101.6z"/>
	<path d="M171.9,103v4.8h-1.1V95.3h3.6c0.5,0,1,0.1,1.5,0.3c0.5,0.2,0.9,0.5,1.2,0.9c0.3,0.4,0.6,0.8,0.8,1.2
		c0.2,0.5,0.3,0.9,0.3,1.4c0,0.4-0.1,0.8-0.2,1.1c-0.1,0.4-0.3,0.7-0.5,1c-0.2,0.3-0.4,0.6-0.7,0.8c-0.3,0.2-0.6,0.4-1,0.6
		c0.3,0.3,0.5,0.7,0.8,1c0.3,0.3,0.5,0.7,0.8,1l2.4,3.1h-1.4l-3.7-4.8H171.9z M171.9,96.4v5.5h2.5c0.4,0,0.7-0.1,1.1-0.2
		s0.6-0.3,0.9-0.6c0.2-0.2,0.4-0.5,0.6-0.9c0.1-0.3,0.2-0.7,0.2-1.1s-0.1-0.7-0.2-1.1c-0.1-0.3-0.3-0.6-0.6-0.9
		c-0.2-0.3-0.5-0.5-0.9-0.6c-0.3-0.1-0.7-0.2-1.1-0.2H171.9z"/>
	<path d="M181.4,107.8V95.3h7.3v1.1h-6.2v3.5h4.2v1.1h-4.2v5.7h6.6v1.1H181.4z"/>
	<path d="M197.4,95.3v12.5h-1.1V95.3H197.4z"/>
	<path d="M210,95.3V108l-8.4-10v9.8h-1.1V95.1l8.4,10v-9.9H210z"/>
	<path d="M230.5,95.3v1.1h-4.8v11.4h-1.1V96.4h-4.9v-1.1H230.5z"/>
	<path d="M240.6,101.2h-7.5v6.6H232V95.3h1.1v4.8h7.5v-4.8h1.1v12.5h-1.1V101.2z"/>
	<path d="M244.5,107.8V95.3h7.3v1.1h-6.2v3.5h4.2v1.1h-4.2v5.7h6.6v1.1H244.5z"/>
	<path d="M266.7,95.4l1.2,2.7c0.2-0.4,0.3-0.7,0.4-1c0.1-0.3,0.3-0.6,0.4-0.9c0.1-0.3,0.2-0.6,0.4-0.8l1,0.4l-1.6,3.7
		c0.2,0.5,0.4,1,0.7,1.5s0.4,0.9,0.7,1.3c0.2,0.4,0.5,0.9,0.7,1.3c0.2,0.5,0.4,0.9,0.7,1.5c0.2-0.4,0.3-0.8,0.6-1.3
		c0.2-0.5,0.4-1,0.7-1.5c0.2-0.5,0.5-1.1,0.8-1.7c0.3-0.6,0.5-1.1,0.8-1.7c0.6-1.3,1.2-2.6,1.8-3.9l1,0.5l-5.5,12.3l-3.3-7l-3.2,7
		L259,95.6l1-0.5l4.6,10l2.7-5.6c-0.3-0.6-0.5-1.2-0.8-1.9s-0.5-1.3-0.8-1.9L266.7,95.4z"/>
	<path d="M284.5,95.2c0.9,0,1.7,0.2,2.5,0.5s1.4,0.8,2,1.4s1,1.3,1.4,2c0.3,0.8,0.5,1.6,0.5,2.5c0,0.9-0.2,1.7-0.5,2.5
		c-0.3,0.8-0.8,1.5-1.4,2c-0.6,0.6-1.2,1-2,1.4s-1.6,0.5-2.5,0.5c-0.9,0-1.7-0.2-2.5-0.5c-0.8-0.3-1.5-0.8-2-1.4
		c-0.6-0.6-1-1.3-1.4-2c-0.3-0.8-0.5-1.6-0.5-2.5c0-0.9,0.2-1.7,0.5-2.5c0.3-0.8,0.8-1.5,1.4-2s1.3-1,2-1.4
		C282.8,95.4,283.7,95.2,284.5,95.2z M289.8,101.6c0-0.7-0.1-1.4-0.4-2.1c-0.3-0.6-0.6-1.2-1.1-1.7c-0.5-0.5-1-0.9-1.7-1.1
		c-0.6-0.3-1.3-0.4-2-0.4c-0.7,0-1.4,0.1-2.1,0.4c-0.6,0.3-1.2,0.7-1.7,1.1c-0.5,0.5-0.9,1-1.1,1.7c-0.3,0.6-0.4,1.3-0.4,2.1
		c0,0.7,0.1,1.4,0.4,2.1c0.3,0.6,0.7,1.2,1.1,1.7c0.5,0.5,1,0.9,1.7,1.1c0.6,0.3,1.3,0.4,2.1,0.4c0.7,0,1.4-0.1,2-0.4
		c0.6-0.3,1.2-0.7,1.7-1.1c0.5-0.5,0.8-1,1.1-1.7C289.7,103,289.8,102.3,289.8,101.6z"/>
	<path d="M294.5,103v4.8h-1.1V95.3h3.6c0.5,0,1,0.1,1.5,0.3c0.5,0.2,0.9,0.5,1.2,0.9c0.3,0.4,0.6,0.8,0.8,1.2
		c0.2,0.5,0.3,0.9,0.3,1.4c0,0.4-0.1,0.8-0.2,1.1c-0.1,0.4-0.3,0.7-0.5,1c-0.2,0.3-0.4,0.6-0.7,0.8c-0.3,0.2-0.6,0.4-1,0.6
		c0.3,0.3,0.5,0.7,0.8,1c0.3,0.3,0.5,0.7,0.8,1l2.4,3.1H301l-3.7-4.8H294.5z M294.5,96.4v5.5h2.5c0.4,0,0.7-0.1,1.1-0.2
		s0.6-0.3,0.9-0.6c0.2-0.2,0.4-0.5,0.6-0.9c0.1-0.3,0.2-0.7,0.2-1.1s-0.1-0.7-0.2-1.1c-0.1-0.3-0.3-0.6-0.6-0.9
		c-0.2-0.3-0.5-0.5-0.9-0.6c-0.3-0.1-0.7-0.2-1.1-0.2H294.5z"/>
	<path d="M312.2,106.7v1.1H304V95.3h1.1v11.4H312.2z"/>
	<path d="M317.4,95.3c0.9,0,1.7,0.2,2.4,0.5s1.4,0.8,2,1.3c0.6,0.6,1,1.2,1.3,2s0.5,1.6,0.5,2.4s-0.2,1.7-0.5,2.4
		c-0.3,0.8-0.8,1.4-1.3,2c-0.6,0.6-1.2,1-2,1.3c-0.8,0.3-1.6,0.5-2.4,0.5h-3.9V95.3H317.4z M322.6,101.6c0-0.7-0.1-1.4-0.4-2
		s-0.6-1.2-1.1-1.6s-1-0.8-1.6-1.1c-0.6-0.3-1.3-0.4-2-0.4h-2.8v10.3h2.8c0.7,0,1.4-0.1,2-0.4c0.6-0.3,1.2-0.6,1.6-1.1
		s0.8-1,1.1-1.6S322.6,102.3,322.6,101.6z"/>
</g>
</svg>
