<svg xmlns="http://www.w3.org/2000/svg" viewBox="0 0 325.12 108.04"><defs><style>.cls-1{fill:#1767ff;}</style></defs><title>Asset 1</title><g id="Layer_2" data-name="Layer 2"><g id="Layer_1-2" data-name="Layer 1"><path class="cls-1" d="M52.35,55.18l-.24,1.91-.24.17c-.24.17-.49,1.21-.49,2.78-.24.17-.24.87-.49,1.91a.53.53,0,0,0-.24.52h.24c0,.17,0,.17.24.35L50.4,63l.49.69-.73,1.56v.87a2.69,2.69,0,0,1-1.22,1v1.21a17.7,17.7,0,0,0-2.68,3.12c0,.17-.24.17-.49.35a5.51,5.51,0,0,1-1.46,2.6v.69l-.73.35v.35l-1.71,1v.35a1.71,1.71,0,0,0-1,1A20.32,20.32,0,0,0,36.24,80a8.89,8.89,0,0,1-2.69.35l-.49.35H31.35a4.13,4.13,0,0,0-2.44.17,5.93,5.93,0,0,0-1.46.17,13.89,13.89,0,0,0-2.68-.35,9.44,9.44,0,0,0-2.44-.52,10.13,10.13,0,0,1-2-.35h-1a4.58,4.58,0,0,0-1.71-.52,1.14,1.14,0,0,1-.73-.17l-1.22-.35c-.73-.17-2.44-.69-6.35-2.08H9.13C6.2,76,5.47,73.74,4.25,73.74v-1A5,5,0,0,0,3,71.83v-.69H2.29a1.64,1.64,0,0,1-.24-1,1.42,1.42,0,0,1,.24-.87c0-.17-.24-.35-.49-.69,0-.87,0-2.6-.24-5.2,0-.17-.24-.17-.49-.35v-.35h.24c0-.69-1.22-2.78-1.22-4a6.15,6.15,0,0,1,.24-2.43h0C.1,56.22.1,56,.1,55.87l.24-.17c0-1,.24-1.56.49-1.74v-.17c-.24-.17-.24-.52-.24-.87a3.5,3.5,0,0,1,.49-1.21,2.87,2.87,0,0,1,0-2.08,4.27,4.27,0,0,0,.73-2.08V44.42H2l.73-.69A1.63,1.63,0,0,0,3,42.16a2,2,0,0,0,.49-1.56c.73-.17,1-.69.73-1.21C4,39.39,4,39.21,4,39A4.34,4.34,0,0,0,4.25,37c.73-.17,1-.69,1-1.56.24-.17.24-.52.49-1l1.47-.87h1l.73-.87a12.77,12.77,0,0,0,2.68-1.74l.73-.17A5.34,5.34,0,0,0,14.75,29a7.1,7.1,0,0,0,3.42-1.39,5.91,5.91,0,0,0,1.46-.17c0-.17,0-.17.24-.35,1.22-.17,1.71-.35,1.46-.35h.24a2.07,2.07,0,0,1,2-.87c0,.17.24.17.73.17a7,7,0,0,0,2.2-1.21h1.22l1.22.69c1.22-.17,1,.52,2,.52l.24-.17h3.66a3.49,3.49,0,0,0,2,.52l.73.52a2.56,2.56,0,0,1,2.44,1.39A3.81,3.81,0,0,1,42.1,30l.73.35,1,.35a1.38,1.38,0,0,1,.49,1.21c.73.52,1.22,1,1.22,1.39l1,.87V35A6.23,6.23,0,0,0,48,36.44a1,1,0,0,0,.73,1,.53.53,0,0,0,.24.52v1.56c-.24,0-.24.17-.24.35h.24v1.21L48.2,42a.53.53,0,0,1,.24.52,1.23,1.23,0,0,0-.73,1.21c-1,.17-1.46.69-1.46,1.39l-3.66,2.6a5.38,5.38,0,0,1-2,1v.87a2.46,2.46,0,0,0-1.46.87h-.49c0,.35-.24.52-.49.69-.24.52-.49.87-.73.69l-.24.35-2,1v.35C34,54,33.55,54.48,33.55,55a22.46,22.46,0,0,0-4.4,2.43,5.92,5.92,0,0,0-1.46.17c0,.52-.24.69-1,.52h-1c0,.17,0,.17-.24.17L24,58.65c-1,.17-1.46.35-1.71.35a12.67,12.67,0,0,0-1.46-.35c-.24,0-.49,0-.49.17s0,.17.24.17v4.34a.92.92,0,0,1,.49.87c.24,0,.24.17,0,.69a1.64,1.64,0,0,1,.49,1.21,1.22,1.22,0,0,0-.49.69,1.17,1.17,0,0,0,.49.87,4.7,4.7,0,0,1,.24,1.73l.73.35c.73.17,1.22.35,1.22.52a1.14,1.14,0,0,0-.73.17c0,.52.49.87,1.22,1,0,.17,0,.17.24.35,1.71.17,2.44.17,2,.35v-.35a1.49,1.49,0,0,1,1,.35l.49-.52a4.66,4.66,0,0,0,2.2-.35h.73l1-.35c.24-.17.49-.17.49-.35a5.34,5.34,0,0,0,2.44-1.73l1.46-1a1.55,1.55,0,0,1,1-.17q0,.52,1.47-1l1-.87c.24-.17,1.22-.69,1.46-1.21-.24,0,0-.52,1.22-1.56l1-1.39,1-.69V60c.49-.17.73-.17.73-.35a5.39,5.39,0,0,1,1.47-3.12l-.24-.35h-.49v-.69h.73a5.55,5.55,0,0,1,.49-1,1.15,1.15,0,0,1,.73-.17V54a4.49,4.49,0,0,1,1.22-.17v-.35h1c0-.17-.24-.35-.49-.52v-.69a4.53,4.53,0,0,1,3.66.87c0,.17.24.17.49.35ZM4.74,40.6v.52c0,.17,0,.17-.24.17v.17c.24,0,.24,0,.24.17a2.26,2.26,0,0,1,.24-1Zm1,25.33c0,.17,0,.17-.24.17a.53.53,0,0,1,.24.52A.53.53,0,0,0,6,66.11Zm0-5.38v.17H6.2a1.42,1.42,0,0,1,.24.87c.24-.17.24-.17.49-.17-.24-.17-.24-.17-.24-.35q.73-.26.73-.52ZM7.18,34.88V34.7H6.93v.17Zm.24,30.71a1.09,1.09,0,0,0,0-1.21H6.93a.53.53,0,0,0,.24.52c-.24.17-.24.35-.24.69Zm0-22.73c-.24.52-.49.69-.24.87a1.14,1.14,0,0,0,.73-.17C8.15,43,7.91,42.86,7.42,42.86Zm2.44,5.9v-.35h-1c0-.17,0-.17-.24-.35a2.89,2.89,0,0,1-1.22-.52c-.24,1.21,0,1.91.73,2.26q.73-.52.73-1ZM7.42,65.93c0,.35,0,.52.24.35Zm1.71,5.2a.53.53,0,0,0-.24-.52H8.4v.17c0,.17,0,.17.24.35Zm0-34.35c.24.17.24.17.24.35,0-.17,0-.17.24-.35Zm3.42,37.65v-.35h-.24v.35Zm4.88-30.71h-.49a1.21,1.21,0,0,0,.49.69l-1,.52-.24.35c.24.17.24.17.49.17V46c-.24,0-.49,0-.49.17A6.13,6.13,0,0,0,16,48.06h-.24a2.51,2.51,0,0,0,.49.87h.49a.53.53,0,0,1-.24-.52c.24-.52.24-1,.49-1.21h.24c0-1.56.24-2.6.73-2.95Zm-1.71,5.73v1c.49-.17.49-.52.24-1Zm3.91-21.69a1.14,1.14,0,0,0-.73.17v.52h.24c.24-.17.24-.17.49-.17Zm0,31.23-.24-.17Zm0,4.51v-.87h-.24v.87Zm.73,2.6v-.17c-.24.17-.24.17-.49.17Zm1-36.44a1.42,1.42,0,0,0-.73.35v.35a1.54,1.54,0,0,0,1-.17A.53.53,0,0,1,21.34,29.67Zm-.73,15.62v.17c.24,0,.24,0,.49-.17Zm16.6-4.16V38.69a1.15,1.15,0,0,0-.73-.17l.73-.35a25.88,25.88,0,0,1-1.46-3.82l-1.46-2.43H34a1.73,1.73,0,0,1-.24-.87,10.2,10.2,0,0,1-2.69-1q-2.2.26-2.2,1a3.61,3.61,0,0,1-1.22.17c0,.52-.24.69-.73.69a1.42,1.42,0,0,0-.24.87L26,35a9.34,9.34,0,0,0-1.46,2.78.58.58,0,0,0,.24.87l-.24.17c-.24.52-.24.87-.49.87-.24.87-.73,1.39-1,1.39,0,.52.49.87.49,1-.24.17-.24.17-.49.17v1.39l-.49.87a45.23,45.23,0,0,1-1,4.69V51c-.24.17-.24.52-.49,1a.78.78,0,0,0,.24,1,1,1,0,0,1-.24.69v.35a3.74,3.74,0,0,0,2-.87,2.45,2.45,0,0,1,1.22-.17v-.17H25a2.52,2.52,0,0,1,1.71-1c.24-.52,1-.87,2.2-.87v-.35l1.47-.52c2.93-.52,3.91-.69,2.93-.69a4.75,4.75,0,0,1,1.22-1.21v-.35H34c.24-.69.73-1,1-1,0,.52,0,.35-.24-.52L35.5,46c.24-.87.24-1.21.49-1.39-.24-.17-.24-.35-.24-.69H36c0-.87,0-1.39.24-1.39q.37-.26,0-.52c.24-.17.24-.17.49-.17v-.69ZM23.78,28.8a1.7,1.7,0,0,0-1.22.69l-.73.17c-.24.69,0,1.21.49,1.39a1.15,1.15,0,0,1,.73-.17V30a1.14,1.14,0,0,1,.73-.17,11.51,11.51,0,0,0,.49-1.39C24,28.46,24,28.63,23.78,28.8ZM22.07,43h-.24c.24,0,.24,0,.24.17Zm1.71,27.76h-.24v-.17h.24ZM26,26v-.17h-.24v.35Zm3.17,25.85c-.24.17-.24.17-.24.35h-.73c0,.52-.49.87-1.22,1-.24.17-.24.35-.24.69.73-.17,1-.52,1-.69a3.74,3.74,0,0,0,2-.87C29.4,52.23,29.15,52.05,29.15,51.88ZM29.4,26.2h-.24c.24,0,.24,0,.24.17Zm0,32.1-.24-.17h.24Zm2.69-.87-.24.17-.24-.17Zm0,22.56-.24-.17V80Zm1-29.5a1.14,1.14,0,0,0-.73-.17c-.24.17-.24.35-.24.69a1.54,1.54,0,0,1,1-.17ZM45.76,67v-.69h-.49l-2.93,2.08c.49.35,0,.87-1.22,1.39a.53.53,0,0,1,.24.52l-.73.35a.53.53,0,0,0,.24.52,3.41,3.41,0,0,1-2.68,1.21l-.49.52L36,73.22A19,19,0,0,0,33.06,75h-.73c-.24.17,0,.35.24.52.24,0,.73-.17,1.71-.35l1-.17a1.91,1.91,0,0,1,.73-.87l.73-.52c1.47-.17,2.44,0,2.69.52l.49-.52.49-.35a1.9,1.9,0,0,0,1-1.56h.24A7.1,7.1,0,0,1,45,67.5a.53.53,0,0,1,.24-.52ZM35.5,78.77A6.67,6.67,0,0,0,35,76.86h-.49l-.24.17a5.74,5.74,0,0,1,.24,1.74Zm.73-41.12H35.5v-.17h.73Zm-.49,5-.24.17v-.35h.24Zm3.17,35.57c-.49-.17-.73-.17-1,0v.35h.73Zm1.47-.35-.24-.17-.24.17Zm2.93-31.75c0-.17,0-.17-.24-.17l-.24.17Zm.24,18c-.24-.17-.24-.17-.49-.17v.17Zm0-19.09h-.24c0,.17,0,.17.24.35ZM45,32.79h-.24c-.24.35-.49.52-.49.69l-.24.17a2,2,0,0,0,1-.17Zm0,11.8v-.17l-.24.17Zm0,17.53v-.35h-.24v.35Zm1,2.6a1.24,1.24,0,0,0-.49,1,1.42,1.42,0,0,0,1.22-.87A1.14,1.14,0,0,0,46,64.72Zm0-29.84V35c.24,0,.24,0,.24-.17Zm1,25c.24-.35.24-.52,0-.69Zm1-23.94-.24.35v-.35Zm0,1.56h-.24v.17Zm0,20h-.24v.35Zm1.22-4.16-.24.17v-.17Zm1.22,7.46v-.35h-.49c0,.17,0,.17.24.35Zm0-6.59c0,.17,0,.17.24.17Zm.73,3.47h-.24a1.42,1.42,0,0,0,.24.87Zm1-3.64.24.17c0-.17,0-.17.24-.17Z"/><path class="cls-1" d="M104.86,57.43l-.49.52-.49.17c0,.69.24,1,.49,1v.17c-.73.17-1,.52-1.22,1.39l-.49.35.49.35-.24.17a2.86,2.86,0,0,0-1,1l.49.35-.49.69-1,1.21c-.73.87-1,1.21-1,1h.73v.17l-.49.35L98.75,68l-.24,1c-.73.17-1,.52-1.22,1.21-.73.35-1,1-1.22,2.26a7.13,7.13,0,0,0-1.22,2.6h-.73c-.73.87-1.22,1.21-1.71,1.21l-.24-.17-.73.87H88l-1,.35a2.31,2.31,0,0,1-.73,1.56,4.92,4.92,0,0,0-2.44.35,24.53,24.53,0,0,0-3.18.17v.17l-1.22-.52h-2L76,78.25v-.35a1.15,1.15,0,0,0-.73-.17,2.78,2.78,0,0,0-1.46-1.21A8.42,8.42,0,0,1,73.36,75h-.49a7.15,7.15,0,0,0-.24-2.08h-.73l1-2.78c0-.17,0-.17.24-.17s0,.17-1.22.52l-1.46.87c.24.52.49.69.49.87a1.33,1.33,0,0,0-.73,1.39c-.24,0-.24,0-.49.17a3.28,3.28,0,0,1-1.46.87l-.24-1h-.24c0,.69,0,1,.24,1.22-.49,0-1.46.87-2.93,2.43-.49,0-.73.35-.73,1l-2.2.87c-1,.69-1.47,1-1.47.87h-.73c-.24,0-.24,0-.24-.17-.73,0-1,0-1.22.17l-.73.52c-.73-.35-1-.52-1.22-.35H54.8a5,5,0,0,0-2-.17c-.24-.52-.73-.69-1.46-.87v-1a.58.58,0,0,1-.24-.87,1.25,1.25,0,0,1-.49-1c-.24-.17-.49-.35-.24-.69V74.26h.49l-.73-.87a16.79,16.79,0,0,1,.24-3.12h.49a1.15,1.15,0,0,0-.73-.17,4.33,4.33,0,0,1,.24-1.56c-.24-.17-.24-.69,0-1.21l.24-.17c-.24,0-.24,0-.49-.17l.24-.35h.49v-.87H50.4c-.24-.52-.24-.69.24-.87H50.4a.82.82,0,0,1-.24-.69c-.49-.17-.49-.52-.24-.69s.24-1.22.24-2.78l.73-.35v.35h.49V60l-.73-.35V60c-.24,0-.24,0-.24-.17a.82.82,0,0,1,.24-.69c0-.17,0-.17-.24-.35l-.73-.17c0-.52.73-1.91.73-2.43.24,0,.24,0,.24.17l.49-.52c-.73-1-1-1.39-1-1.21.73-1.21,1.22-1.74,1.22-1.91a2,2,0,0,1-.49-1.56c-.24-.17-.49-.52-.24-1.21-.24-.35.24-1,1.46-2.26l.49-.52.24-1c-.24-.17-.24-.52,0-.87l.24-.17c-.24-.17-.49-.35-.24-.52h.49a.53.53,0,0,0-.24-.52,5.84,5.84,0,0,0,1-2.95.78.78,0,0,0,.24-1,.53.53,0,0,0,.24-.52c-.24,0-.24,0-.49-.17.24-.17.73-1.56,1-4h.49c0-.17.73-.52.73-1A4.13,4.13,0,0,0,55.77,33c-.24.17-.49.87-.49,2.08-.24.17-.24.17-.49,0V33.31a5,5,0,0,0-2.93-.69l-.24.17c-.73-.17-2-1.21-2.2-1.21v-.17h.73c0-.35.49-.69,1.22-1.21,0-.17.49-.52,1.22-.87,3.17-.17,5.13-.35,5.37-.17l.73.87c-.49,0,.49-.17,3.17-.35.73-.52,2.2-.69,4.4-.69a5.58,5.58,0,0,0,1.46.69c0,.17.24.17.49.35l1,.35h1a8.06,8.06,0,0,0,1.22.35v1.74a4.82,4.82,0,0,1-2,.87l-.24-.17a2,2,0,0,1-1,.17,1,1,0,0,0,.73.87v.52h-.73a.53.53,0,0,0-.24.52v.52l-1.22,1.73h-.24a1.17,1.17,0,0,1,.49.87,5.64,5.64,0,0,1-.49,1,5.74,5.74,0,0,0-.24,1.74.82.82,0,0,0,.24.69h-.73a2.49,2.49,0,0,1-.49,1.74v.52h.24v.17a2,2,0,0,0-.49,1.56h-.24c.24,1-.24,2.26-1.46,3.82v.17c0,.17,0,.17.24.35l-.24.17c-.24.17-.24.52-.24.87V54l-.73,2.26a1,1,0,0,0,.24.69c-.49,0-.73,0-.73.17.49.17.49.52.24.87.24.35.24.52,0,.69.24.52.24.87-.24,1a3.86,3.86,0,0,0,.49,1.56c-.24.17-.24.52,0,.87a8.1,8.1,0,0,1-1.22.35v.35c.24.17.24.17.49.17a1.15,1.15,0,0,1,.73-.17c.24.17.24.35.24.69a.68.68,0,0,0,0,1c-.24.17-.24.35-.24.69h-.49v.87h2l.49-.35.49-.52h2a7.25,7.25,0,0,1,1.71-.52c0,.17,0,.17.24.17H69c1.71-1.21,2.44-.87,3.66-2.08v-.52h-.49c0-.52.49-.69,1.71-.87,0-.87.24-1.21,1-1.39v-.69c0-.52.49-1,1.22-1.91V54.31c.24-.17.24-.69.49-1.21.24-.17.24-.17.24-.35a.42.42,0,0,1,0-.69c0,.35,0,.35.24.17a4.71,4.71,0,0,1,.24-1.39l.24-2.08h.24c0-.52.49-1.39.49-2.08a2.62,2.62,0,0,0,1.46-.35,1.4,1.4,0,0,0-1.22.17c-.49,0-.73-.35-.73-.87.73-.52,1-2.08,1.22-2.08-.24-.17-.24-.35,0-.69a1.16,1.16,0,0,1,.73-.17c0-.17-.24-.35-.73-.69l.73-1.91v-.52h-.24l.49-1.39a1.14,1.14,0,0,1,.73-.17V37c-.24,0-.49-.35-.73-.87l.73-.17v-.17h-.73l-.24-1.22c-.49-.17-.49-.52-.24-1l1,.35a.53.53,0,0,1,.24-.52,1.14,1.14,0,0,0-.73.17v-.69h.49l.24-.17-.73-.17-.24-3.12h.49A12.57,12.57,0,0,0,81.66,29h1.46l.24.17A1.15,1.15,0,0,1,84.1,29v.17l.24-.17c.24-.17.73,0,1.47.17,1.22,0,2.2-.17,2.44-.52a2.62,2.62,0,0,0,1.47-.35,12.57,12.57,0,0,1,1.46.35,15.66,15.66,0,0,0,2.44-.17,3.86,3.86,0,0,1,2.68,1.74,4,4,0,0,1,2,.87v.35l-.73.87a.82.82,0,0,1,.24.69,6.49,6.49,0,0,0-1.47.87,1.79,1.79,0,0,1-.49,1.39v.17a.53.53,0,0,1-.24.52v.52l-.49.35c-.73,2.26-1,3.12-1,2.26-.24.17-.24.69-.49,1.39-.24,0-.24,0-.49.17l-.49.35h-.73l.73.52v1h-.73v.35c0,.17,0,.17-.24.35v.17c.24,0,.24,0,.49.17v.52c-.73,0-1,.87-1,2.6l-.73.52L90.2,50c-.24,0-.24,0-.49-.17-.24.17-.24.17-.49.17.24.17.24.69.24,1.56.24.17.49.35.24.52a2.48,2.48,0,0,0-1-.17l-.49.35a1.91,1.91,0,0,1,.73.87V54h-.24a.53.53,0,0,0,.24.52.42.42,0,0,0,0,.69c.24.17,0,.35-.49.52l-.73.35c0,.17.24.35.49.52v.17H88c.24-.52.24.35.24,2.26-.24,0-.49,0-.49.17v1.56a1.7,1.7,0,0,0-1.22.69c-.24.52-.24.87.24,1a.53.53,0,0,1-.24.52c.24,0,.24,0,.24.17A1.74,1.74,0,0,1,87,64h.73v.87c.24,0,.24.17.49.35H89L89.23,67q.37.26,0,1a7.61,7.61,0,0,1,1.71.17,1.24,1.24,0,0,0,.49-1c-.49-.17,0-.69,1.46-1.39v-.35a2.52,2.52,0,0,0,1.46-.52h.49a12.71,12.71,0,0,1,1.46-2.26h.24v-.35c-.24,0-.24,0-.24-.17v-.35a4.42,4.42,0,0,1,1.22-1.39l.73-.87c-.24-.87-.49-1-.49-.87l.73-.17a2.86,2.86,0,0,1,1.22-2.26l-.49-.35.73-.52V54.13l.73-.17a11.52,11.52,0,0,1,.49-1.39h2a2.47,2.47,0,0,0,1.22.17,1.37,1.37,0,0,0,.49,1.21v.52c0,.17,0,.17-.24.17,0,.17,0,.17.24.35ZM51.13,64v-.17H50.4V64Zm.73-33.49c.24.17.24.17.24.35,0-.17,0-.17.24-.35ZM56,79.47l-.24-.17-.24.17Zm3.66-23.08c0-.35-.24-.52-.49-.69-.24,0-.24,0-.24.17v.35c-.24,0-.49.17-.49.69-.24,0-.24,0-.24-.17-.24-.35,0-.87.24-1.73V52.92c-.24-.35-.49-.69-.24-.87l1,.35v-.52q-1.46-.78-1.46-1l.73-1.74-.73-.17c0-.17,0-.17-.24-.17a.53.53,0,0,0-.24.52,6.66,6.66,0,0,0-.49,1.56c-.24.52,0,.69,0,.87a2.5,2.5,0,0,0-.49,1.74,2.25,2.25,0,0,0-.24,1c.73.52,1.22,1,1.22,1.21a1.14,1.14,0,0,0-.73.17c.24.17.24.17.24.35-.24,0-.24.52-.24,1.39.49.35.49.69.24.87V59h-.49v.35a4.22,4.22,0,0,0,1,.35l-.73,1,.49.52h.73v-.69h.73l-.24-.17V58.47c.24,0,.24-.17.24-.52a.53.53,0,0,1-.24-.52l.73-.17v.17l.24.17A5.58,5.58,0,0,0,59.68,56.39ZM58.95,54c.24.17.24.17.24.35,0-.17,0-.17.24-.35Zm.24-1.21v.35h.24c0-.17,0-.17.24-.35Zm.24,5.38L59.19,58v.17Zm2,3.82-.24-.17v.17Zm.49,2.78v-.35h-.49v.35Zm.73-13.36v-.17l-.24.17Zm2.2,17.7H63.1v.52c-.24.17-.24.17-.49.17l.73.69.73-.52a4.76,4.76,0,0,0,2.68-.87h.73c.24-.17.24-.17.24-.35C67,68.71,65.54,69.06,64.81,69.06ZM63.34,48.58c-.24,0-.24,0-.24.17s0,.17.24.17Zm.73,3.82c-.24,0-.24,0-.24.17l-.24-.17c0-.17,0-.17.24-.17Zm.49-22.56v.35c.24-.17.24-.17.24-.35Zm.73,18.39c0-.17,0-.17.24-.17C65.54,48.24,65.54,48.24,65.3,48.24Zm1-2.95c-.24-.17-.24-.17,0-.35,0,.17,0,.17.24.35Zm2.44-12.49v-.17h-.49v.17Zm3.18,32.1v-.35h-.24v.35Zm4.64-18.57V46c.24,0,.24,0,.49.17C76.77,46.15,76.77,46.15,76.53,46.33Zm2-7.29c0,.17,0,.17-.24.35V39Zm.24,39.56-.24-.17c-.24,0-.24,0-.24.17ZM79.46,38h-.24C79,38,79,38,79,37.83s.24-.17.49-.17Zm0,8v-.17h-.24v.35Zm.73-16.31.24.17c.24-.17.24-.17.49-.17A.58.58,0,0,0,80.19,29.67Zm.49,11.1-.24-.35v.35Zm.49,23.08v.52c.24-.17.49-.35.49-.52Zm2.44,13.88v-.35h-.24v.35Zm0-47.89V30c.24,0,.24,0,.24-.17Zm0,18.74v.35h.24c0-.17,0-.17.24-.35Zm.73,6.07v-.35H84.1v.35Zm.24-4.86h-.24a2.26,2.26,0,0,0,.24,1c.24,0,.24,0,.49-.17C85.32,50.32,85.32,50,84.59,49.8Zm1-.69v-.69l-1,.69v.52Zm-.73,3.3-.24-.17v.17Zm1.22,8.85v-.87c-.24,0-.24,0-.49.17-.24,0-.24.17,0,.35h.24v.35Zm1.22-18.39-.73-.17a.53.53,0,0,0-.24-.52h-.73V43a2,2,0,0,0,1,.17v.35a1.15,1.15,0,0,0,.73-.17Zm-1.22,20.3h-.49v-.35c0,.35,0,.69.24.87.24-.17.24-.17.49-.17C86.3,63.33,86.3,63.33,86.05,63.16Zm0-15.79h-.24v.35Zm0,14.58V61.6h-.24v.35ZM86.3,59h-.24v.17Zm.49-1.39v-.69a.82.82,0,0,0-.24.69Zm.73-5.55h-.24v.35c.24-.17.24-.17.49-.17ZM89,48.76a1.15,1.15,0,0,1-.73.17l.49.52h.49c.24-.17.24-.17.24-.35C89.23,48.93,89,48.93,89,48.76Zm-.24,7.64V56c0,.17,0,.17.24.35ZM89,76.52v-.35h-.24v.35Zm1.71-30.36c-.49-.35-.73-.52-1-.52v.17H89c.24.17.24.17.24.35l.49-.35.73.35Zm-1-17V29l-.24.17Zm.49,15.79c-.24-.17-.49-.17-.49-.35-.24.35-.24.52,0,.69.24-.17.24-.17.49-.17Zm0,22.38h-.49L90,67h.24Zm1-25.16h-.49c0,.17,0,.17.24.17Zm-.24,29.15h-.24c0,.17,0,.17.24.17Zm2.69-33.66V37.3a1.15,1.15,0,0,1-.73.17v.17Zm-.49.69V38h-.24v.35Zm0,1.56v-.35h-.24v.35Zm1-5.21v.17a1.15,1.15,0,0,0,.73-.17ZM96.8,69.23v-.35c-.24.17-.24.17-.24.35Zm3.42-4.86V64.2H100v.17Zm.49-7.64-.24-.17-.24.17.24.17Zm.24,6.59V63c-.24.17-.24.17-.24.35Zm1-8.85v-.35h-.24v.35Zm.49,3.12-.24-.17v.17Zm1.46-1.91v-.35h-.24v.35c-.24,0-.49.17-.24.35Zm-.49-1.56v.17c.24,0,.49,0,.49-.17Z"/><path class="cls-1" d="M156.63,39.21a13.19,13.19,0,0,0-1.71.35c.49.52.24,1.21-.73,2.26h-.49a2.88,2.88,0,0,1-.24,1.21l-.49.35L149.79,47c0,.35-.49.69-1.22.87v.52l-2.2,1.22a1.14,1.14,0,0,0-.73.17V50h-1.71V49.8a1.55,1.55,0,0,0-1,.17,9.85,9.85,0,0,0-2.2-.35,3.61,3.61,0,0,1-1.22-.17,2,2,0,0,0-.49-1.56v.17h-.49v-.87a5,5,0,0,0-1.22-1.73l-.24-.52a8.29,8.29,0,0,1-.24-2.78,1.15,1.15,0,0,1-.73-.17v-.52c.24-.17.24-.17.49-.17l.73-3.47.73-.52.49-1.21a1.16,1.16,0,0,1,.73-.17c-.24-.17,0-.52.49-.87v-.87a1.74,1.74,0,0,0,1-.69l1.22-.87v-.69h.24l.24.17v-.69c-.24-.17-.24-.17-.49-.17v-.17c.24.17.24.17.49.17L143.93,30a2.45,2.45,0,0,0-1.22-.17l-.24.17H142v.17c-1.22,0-2.2.35-2.44,1.21h.73c-.24.17-.24.52-.49.87a1.54,1.54,0,0,1-1-.17c-.24.17-.24.17-.49.17a1,1,0,0,0-1,0,5.37,5.37,0,0,1-2.2,1.74,2.4,2.4,0,0,1-1.46.69,3.49,3.49,0,0,1-.49,1.22c0,.17,0,.17.24.35a1.58,1.58,0,0,0-1.22,1,1.58,1.58,0,0,0-1.22,1c-.24,0-.73.35-1.22,1v.52H129a1.08,1.08,0,0,1-1.22,1.21c0,.17.24.52,1,1V43l-.49.69h-.49a1.58,1.58,0,0,1-1.22,1v.69l-.73.52c0,1.21,0,1.56-.24,1.21h-.49V49.1h-.73a.42.42,0,0,0,0,.69,6.65,6.65,0,0,0-1.22,3.3c.24,0,.24,0,.49.17v.35a6.44,6.44,0,0,0-1,1.56,2.25,2.25,0,0,0,.24,1c-.24,0-.24,0-.24.17v.69H122l-.73,3.82h-.49q.37.26,0,.52a.82.82,0,0,1,.24.69,1.21,1.21,0,0,0-.24,1.39,1.15,1.15,0,0,1,.73-.17v.35a1.16,1.16,0,0,1-.73.17,17.11,17.11,0,0,1-.49,3.3v1h-.73c-.24.17,0,.35.24.52v1.74l-1.22,1.91v2.26c.24.17.24.52.49,1l-.73.52c0,.69,0,1-.24,1.22,0,.52,0,.69-.24.69h-.49l-.73,1-.24.17c-1,0-1.46.52-5.13,1.21-.24.52-.73.52-1.71.35-.24,0-.24,0-.49.17h-2.44a4.25,4.25,0,0,1-1.47-.17c-1.71,0-2.93-.52-3.17-1.56h-.49a5.56,5.56,0,0,1,.49-1c.73-.17,1-.52,1.22-1.39l1-.87a6.16,6.16,0,0,1,.24-2.43c0-.17.24-.17.73-.17,0-1,0-1.56.24-1.56,0-.52.49-.87,1.22-1a1,1,0,0,0,.24-.69h.24a5.74,5.74,0,0,0,.24-1.74l.24-.17q-.37-.26,0-.52l.24-5H108v.17h.24q.36-.26,0-.52h-.49a.42.42,0,0,1,0-.69l.49-.69v-.69a1.22,1.22,0,0,1-.49-.69h.49a1.92,1.92,0,0,0,.73-2.26q-.37-2.08,0-2.6c-.24-.17,0-.35.24-.52v-.69A4.3,4.3,0,0,1,110.48,51c-.24-.17-.49-.17-.49-.35l.73-.52v-.52h-.49c.24-.17.24-.17.49-.17V49.1l-.49-.52.73-.17c0-1.73.24-2.6.49-2.78v-.87a1.24,1.24,0,0,0,.49-1V42.51c.24-.17.24-.52.49-1-.24-.35-.24-.52.49-.69,0-.17,0-.17.24-.35l-.73-.35c-.73.17-1,.35-1.22.35l-.24.69h-.73l-1.47.87-.49.35h-.49a3.1,3.1,0,0,1-1.46.69l-1,1.56a1.92,1.92,0,0,0-1.22.69h-.24c0,.35,0,.52-.24.69h-.73v.52h-.24c0,.17-.24.52-1,1,0,.69-.49,1.91-.49,2.6-.49.17-.73.87-.73,2.43q-.37,1.3-1.47,1l-.24-.17H98c0,.17-.24.17-.73.17a4.51,4.51,0,0,0-1.71-.69,1,1,0,0,1,.24-.69h-.24v-.69h.24v-.69a1.15,1.15,0,0,0,.73-.17c.24-.52.24-.87.49-.87,0-.87,0-1.39.24-1.56-.24-.17-.24-.52,0-.87h.49c.24-.69.24-1,.49-1,.24-1,.24-1.39.49-1A4.92,4.92,0,0,1,100,43.55a11.3,11.3,0,0,1,.49-1.74L102.17,39c.24-.35,0-.69-.49-.87l2.44-2.95a2.86,2.86,0,0,1,.24-1.21,17.43,17.43,0,0,0,2.2-2.6,1.58,1.58,0,0,0,1.22-1,1.15,1.15,0,0,0,.73.17C110.23,29.32,111,29,111,29.15l1-.52q.73-1,1.46-1v-.17h1.46v.17h.49c.24-.17.24-.17.24-.35a3,3,0,0,0,1.46-.17l1.22.52c0-.17,0-.17.24-.35a3.24,3.24,0,0,1,2.2,1l1,.17,1,.69c0,1.22.24,1.91,1,2.26.24.17.24.52.24,1-.24.52-.24.69,0,.87,0,1,0,1.56-.24,1.74.24.17.24,1,0,2.26,0-.17-.24-.17-.49-.17v.52s1.22-1.21,3.42-3.64a2.48,2.48,0,0,0,1-.17c0-.52,0-.87.24-1h.49a.82.82,0,0,1,.24-.69,1.82,1.82,0,0,0,1.71-1.39,6,6,0,0,0,1.71-.87,4.77,4.77,0,0,1,3.42-1.74c1.46-.69,2.2-1.21,2.2-1.74,0-.17.24-.35.73-.69h1a1,1,0,0,1,1-.52v.17c-.49,0,0-.17,1.47-.35,0-.17.24-.52,1-.69.24-.17.73,0,1.46.17,1.47.17,2,.17,1.71.17a1.23,1.23,0,0,1,1.22-.17,7.78,7.78,0,0,1,1.71,1,.53.53,0,0,1,.24.52h.49l.49.69h.24v.17c.24,0,.24,0,.49.17l.49.35h.24l1,1.21h.73c.24.17.24.69.49,1.56l1,.69c0,1,0,1.74.24,1.91-.24.17-.49.35-.49.69a2,2,0,0,1,1.46,0l.73.52-.49.35q.73.26.73,4.16ZM99.73,42c-.24,0-.24,0-.49.17v-.35h.24Zm.73,7.64v-.35h-.73c0,.17,0,.17.24.35Zm1-8V42c.24-.17.24-.17.24-.35Zm1.71-2.95v.52a.53.53,0,0,0,.24-.52Zm2,1.21-.73-.17c.24.35,0,.69-.49.87,0,.17,0,.17.24.35h1c.24-.17.24-.35.49-.35C105.35,40.25,105.1,40.08,105.1,39.91Zm.73-.52-.73-.69a.82.82,0,0,0,.24.69Zm0-5.55v-.35l-.24.17Zm1,.17h-.49c0,.17,0,.17.24.17Zm1.47,46.15H108c0,.17,0,.17.24.17Zm.49-48.58v-.35h-.24v.35Zm.49,34.7v-.35H109v.35Zm.24-11.1v.35c0-.17,0-.17.24-.17C109.5,55.35,109.5,55.35,109.5,55.18Zm1.71-.69-.24-.17v-.17c-.24,0-.24,0-.49.17.24.52,0,.69-.73.87v.17a3.61,3.61,0,0,1,1.22-.17v-.69ZM110,57.78h-.24a.53.53,0,0,0,.24.52Zm.73-4.16c-.24-.17-.24-.17-.49-.17v.17Zm2.69,20.13c0-.35-.49-.52-1.22-.35-1.22,0-1,1.22-2,1.39A1.42,1.42,0,0,0,111,76c-.24.35,0,1,.24,1.91a2,2,0,0,1,1-.17v-.52c0-.87.24-1.21.73-1.39a1.22,1.22,0,0,0-.24-1.39v-.35ZM110.72,80v-.17c-.24,0-.24,0-.49.17v.17h.24V80Zm1.71-34.36V46h.49a1.22,1.22,0,0,1,.49-.69A4.26,4.26,0,0,0,112.43,45.63Zm1.22,20.65v.52c.24,0,.24,0,.24-.17S113.89,66.28,113.65,66.28Zm1.22,1.21v-.35h-.49Zm.24-1c0,.17,0,.17.24.35C115.11,66.63,115.11,66.63,115.11,66.46Zm3.66,3.12V69.4c-.24,0-.24,0-.24.17Zm2-7.29.24-.17v.17Zm2.44-28.11v.17c.24,0,.24,0,.49-.17Zm.49,14.75v-.35h-.24v.17h-.24v.17Zm22.22-4a3.62,3.62,0,0,0-1.22.17V46c-.49.35-.49.52-.24.69v.52h.73a2.11,2.11,0,0,1,1.22-1c0-.52.24-.69.73-.69A1.49,1.49,0,0,0,145.88,44.94Zm.24-19.43-.24-.17v.17Zm.24,23.25c0-.17,0-.17-.24-.35v.35Z"/><path class="cls-1" d="M204.25,55.18,204,57.08l-.24.17c-.24.17-.49,1.21-.49,2.78-.24.17-.24.87-.49,1.91a.53.53,0,0,0-.24.52h.24c0,.17,0,.17.24.35l-.73.17.49.69L202,65.24v.87a2.69,2.69,0,0,1-1.22,1v1.21a17.7,17.7,0,0,0-2.68,3.12c0,.17-.24.17-.49.35a5.51,5.51,0,0,1-1.46,2.6v.69l-.73.35v.35l-1.71,1v.35a1.71,1.71,0,0,0-1,1A20.32,20.32,0,0,0,188.13,80a8.9,8.9,0,0,1-2.69.35l-.49.35h-1.71a4.13,4.13,0,0,0-2.44.17,5.93,5.93,0,0,0-1.47.17,13.89,13.89,0,0,0-2.68-.35,9.44,9.44,0,0,0-2.44-.52,10.15,10.15,0,0,1-2-.35h-1a4.59,4.59,0,0,0-1.71-.52,1.14,1.14,0,0,1-.73-.17l-1.22-.35c-.73-.17-2.44-.69-6.35-2.08H161c-2.93-.69-3.66-2.95-4.88-2.95v-1a5,5,0,0,0-1.22-.87v-.69h-.73a1.64,1.64,0,0,1-.24-1,1.42,1.42,0,0,1,.24-.87c0-.17-.24-.35-.49-.69,0-.87,0-2.6-.24-5.2,0-.17-.24-.17-.49-.35v-.35h.24c0-.69-1.22-2.78-1.22-4a6.15,6.15,0,0,1,.24-2.43h0c-.24,0-.24-.17-.24-.35l.24-.17c0-1,.24-1.56.49-1.74v-.17c-.24-.17-.24-.52-.24-.87a3.5,3.5,0,0,1,.49-1.21,2.87,2.87,0,0,1,0-2.08,4.25,4.25,0,0,0,.73-2.08V44.42h.24l.73-.69a1.63,1.63,0,0,0,.24-1.56,2,2,0,0,0,.49-1.56c.73-.17,1-.69.73-1.21-.24,0-.24-.17-.24-.35a4.34,4.34,0,0,0,.24-2.08c.73-.17,1-.69,1-1.56.24-.17.24-.52.49-1l1.47-.87h1l.73-.87a12.77,12.77,0,0,0,2.68-1.74l.73-.17A5.34,5.34,0,0,0,166.64,29a7.09,7.09,0,0,0,3.42-1.39,5.91,5.91,0,0,0,1.46-.17c0-.17,0-.17.24-.35,1.22-.17,1.71-.35,1.46-.35h.24a2.07,2.07,0,0,1,2-.87c0,.17.24.17.73.17a7,7,0,0,0,2.2-1.21h1.22l1.22.69c1.22-.17,1,.52,2,.52l.24-.17h3.66a3.5,3.5,0,0,0,2,.52l.73.52a2.56,2.56,0,0,1,2.44,1.39A3.81,3.81,0,0,1,194,30l.73.35,1,.35a1.38,1.38,0,0,1,.49,1.21c.73.52,1.22,1,1.22,1.39l1,.87V35a6.29,6.29,0,0,0,1.47,1.39,1,1,0,0,0,.73,1,.53.53,0,0,0,.24.52v1.56c-.24,0-.24.17-.24.35h.24v1.21l-.73.87a.53.53,0,0,1,.24.52,1.23,1.23,0,0,0-.73,1.21c-1,.17-1.46.69-1.46,1.39l-3.66,2.6a5.36,5.36,0,0,1-2,1v.87a2.46,2.46,0,0,0-1.47.87h-.49c0,.35-.24.52-.49.69-.24.52-.49.87-.73.69l-.24.35-2,1v.35c-1.22.35-1.71.87-1.71,1.39a22.4,22.4,0,0,0-4.4,2.43,5.93,5.93,0,0,0-1.46.17c0,.52-.24.69-1,.52h-1c0,.17,0,.17-.24.17l-1.46.35c-1,.17-1.46.35-1.71.35a12.57,12.57,0,0,0-1.46-.35c-.24,0-.49,0-.49.17s0,.17.24.17v4.34a.92.92,0,0,1,.49.87c.24,0,.24.17,0,.69a1.65,1.65,0,0,1,.49,1.21,1.22,1.22,0,0,0-.49.69,1.16,1.16,0,0,0,.49.87,4.7,4.7,0,0,1,.24,1.73l.73.35c.73.17,1.22.35,1.22.52a1.15,1.15,0,0,0-.73.17c0,.52.49.87,1.22,1,0,.17,0,.17.24.35,1.71.17,2.44.17,2,.35v-.35a1.49,1.49,0,0,1,1,.35l.49-.52a4.66,4.66,0,0,0,2.2-.35h.73l1-.35c.24-.17.49-.17.49-.35a5.33,5.33,0,0,0,2.44-1.73l1.47-1a1.55,1.55,0,0,1,1-.17q0,.52,1.46-1l1-.87c.24-.17,1.22-.69,1.46-1.21-.24,0,0-.52,1.22-1.56l1-1.39,1-.69V60c.49-.17.73-.17.73-.35a5.4,5.4,0,0,1,1.46-3.12l-.24-.35h-.49v-.69h.73a5.6,5.6,0,0,1,.49-1,1.15,1.15,0,0,1,.73-.17V54a4.5,4.5,0,0,1,1.22-.17v-.35h1c0-.17-.24-.35-.49-.52v-.69a4.53,4.53,0,0,1,3.66.87c0,.17.24.17.49.35ZM156.63,40.6v.52c0,.17,0,.17-.24.17v.17c.24,0,.24,0,.24.17a2.26,2.26,0,0,1,.24-1Zm1,25.33c0,.17,0,.17-.24.17a.53.53,0,0,1,.24.52.53.53,0,0,0,.24-.52Zm0-5.38v.17h.49a1.42,1.42,0,0,1,.24.87c.24-.17.24-.17.49-.17-.24-.17-.24-.17-.24-.35.49-.17.73-.35.73-.52Zm1.47-25.68V34.7h-.24v.17Zm.24,30.71a1.09,1.09,0,0,0,0-1.21h-.49a.53.53,0,0,0,.24.52c-.24.17-.24.35-.24.69Zm0-22.73c-.24.52-.49.69-.24.87a1.15,1.15,0,0,0,.73-.17C160,43,159.8,42.86,159.31,42.86Zm2.44,5.9v-.35h-1c0-.17,0-.17-.24-.35a2.91,2.91,0,0,1-1.22-.52c-.24,1.21,0,1.91.73,2.26q.73-.52.73-1Zm-2.44,17.18c0,.35,0,.52.24.35Zm1.71,5.2a.53.53,0,0,0-.24-.52h-.49v.17c0,.17,0,.17.24.35Zm0-34.35c.24.17.24.17.24.35,0-.17,0-.17.24-.35Zm3.42,37.65v-.35h-.24v.35Zm4.88-30.71h-.49a1.22,1.22,0,0,0,.49.69l-1,.52-.24.35c.24.17.24.17.49.17V46c-.24,0-.49,0-.49.17a6.13,6.13,0,0,0-.24,1.91h-.24a2.51,2.51,0,0,0,.49.87h.49a.53.53,0,0,1-.24-.52c.24-.52.24-1,.49-1.21h.24c0-1.56.24-2.6.73-2.95Zm-1.71,5.73v1c.49-.17.49-.52.24-1Zm3.91-21.69a1.14,1.14,0,0,0-.73.17v.52H171c.24-.17.24-.17.49-.17Zm0,31.23-.24-.17Zm0,4.51v-.87h-.24v.87Zm.73,2.6v-.17c-.24.17-.24.17-.49.17Zm1-36.44a1.42,1.42,0,0,0-.73.35v.35a1.53,1.53,0,0,0,1-.17A.53.53,0,0,1,173.23,29.67Zm-.73,15.62v.17c.24,0,.24,0,.49-.17Zm16.6-4.16V38.69a1.14,1.14,0,0,0-.73-.17l.73-.35a26.2,26.2,0,0,1-1.46-3.82l-1.46-2.43h-.24a1.73,1.73,0,0,1-.24-.87A10.2,10.2,0,0,1,183,30q-2.2.26-2.2,1a3.62,3.62,0,0,1-1.22.17c0,.52-.24.69-.73.69a1.43,1.43,0,0,0-.24.87L177.87,35a9.34,9.34,0,0,0-1.46,2.78.58.58,0,0,0,.24.87l-.24.17c-.24.52-.24.87-.49.87-.24.87-.73,1.39-1,1.39,0,.52.49.87.49,1-.24.17-.24.17-.49.17v1.39l-.49.87a45.23,45.23,0,0,1-1,4.69V51c-.24.17-.24.52-.49,1a.78.78,0,0,0,.24,1,1,1,0,0,1-.24.69v.35a3.72,3.72,0,0,0,2-.87,2.46,2.46,0,0,1,1.22-.17v-.17h.73a2.51,2.51,0,0,1,1.71-1c.24-.52,1-.87,2.2-.87v-.35l1.46-.52c2.93-.52,3.91-.69,2.93-.69a4.75,4.75,0,0,1,1.22-1.21v-.35h-.49c.24-.69.73-1,1-1,0,.52,0,.35-.24-.52l.73-.35c.24-.87.24-1.21.49-1.39-.24-.17-.24-.35-.24-.69h.24c0-.87,0-1.39.24-1.39q.37-.26,0-.52c.24-.17.24-.17.49-.17v-.69ZM175.67,28.8a1.69,1.69,0,0,0-1.22.69l-.73.17c-.24.69,0,1.21.49,1.39a1.15,1.15,0,0,1,.73-.17V30a1.15,1.15,0,0,1,.73-.17,11.51,11.51,0,0,0,.49-1.39C175.92,28.46,175.92,28.63,175.67,28.8ZM174,43h-.24c.24,0,.24,0,.24.17Zm1.71,27.76h-.24v-.17h.24ZM177.87,26v-.17h-.24v.35ZM181,51.88c-.24.17-.24.17-.24.35h-.73c0,.52-.49.87-1.22,1-.24.17-.24.35-.24.69.73-.17,1-.52,1-.69a3.74,3.74,0,0,0,2-.87C181.29,52.23,181,52.05,181,51.88Zm.24-25.68H181c.24,0,.24,0,.24.17Zm0,32.1-.24-.17h.24Zm2.69-.87-.24.17-.24-.17ZM184,80l-.24-.17V80Zm1-29.5a1.14,1.14,0,0,0-.73-.17c-.24.17-.24.35-.24.69a1.54,1.54,0,0,1,1-.17ZM197.65,67v-.69h-.49l-2.93,2.08c.49.35,0,.87-1.22,1.39a.53.53,0,0,1,.24.52l-.73.35a.53.53,0,0,0,.24.52,3.41,3.41,0,0,1-2.68,1.21l-.49.52-1.71.35A19,19,0,0,0,185,75h-.73c-.24.17,0,.35.24.52.24,0,.73-.17,1.71-.35l1-.17a1.91,1.91,0,0,1,.73-.87l.73-.52c1.46-.17,2.44,0,2.68.52l.49-.52.49-.35a1.9,1.9,0,0,0,1-1.56h.24a7.1,7.1,0,0,1,3.42-4.16.53.53,0,0,1,.24-.52ZM187.4,78.77a6.67,6.67,0,0,0-.49-1.91h-.49l-.24.17a5.74,5.74,0,0,1,.24,1.74Zm.73-41.12h-.73v-.17h.73Zm-.49,5-.24.17v-.35h.24Zm3.17,35.57c-.49-.17-.73-.17-1,0v.35h.73Zm1.47-.35-.24-.17-.24.17Zm2.93-31.75c0-.17,0-.17-.24-.17l-.24.17Zm.24,18c-.24-.17-.24-.17-.49-.17v.17Zm0-19.09h-.24c0,.17,0,.17.24.35Zm1.46-12.32h-.24c-.24.35-.49.52-.49.69l-.24.17a2,2,0,0,0,1-.17Zm0,11.8v-.17l-.24.17Zm0,17.53v-.35h-.24v.35Zm1,2.6a1.24,1.24,0,0,0-.49,1,1.42,1.42,0,0,0,1.22-.87A1.14,1.14,0,0,0,197.9,64.72Zm0-29.84V35c.24,0,.24,0,.24-.17Zm1,25c.24-.35.24-.52,0-.69Zm1-23.94-.24.35v-.35Zm0,1.56h-.24v.17Zm0,20h-.24v.35Zm1.22-4.16-.24.17v-.17Zm1.22,7.46v-.35h-.49c0,.17,0,.17.24.35Zm0-6.59c0,.17,0,.17.24.17Zm.73,3.47h-.24a1.42,1.42,0,0,0,.24.87ZM204,54l.24.17c0-.17,0-.17.24-.17Z"/><path class="cls-1" d="M255.53,53.79a4.63,4.63,0,0,1-.73,2.08v.52a3.15,3.15,0,0,1-.24,1.39l-.73.17q.73,0,.73.52-.37.26,0,.52v.69a1.15,1.15,0,0,0-.73-.17,6.47,6.47,0,0,1-.73,2.6c.24.17.24.17.24.35-.24,0-.24,0-.49.17v1.21a3.28,3.28,0,0,1-1.46.87,2.47,2.47,0,0,1,1,.17v.52c-.24,0-.24,0-.49.17v.35l.24.17-.73.87a2.49,2.49,0,0,1-.49,1.74.53.53,0,0,1,.24.52c-.73,0-1,.52-1.22,1.39-.73.17-1,.69-.73,1.74.24,0,.24,0,.24.17,0,.52-.73.87-.73,1-.73,0-2,.52-3.66,1.74-1,.17-1.22.69-1,1.21a3.62,3.62,0,0,0-1.22.17,7.07,7.07,0,0,1-3.17,1.39l-1.47.52a2,2,0,0,1-1-.17,21.07,21.07,0,0,1-2.2.35c-.24-.35-1-.52-2.44-.52l-1.46-.52h-1c-1.22-.52-1.46-1.91-2.2-1.91l-.24-.69a1.41,1.41,0,0,1-.73-1.21.82.82,0,0,1,.24-.69,1.79,1.79,0,0,1-.73-1.56,2,2,0,0,0-1-.17,4.33,4.33,0,0,1-.24-1.56c-.49-.17-.73-.69-1-1.21h-1c0-.52.24-.69.73-.87v-.52c-.24-.17-.24-.52-.24-1-.24-.17-.24-.52.24-.69a1.15,1.15,0,0,0-.73-.17,15.78,15.78,0,0,0-.24-3.3,7.66,7.66,0,0,1,.24-2.43,16.83,16.83,0,0,0-.24-2.6,1.17,1.17,0,0,1,1-1.21V55a4.4,4.4,0,0,0-1.22-1.39c0-.52,0-.87.24-1h-.24c0-.52.24-.69,1-.87a.53.53,0,0,0,.24-.52l3.17-1a7.7,7.7,0,0,0,3.66-.87,3,3,0,0,1,1.46-.17c0-.17,0-.17.24-.35h1.71l-.49-.52v-.52A2.2,2.2,0,0,0,235,46c.73-.17,1-.35,1.22-.87l.49-.35v-.69l1.22-1.22c0-.35,0-.52.24-.69.24-.52.24-1,.49-1.21-.24-1.21-.24-1.74,0-1.74l-.24-.17v-.52h.24V38c-.24-.35-.24-1.39-.49-3.3L236.48,33c-1.22,0-1.71,0-2,.17v.52a9.27,9.27,0,0,0-2.2,1.21,7,7,0,0,1-2,1.21c0,.17-.24.17-.49.17,0,.69-1.71,1.56-1.71,1.74h-.49v.69l-2.2,1.56a1.43,1.43,0,0,1-1,.87,3.6,3.6,0,0,1-1.71,1.56c.24.17,0,.52-.73.87,0,.17-.24.35-.49.52a4.05,4.05,0,0,0,.24,1.39l-1,.35c-1,.17-1.22.69-1,1.56h.24v.35h-.49v.69l.24-.35h.24c0,.17,0,.17.24.35-.73.17-1,1-1,2.43h-.24v.87h-.73v.69a1.15,1.15,0,0,1,.73.17l-.24.17h-.73v2.08a2.48,2.48,0,0,0-1,.17h.24v1c-.24.17-.49.35-.49.69l.24.17v1.56c-.73,0-1,.35-1.22,1a1.71,1.71,0,0,1,0,1.56h-.24a2.48,2.48,0,0,1-.24,1.39l-.49.17v.87c.24,0,.24,0,.49.17v.17L215,64l-.24,1.74a.53.53,0,0,0-.24.52,3.15,3.15,0,0,0,.24,1.39c0,1,0,1.39-.24,1.21h.24v.17c-.24.17-.24,1.21-.24,3.12-.24.17-.49.35-.49.52-.49,0-.73,0-.73.17h1a2.5,2.5,0,0,0,.24,1.39c-.73,0-1,.35-1,1.21v1.39l.73.35c-.24.17,0,.52.49.87q-.37.26,0,.52a7.74,7.74,0,0,1-1.22.35v.87a1.94,1.94,0,0,1-1-.17l-1.47.52a6.2,6.2,0,0,0-2.68,0,2,2,0,0,0-1,.17v2.95c.24,0,.24,0,.24.17-.73.52-1.22.87-1.22.69l-2,.35-.73-.52-.49-.17a.48.48,0,0,0-.49-.52v-.35c0-.17,0-.17.24-.17,0-.87,0-1.39-.24-1.56-.24,0,0-.17.24-.35l-.49-.69a5,5,0,0,1-1.71.17c-1,.52-1.47.69-1.47.35h-.73a7.72,7.72,0,0,1-2.69-1.21l-.24-.17v-.35c-.24,0,0-.35,1.22-1.21a8,8,0,0,1,1.22-.35v-.69a7.38,7.38,0,0,1,1.22-1.56V72.18l.24-4,.24-.17c-.24-.17-.24-.17-.24-.35s.24-.17.49-.17a.53.53,0,0,1-.24-.52,1.22,1.22,0,0,1,.49-.69v-.87h.24a10.09,10.09,0,0,1,.24-2.95,1.15,1.15,0,0,0,.73-.17,2.48,2.48,0,0,0,0-1.91c.24-.17.24-.69.49-1.21l.49-.52c-.24-.17-.24-.17-.24-.35s0-.35.24-.35a4.3,4.3,0,0,0,1-2.78l-.24-.17v-.17c.24-.17.24-.17.49-.17.49-.69.49-1.21.24-1.39v-.52a1.16,1.16,0,0,0,.73-.17v-1l1-2.08V48.24c0-.17.24-.35.73-.69V45.63a2.88,2.88,0,0,1,.24-1.21,1.16,1.16,0,0,0,.73-.17.53.53,0,0,1-.24-.52,5.55,5.55,0,0,1,.49-1.21l.24-2.78a4.16,4.16,0,0,0,.73-1.74c1.22-.87,1.46-1.39,1-1.91v-.17a3,3,0,0,1,1.46-.17l-1.22-.52a9.44,9.44,0,0,1,.49-2.08,1.41,1.41,0,0,1,.73-.35l-.49-.35c.24-.17.24-.17.49-.17V29.15l.73-1h.24v-1a.53.53,0,0,1,.24-.52V24.29l1-1.56a2.25,2.25,0,0,1,.24-1v-2.6a1.42,1.42,0,0,0,.73-.35L215,13h.49v-.17H215v-.17h.49a22.07,22.07,0,0,1,.49-3.3c-.24-.52-.24-.69,0-.87l.73-3.12a2.27,2.27,0,0,0-.24-1,1.15,1.15,0,0,1-.73.17l-1.22-.87v-1a6.32,6.32,0,0,0,2.93-.87h1.46l.49-.35c.24-.87.73-1.21,2-1.21a5.91,5.91,0,0,1,1.46.17V.52l2.93-.17a4.15,4.15,0,0,1,2,.35h.73a1.7,1.7,0,0,1,1.47-.52L231.11,0a5.91,5.91,0,0,1,1.46.17V.87h.24V.35c.73,0,1,.87.73,2.43a2.08,2.08,0,0,0-2.44,1.74,2.39,2.39,0,0,0-1.46.69h-.49a3.87,3.87,0,0,1-.49,2.43v.52h-.73c0,.35,0,.52.24.52l.24-.17v.35h-.24l-1,.87q.37.26,0,1c-.24,0-.24,0-.49.17H227l.24.35a3.77,3.77,0,0,1-.73,3.12v2.08a1.55,1.55,0,0,1-1,.17,2,2,0,0,1,1,.17v.69l-1,1.21v1.91l-.24,1.22h-.49v-.17h-.49c0,.35.24.69,1,.87q-.37,0,0,.52A16.7,16.7,0,0,1,224,25.33v1.21a1.15,1.15,0,0,1-.73-.17c0,.17-.24.17-.49.17v.35a2,2,0,0,1,1,.17v.35c-.24,0-.24,0-.49.17a1.65,1.65,0,0,1-.49,1.21v2.95c-.49.35-.49.52-.24.52a1.42,1.42,0,0,0,.24.87c-.49.17-.73.35-.73.69h.49v.35a5.35,5.35,0,0,0-1.71.52l.24.17.24.35a6.37,6.37,0,0,1,1.46-.35v.35a.53.53,0,0,0-.24.52h-.24v.17l.73-.35.73-.52c.24-.17.24-.52.24-1l1.71-1.21c.24-.17.49-.52.49-1.39A6.53,6.53,0,0,0,227.93,30a1.14,1.14,0,0,0,.73-.17v-.52a12.71,12.71,0,0,0,2.69-1.91l1-.35,1.47-.69.73-.35h1.22a19.43,19.43,0,0,0,2.68-1.74l1.71-.87.73-.52h.73l.49.17c0,.69-.49,1-1.22,1.21V25a6.14,6.14,0,0,1,2,.35h.49a1.39,1.39,0,0,1,1.22-.17l2,.87.49.35a1.7,1.7,0,0,1,1,1h1.22c0,.52.24.69.73.87a2.49,2.49,0,0,0,.49.87,2.71,2.71,0,0,0,.49,1.91c0,.87,0,1.21-.24.87h.49c0,.87,0,1.39.24,1.56a7.16,7.16,0,0,1-.24,2.08l-.49.35v1.56l-1,2.95c0,.17-.24.35-.49.52a7,7,0,0,1-1,3.3v.35l-2.93,4.51c-1,0-1.22,0-1-.17v.52a.53.53,0,0,1,.24.52l-.73,1-.49-.17v.69h-.24a1.71,1.71,0,0,1-1,1,1.84,1.84,0,0,1-1.22.87l-.49,1.21a3.24,3.24,0,0,0-2.2,1.74l-1,.17-.24.52h-.73v.52c-.49.17-.73.35-.73.69,0,.17.24.52.73.87a3.87,3.87,0,0,0,.49,1.56c-.24.17-.49.35-.24.52H237c.24.17.49.35.49.52-.24.17-.24.52-.49.87v.87c.24.17.24.52.24,1l.49.52c.49.17.73.52.73,1.22l.24.17a2.25,2.25,0,0,0,2,1.21l.73.17,1.46.87,1.22.17,1,.69h.49a5.42,5.42,0,0,0,1.22-2.26l1.46-2.6h.73v-.17c-.24,0-.49-.17-.49-.35.49-.35.49-2.08,2-3.82V59l.49-.35c.24-.52,1.22-2.26,1.46-2.26l.24-1.56a3.56,3.56,0,0,0,.73-1.91,2,2,0,0,0,1-.17l1.22.52Zm-58.12,25.5-.24-.17h-.24c0,.17,0,.17.24.17Zm2.93-6.94v.17c.24-.17.24-.17.24-.35Zm1.46-8V64.2l-.24.17Zm1.71-11.1h-.24v-.35h.24Zm0,5.2c0-.17,0-.17-.24-.17v.35Zm1,23.25c-.24,0-.24,0-.24.17.24,0,.24,0,.24.17Zm1.46-21v-.35c0,.17,0,.17-.24.35Zm4.4,7.11h-1.22v1.39a1.15,1.15,0,0,1,.73-.17v-.69l.49-.35Zm-.73-26.37v.17c0-.17,0-.17.24-.17Zm.24,26v.17c.24-.17.24-.17.24-.35C209.86,67.32,209.86,67.32,209.86,67.5Zm1-33.14V35c.24-.17.24-.35.24-.69ZM214.75,47l-.49.17c-.24.87-.24,1.39-.49,1.39.24.17.24.17.49.17,0,.17-.24.52-.73.69v1c-.73.52-1,1.56-1,3.47a3.49,3.49,0,0,0-.49,1.22h1.46l-.24-.17a1,1,0,0,1,.24-.69v-1A2.86,2.86,0,0,0,214.75,51l-.24-.17a7.69,7.69,0,0,0,.49-2.6,2.71,2.71,0,0,0,.49-1.91C215,46.5,214.75,46.67,214.75,47Zm-2.44,4c-.24,0-.24,0-.24-.17V51Zm.73-1.74h-.24c.24.17.24.17.24.35Zm2.69,7.46-.24-.17c0,.17,0,.17-.24.17Zm.24,1v-.17l-.24.17Zm0,5.38h-.24c0-.17,0-.17.24-.35ZM216,67c-.24,0-.24,0-.24-.17H216Zm5.62-57.08h-.24l-.49.69c0,1.39-.24,2.08-.49,2.08a3.66,3.66,0,0,1-.73,1.21,26.33,26.33,0,0,1-1,3.3V18c-.24.17-.24.17-.49.17,0,1-.24,1.74-.73,1.91-.24,2.08-.49,3.64-.49,4.86-.49.69-.73,1.21-.49,1.74a.53.53,0,0,0,.24.52h.24v-.17a5.74,5.74,0,0,0,.49-1.74h.49c-.24-.17-.24-.17-.24-.35h.24c0,.69,0-.17.24-2.43h.24a14.11,14.11,0,0,1,1-2.43,2.33,2.33,0,0,0,.73-1.39v-.35a8.11,8.11,0,0,1,1.22-2.26c0-.17,0-.17-.24-.17a18.63,18.63,0,0,0,.49-3.64c.24-.17.24-.52.24-.87A1.81,1.81,0,0,1,221.58,9.89Zm-3.66-3.82V5.38h-.49c-.24.17,0,.35.24.69Zm-.24,46.5v-.52h-.24v.52Zm.24-45.29V7.11c-.24,0-.24,0-.24.17Zm1,7.29c-.24,0-.24,0-.49-.17v.17Zm.24,41.12h-.24c-.24,0-.24,0-.24-.17h.24Zm2.2-16c-1.22.35-1.71.87-1.71,1.39l1-.87h.49c.24,0,.24,0,.24.17ZM219.88,52.4h-.24v-.17Zm2.2-13.53c-.73.17-1.22.35-1,.35-.24-.17-.24-.17-.24-.35v.69h.49a6.66,6.66,0,0,0,2-1.74c0-.17-.24-.35-.49-.52Q221.34,37.3,222.07,38.87Zm0-2.08-.24-.17c-.24,0-.24,0-.24.17Zm.24-.52c-.24-.17-.24-.17-.24-.35v.35Zm0,29.15-.24.17v-.35h.24Zm.49-54V11.1l-.24-.17v.52Zm.73,58.47c0,.17,0,.17-.24.35v-.35Zm.73-62.46V7.11H224v.35Zm2.44,57.43c-.24-.17-.24-.17-.24-.35h-.24v.35Zm2,3.64V67.15c-.73-.17-1-.52-1-.87h-1.22c0,.35.49.87,1.47,1.39v.87Zm-1-53.79-.24-.17h.24Zm1.22,48.93V61.77a8.49,8.49,0,0,1-.24-2.08V59h-.73a3.88,3.88,0,0,0-.24,1.74v.17c-.24.87-.24,1.21-.24,1h.24a2.25,2.25,0,0,1,.24,1c.24.52.24.69.49.87Zm-1-12.84V51c.24-.17.24-.17.24-.35Zm.49,15.1v-.17h-.49v.17Zm.49,2.78h-.73l.24.35c0,.17,0,.17-.24.17h-.24v.35a1.14,1.14,0,0,1,.73.17h.24V69.4l-.49-.17a1.15,1.15,0,0,1,.73-.17Zm-.49,1.56v-.35h-.49v.17c0,.17,0,.17.24.17Zm.24,4.16V75a1.42,1.42,0,0,0,.73-.35A1.15,1.15,0,0,0,228.67,74.44Zm1-2.6a.53.53,0,0,0-.24-.52h-.24a.53.53,0,0,0,.24.52Zm.49.52V72h-.49c0,.17,0,.35.24.35ZM230.38.69V1c.24-.17.24-.35.49-.35Zm.73,31.4v-.35h-.24v.35Zm.49,28.46v-.35h-.24v.35Zm.24,16.66V77c0,.17,0,.17-.24.17Zm1-1.21v-.17c-.24,0-.24,0-.49.17Zm-.24-1.74q-.37.26,0,1.56c.73-.35,1.46-.52,1.71-.35a2.06,2.06,0,0,0,1.71.17C236,75,233.06,74.44,232.57,74.26Zm.24-73V1h-.24v.17Zm5.37,52.23c-.73.35-1.22.69-1.22.87-1.22.17-1.71.52-2,.87v1.91c1-.69,1.46-1,1.22-1V55.7h.24c0-.87.49-1.39,1.71-1.39C238.43,54,238.43,53.62,238.19,53.44ZM236,64.2v-.35h-.24Zm2.2,5c-.49,0-.73-.17-.73-.35a2.46,2.46,0,0,0-1.22.17v.35c.24-.17.24-.17.49-.17l1.22,1c-.24.17-.24.52-.24.87h.49q0-.26.73-.52C238.92,69.92,238.19,69.4,238.19,69.23Zm-.73-13.71v-.17h-.24v.17Zm6.84-23.6c.24,0,.24-.17-.24-.52V30.19l-1.71-1c-.24-.17-.24-.35,0-.35-.24-.35-.73-.35-1.22-.17-.49-.35-.73-.69-.73-.87a1.14,1.14,0,0,1-.73.17c0-.17,0-.17-.24-.17H237.7a.53.53,0,0,0-.24.52,2.47,2.47,0,0,0,1,.17l1.71.69,2,1.39Zm-6.35,20.65h-.24v.17Zm.73,14.75v-.17h-1c0,.17,0,.17.24.17ZM248,36.44l-.49-.35c-.73.35-1,.69-1,.87s0,.17.24.17c0,1-.24,1.56-.49,1.73a.82.82,0,0,1,.24.69,1.24,1.24,0,0,0-.49,1h-.49c-.24,1.74-.49,2.78-.73,2.95-.24,1.21-.24,1.74-.49,1.74-.24.52-.49,1-1,1.21v.69l-1.71,1.74-1.22,1.91h-.24c0,.35,0,.52.24.69a14,14,0,0,0-2.2,1.21,1.17,1.17,0,0,0,1,.69q1.46-.52.73-.52v-.17a1.42,1.42,0,0,1,.73.35l.73-1v-.35h-.49c0,.69.49,0,1.22-2.08a2,2,0,0,0,1.47-1.74l.49-.17c0,.17,0,.17.24.35h.24a.53.53,0,0,1-.24-.52h-.24c.24-.17.24-.35.49-.35-.24-.52,0-.87.73-1.21l1-1.91c-.24-.17-.24-.17-.24-.35l.49-.35a5.74,5.74,0,0,0,.24-1.74H247v-.17c.24-.17.24-.17.49-.17l-.49-.52a3.19,3.19,0,0,0,.73-2.78V37Zm-7.33,33.83V70.1h-.24v.17Zm1-22-.24-.17v.17ZM242.34,76v-.17h-.24V76ZM246,73.74c0-.17-.24-.17-.49,0Zm1.47-38V35.4c-.24,0-.24.17-.24.35Zm.49,35-.24.17c.24,0,.24,0,.24.17.24-.17.24-.17.24-.35Zm1-31.4V39h-.49l.24.35Zm.24,29.5c-.24,0-.24,0-.24-.17l-.24.17Zm1.46-2.78h-.24c.24,0,.24,0,.24.17Zm.73-1h-.24c0,.17,0,.17.24.35Zm.73-5.9v-.35h-.24c-.24.17-.24.35-.49.35Zm-.24,4.34c.24-.17.24-.52,0-.87l-.24.17Zm1-1.56V61.6h-.24v.35Zm.49-4c0-.17,0-.17-.24-.17v.35Zm1-2.78v-.52h-.49v.52Zm-.24,1c0-.17,0-.35-.24-.35v.35Zm.49-1.91v-.52h-.24v.52Z"/><path class="cls-1" d="M323.9,54.66l-.25,1.56c-.73.17-1,.69-1.22,1.56h-.24l-.49.69c-.25.17-.25.87-.49,2.08a3.75,3.75,0,0,0-1,1.21v.87a2.34,2.34,0,0,0-1.46,2.08c-.74.52-1.22.87-1.22,1.39h-.74l-.24-.17c-.25.17-.25.17-.49.17,0,1.56-2.44,2.43-1.71,3.3a.82.82,0,0,0-.25.69h-.49c0-.17,0-.35-.24-.35a.53.53,0,0,1-.24.52q.36.26,0,1a2.89,2.89,0,0,1-1,1,3.63,3.63,0,0,0-.73,1.21c-.74,0-1,.17-1.22.69a8.1,8.1,0,0,0-3.17,1.56,34,34,0,0,1-3.66,1.39l-1.71.35c0,.35-.24.52-.49.69a1.69,1.69,0,0,0-1.46.52l-1.71.35-2.68-.35h-.25a1.15,1.15,0,0,0-.73.17c-.24,0-.24,0-.24-.17a11.57,11.57,0,0,1-2.44-.17v-.17h-.73a2.7,2.7,0,0,0-1.22-1l-.25-1.22A2.75,2.75,0,0,1,288,75c-1.22,0-1.22-1.91-1.47-2.08v-.35h-.73q0,.52-1.47,1.56h-.49a9.28,9.28,0,0,1-1.22,1.21v.35c-.25.17-.25.35-.25.69a1.44,1.44,0,0,0-1.22,1.39q1.47,0-2.93,1l-2.2.69h-1a10.3,10.3,0,0,1-3.17.35l-.25-.17a12.93,12.93,0,0,1-3.17.17,18.44,18.44,0,0,1-2.2-1,2.66,2.66,0,0,1-2-.35,1.19,1.19,0,0,1-1.22-.87c.24,0-.73-.52-3.42-1.56v-.87l-1.22-1h-.73v-.69a5.47,5.47,0,0,1-2.44-.87V72l.49-.17a4.56,4.56,0,0,0-1-2.6c0-.35,0-.52.24-.69l-.24-.52a1.14,1.14,0,0,1-.73-.17v-.69c.24-.17,0-.52-.24-1a1.42,1.42,0,0,1,.24-.87c.24,0,.24-.17.24-.35a1.43,1.43,0,0,0-.24-.87V62.81a8.48,8.48,0,0,0-.24-2.08,3.75,3.75,0,0,1,1-2.26c.24-.69.24-1.74.49-2.95l.24-.17q-.37-.26,0-1h-.24l1-2.43A8.24,8.24,0,0,1,256.5,50a6.36,6.36,0,0,1,1.22-2.08c0-.35.49-.87,1.22-1.56V45.11l1.22-.87a6.06,6.06,0,0,0,1.47-1.91c.24-.17.49-.69.73-1.91A1.44,1.44,0,0,0,263.59,39h.73v-.35c0-.35.49-.69,1.22-1.22,0-.17.49-.52,1.22-.69,0-.17.24-.52.73-.87a.53.53,0,0,1-.24-.52,1.14,1.14,0,0,1,.73-.17h.24c.73-.17,1-.52,1.22-1.21.24,0,.24,0,.49.17a4.24,4.24,0,0,1,2-1.74l2.68-1.74a3.42,3.42,0,0,1,1.71-1l3.66-.87a2.55,2.55,0,0,1,1.22.52,3.53,3.53,0,0,1,2.2.17l.49-.35a1.48,1.48,0,0,1,1.22.52l1-.17.73.52a3.24,3.24,0,0,1,2.69,1.39,2,2,0,0,1,1,.17l.49-.35c0-.17,0-.17-.25-.17a1.4,1.4,0,0,1,1.22-.17,3.52,3.52,0,0,0,.24-1.56l.24-.17a.53.53,0,0,1-.24-.52l5.62-1.21,2.2-.35a9.82,9.82,0,0,1,2.44-.35c0-.35,1.22-.69,3.66-.87.24-.17.49-.17,1.22,0a9.75,9.75,0,0,1,2.2-.35v-.17h2.2v.35a2.49,2.49,0,0,1,1,.17v2.08h-.49c0,.52-1,1.39-1,1.56A19.1,19.1,0,0,0,308.76,34c-.49.35-.74.69-.74.87a.53.53,0,0,0,.25.52,1.43,1.43,0,0,1-.73.35A8.19,8.19,0,0,1,307.3,38c-.24.17-.24.69-.24,1.39-1.22.17-.49,1.21-1.22,1.74v1h1a3.68,3.68,0,0,1,.74,1.21l-.74,1.39c-.49,0-.73.35-.73,1,0,.35,0,.69.24.87l-1,1.21.24.35a3.17,3.17,0,0,0-.73,1.56v1c.24.35-.25,1-1,2.08v1.39l-.73,1c.24.17.24.17.24.35l-.24.17c.24,0,.24.17.49.35v.35c-.25.17-.49,1-1,2.95a8.63,8.63,0,0,0-.73,3.12,2.24,2.24,0,0,0-.25,1c0,.52.25.69.73.87,0,.35.49.52,1.22.69v.17c-.74.17-1.22,1.39-1.22,4l.25.17,1.22-.87c0-.17.24-.35.73-.52v-.52l1-.52.49-.52,1.22-1a1.41,1.41,0,0,0,.25-.87H308a2.41,2.41,0,0,1,1.47-.69c0,.52.49-.17,1.47-1.91v-.17c.24.17.24.17.49.17l.73-1.21c.24-.17.24-.17.49-.17a9.34,9.34,0,0,1,.49-2.08,10.85,10.85,0,0,1,.24-3.12l.24-.17a2.28,2.28,0,0,1-.73-1.91,3.58,3.58,0,0,0,1.71-.69l1-.69h1c.24-.17,1.22-.35,3.42-.35.73-.17-.25-2.26,1.46-2.26a3.14,3.14,0,0,1,.49,1.39c-.24.17-.24.35-.24.69a6.31,6.31,0,0,0,1.47.35h.48a2.33,2.33,0,0,0,1.22.35v.52h-.25v.35h.25a1.43,1.43,0,0,0,.24.87Zm-65,11.8c0-.17,0-.17-.24-.35v.35Zm0,6.77c-.24,0-.24,0-.24-.17v.35Zm4.15-28.46v-.35h-.49v.35Zm2.93-5.9h-.24V39Zm2.44,23.25v.17c.24,0,.49,0,.49-.17Zm23.44-22.21c0-.52-.49-.87-1.22-.87-.49-.17-.73-.17-.73,0h-.49v-.35c-1.22-.52-1.71-.87-1.71-1A1.94,1.94,0,0,0,286.3,37v-.52h.24l-1-1a14.8,14.8,0,0,1-2-.35v-.52h-1.47a3.39,3.39,0,0,0-1,.69c0,.69,0,1-.24,1.21h-.49c-.49.17-.73.52-.73,1.21h-.49l-.73,1a1.16,1.16,0,0,0-.74.17v.35a3.6,3.6,0,0,1,1.22.17,1.65,1.65,0,0,1-.48,1.21c-1.47.17-2.2.52-2.2,1.39,0,.17,0,.17.24.17l-1.22,1.56a3.18,3.18,0,0,1-.74,1.56l-.24,1.21c-.24.17-.24.69-.24,1.39l-.74.35.25.17c-.25.17-.25.17-.49.17a.53.53,0,0,1,.24.52c-.24.17-.24.17-.49.17-.24.87-.48,1.21-.73,1.21v.17h.25v.52l-1,1.56v.69h-.49c0,.52-.24.69-.49.69.73.87,1.22,1.22,1.22,1.39-.24.17-.24.17-.24.35q-1.1.52-.73,2.08a1.91,1.91,0,0,0,.24,1.21v.17l-.24.17V60.9a5.52,5.52,0,0,0-.49,1h-.73v.35h.73v.52h-.73c-.24.17-.24.52,0,.87h.24V64h-.24a.62.62,0,0,0,.24.87,2.28,2.28,0,0,0-.24,1.91h.24v-.17c.24,0,.49.35.73,1.21-.24.17-.24.17-.24.35.24,0,1,1.21,1.22,1.21a.53.53,0,0,1-.24.52h.24l.49.52c0,.17,0,.17.24.35l.49.35c.73.87,2,1.39,3.91,1.39V73a16.84,16.84,0,0,1,2.2-.35c1.47-.17,2.2-.52,2.44-1a1.43,1.43,0,0,0,.74-.35l-.25-.17a2.19,2.19,0,0,1,1.47-1.21c-.25-.17-.25-.17-.25-.35s.25-.52.74-.69v-.69a11.42,11.42,0,0,0,2-2.08c-.24-.17-.49-.35-.49-.52a1.49,1.49,0,0,1,1-.35,4.63,4.63,0,0,1,1.47-1.73H288c-.25-.52-.25-1,.24-1.22V60.56c-.24-.17-.24-.52,0-.87a2.45,2.45,0,0,1-1.22.17v-.17h-1c0-.17,0-.17-.24-.35A12.19,12.19,0,0,1,287,55.18a1.73,1.73,0,0,1-.25-.87,13.59,13.59,0,0,1,.25-2.78q.36-.26,0-1c.49-.52.73-.87.73-1-.24-1.21,0-1.91.49-2.08V45.81l.73-.35q-.36-.26,0-.52c0-.52.49-1.91.49-2.43-.49,0,.25-.52,2-1.39V40.6h-.25v.35h-.24a2.24,2.24,0,0,1-.25-1ZM271.4,57.08c0,.17,0,.17-.24.35v-.35Zm.73-16.83c-.49.35-.49.69-.24.87h.24c.25-.17.25-.52.49-.87Zm2.2,3.82v-.35h-.24v.35Zm2.2,32.27v-.52a9.39,9.39,0,0,0-2.2.17,1,1,0,0,1,.24.69Zm.73,1.91v-.17l-.24.17v.17Zm2.44-7.11-.25.17v-.17Zm.73-41.47c-.24,0-.24,0-.24.17v.35c0-.17,0-.17.24-.17Zm2.69,9.72c-.25,0-.25,0-.25.17v-.17l.25-.17Zm0,27.07-.25.17v-.17Zm1.22-32.1v-.17c-.24,0-.24,0-.49.17Zm-.24,36.44v-.17c-.25,0-.25,0-.25.17ZM285.32,35V34.7h-.25V35Zm0,37h-.25v.17Zm2-41.3v-.35H287v.35ZM289,37.3h-.24v.17Zm.25,8.85c0-.17,0-.17-.25-.35h-.24v.35Zm1,31.06V77l-.48.17Zm2.69-44.07c0-.35-.24-.52-.49-.69h-1l1.22.69Zm-.73,21.17a1.09,1.09,0,0,0,0,1.21c.73-.17.73-.52.49-1C292.4,54.31,292.4,54.31,292.16,54.31Zm.49-19.78V34a.53.53,0,0,0-.25.52Zm2,8.85V43.2h-.24v.35Zm.74-.35v-.35c-.25.17-.25.17-.49.17V43ZM297,70.45c-.25-.52-.25-.87-.49-1l-.73-.35c-.25.17-.25.17-.49.17.24,1.56.24,2.6.49,2.78v.17c.48,0,.73-.52,1-1.56a1.16,1.16,0,0,1,.74-.17Zm-.49,2.6a3.39,3.39,0,0,0-1-.69h-.24c0,.87,0,1.39.24,1.56a2,2,0,0,0,1-.17Zm.73-29.67-1-.35-.24.52h.24v1a2,2,0,0,0,1-.17Zm0,2.26c-.73.17-1,.52-1,.87ZM297,69.06v-.52h-.25v.52Zm1.46-35.57a1.94,1.94,0,0,0-1-.17c-.25.35-.25.52,0,.69Zm0,14.92a.53.53,0,0,0-.24.52c.24,0,.49,0,.49-.17S298.75,48.58,298.5,48.41Zm1.22,9.37c0-.17,0-.17-.25-.35H299c-.24,0,0,.17.49.35Zm.48-5.38-1,.35v.35a2.47,2.47,0,0,1,1-.17Zm0,1.21v-.52c-.24,0-.48.17-1,.52v.52ZM300,50.84v.35c.24-.17.24-.17.49-.17C300.21,50.84,300.21,50.84,300,50.84Zm1.47-6.25a.73.73,0,0,0-1,.35c.24.17.24.17.49.17l-.49.69v1.74l.49.35c.24-.17.24-.17.49-.17,0-.52,0-.87-.25-1a5.5,5.5,0,0,0,.49-1.21A1.43,1.43,0,0,0,301.44,44.59Zm-.74,3.82c-.24.17-.24.52,0,.87h.25c.24-.17.24-.35.24-.87Zm.74-4.51v-.17h-.25Zm1.46,32.79-.24-.17v.35Zm1.22-28.8c-.24,0-.24,0-.24.17v.17c.24-.17.24-.17.49-.17Zm-.24.35v.17c.24,0,.24,0,.24-.17Zm.73,27.24-.24-.17v.35Zm2.69-.35V75a1.14,1.14,0,0,0-.73.17Zm0-47.37h-.24v.17Zm1.71,1c-.73.17-1.22.35-1.22.52a3.62,3.62,0,0,1,1.22-.17Zm.49,5.55c0,.17,0,.35-.24.35v-.35Zm1-1.74H310v-.17h.49ZM317.8,52.4h-.24c0,.17,0,.17.24.17Z"/><path d="M10.77,95.3v1.1H5.95v11.42H4.86V96.4H0V95.3Z"/><path d="M20.88,101.19H13.34v6.63H12.26V95.3h1.08v4.79h7.54V95.3H22v12.52H20.88Z"/><path d="M24.78,107.82V95.3H32v1.1H25.86v3.52H30V101H25.86v5.7h6.59v1.1Z"/><path d="M52,100s0,.09,0,.18,0,.17,0,.22v.17a2,2,0,0,1,0,.3v.34a9.45,9.45,0,0,1-.12,1.51,5.26,5.26,0,0,1-1.38,2.94,6.61,6.61,0,0,1-3,2,6,6,0,0,1-4.21-.25,6.51,6.51,0,0,1-2-1.4,6.75,6.75,0,0,1-1.37-2,6,6,0,0,1-.5-2.44A6.1,6.1,0,0,1,40,99.07a6.56,6.56,0,0,1,3.41-3.42,5.92,5.92,0,0,1,2.4-.5,6.12,6.12,0,0,1,1.37.16,8.47,8.47,0,0,1,1.52.52l-.44,1.06a7.33,7.33,0,0,0-1.33-.49,4.62,4.62,0,0,0-1.1-.15,4.92,4.92,0,0,0-2.06.44,5.3,5.3,0,0,0-1.66,1.18,5.54,5.54,0,0,0-1.1,1.7,5.12,5.12,0,0,0-.4,2,5.06,5.06,0,0,0,.43,2.08,5.41,5.41,0,0,0,2.81,2.79,4.9,4.9,0,0,0,2,.41,4.58,4.58,0,0,0,1.42-.23,5.4,5.4,0,0,0,1.33-.65,5.92,5.92,0,0,0,1.15-1,5.53,5.53,0,0,0,.86-1.31,10,10,0,0,0,.31-1.16,5.9,5.9,0,0,0,.14-1.23.08.08,0,0,0,0,0,.14.14,0,0,1,0-.06H46.45V100Z"/><path d="M55.37,103v4.77H54.28V95.3h3.58a3.52,3.52,0,0,1,1.51.32,4,4,0,0,1,1.2.87,4.15,4.15,0,0,1,.81,1.23,3.64,3.64,0,0,1,.29,1.44,4.21,4.21,0,0,1-.15,1.12,3.6,3.6,0,0,1-.46,1,3.79,3.79,0,0,1-1.69,1.42l.77,1,.77,1,2.39,3.12H61.92L58.23,103Zm0-6.65v5.55h2.5a2.68,2.68,0,0,0,2.52-1.69,2.83,2.83,0,0,0,.21-1.08,2.76,2.76,0,0,0-.21-1.07,2.85,2.85,0,0,0-.57-.88,2.64,2.64,0,0,0-.87-.6,2.69,2.69,0,0,0-1.08-.22Z"/><path d="M64.88,107.82V95.3h7.26v1.1H66v3.52h4.16V101H66v5.7h6.59v1.1Z"/><path d="M78,94.86l5.23,12.88-.42.11-.25.07-.18,0-.2,0-2.11-5H75.92l-1,2.41-.55,1.31q-.28.68-.51,1.29l-.33-.08-.71-.16ZM79.67,102q-.21-.65-.65-1.77t-1-2.68L76.32,102Z"/><path d="M94.37,95.3v1.1H89.54v11.42H88.46V96.4H83.6V95.3Z"/><path d="M96,107.82V95.3h7.26v1.1H97.09v3.52h4.16V101H97.09v5.7h6.59v1.1Z"/><path d="M114.05,104.33a3.17,3.17,0,0,1-.37,1.55,3.39,3.39,0,0,1-1,1.13,4.69,4.69,0,0,1-1.48.7,6.61,6.61,0,0,1-1.8.24,8.06,8.06,0,0,1-.89-.06c-.33,0-.67-.09-1-.16s-.7-.15-1-.25-.68-.2-1-.31l.46-.91.61.13.53.13.65.13.68.11a4.65,4.65,0,0,0,.63,0h.78a4.14,4.14,0,0,0,1.2-.17,3.16,3.16,0,0,0,1-.5,2.46,2.46,0,0,0,.69-.82,2.34,2.34,0,0,0,.26-1.11,1.57,1.57,0,0,0-.13-.59,2.62,2.62,0,0,0-.28-.53v0a2.37,2.37,0,0,0-.6-.58,2.85,2.85,0,0,0-.68-.33,4,4,0,0,0-.74-.16l-.77-.08q-.65,0-1.31-.12a3.12,3.12,0,0,1-1.27-.47v0a3.09,3.09,0,0,1-1.13-1.1,3,3,0,0,1-.45-1.63,2.88,2.88,0,0,1,.92-2.15,4.89,4.89,0,0,1,2.46-1.22h0l.67-.08a9.59,9.59,0,0,1,1,0,4.49,4.49,0,0,1,.7.07l.83.16c.29.06.57.14.85.22l.76.26-.44,1-.9-.29a6.94,6.94,0,0,0-.78-.19l-.72-.1a6.8,6.8,0,0,0-.73,0,5.42,5.42,0,0,0-1.21.14,4.35,4.35,0,0,0-1.13.43,2.58,2.58,0,0,0-.85.74,1.78,1.78,0,0,0-.33,1.08,1.47,1.47,0,0,0,.08.45,2.31,2.31,0,0,0,.21.46,3.38,3.38,0,0,0,.3.44,1.84,1.84,0,0,0,.36.34,2.79,2.79,0,0,0,1,.39q.54.09,1.1.12a10.22,10.22,0,0,1,1.4.19,4.26,4.26,0,0,1,1.4.55,3.16,3.16,0,0,1,.62.54,3.84,3.84,0,0,1,.48.68,3.72,3.72,0,0,1,.31.75A2.74,2.74,0,0,1,114.05,104.33Z"/><path d="M125.95,95.3v1.1h-4.83v11.42H120V96.4h-4.86V95.3Z"/><path d="M142.59,104.33a3.17,3.17,0,0,1-.37,1.55,3.39,3.39,0,0,1-1,1.13,4.68,4.68,0,0,1-1.48.7,6.62,6.62,0,0,1-1.8.24,8.06,8.06,0,0,1-.89-.06c-.33,0-.67-.09-1-.16s-.7-.15-1-.25-.68-.2-1-.31l.46-.91.61.13.53.13.65.13.68.11a4.64,4.64,0,0,0,.63,0h.78a4.14,4.14,0,0,0,1.2-.17,3.15,3.15,0,0,0,1-.5,2.45,2.45,0,0,0,.69-.82,2.33,2.33,0,0,0,.26-1.11,1.58,1.58,0,0,0-.13-.59,2.6,2.6,0,0,0-.29-.53v0a2.36,2.36,0,0,0-.6-.58,2.85,2.85,0,0,0-.68-.33A4,4,0,0,0,139,102l-.77-.08q-.65,0-1.31-.12a3.12,3.12,0,0,1-1.27-.47v0a3.1,3.1,0,0,1-1.13-1.1,3,3,0,0,1-.45-1.63,2.88,2.88,0,0,1,.92-2.15,4.89,4.89,0,0,1,2.46-1.22h0l.67-.08a9.58,9.58,0,0,1,1,0,4.5,4.5,0,0,1,.7.07l.83.16c.29.06.57.14.85.22l.76.26-.44,1-.9-.29a6.94,6.94,0,0,0-.78-.19l-.72-.1a6.81,6.81,0,0,0-.73,0,5.42,5.42,0,0,0-1.21.14,4.36,4.36,0,0,0-1.13.43,2.57,2.57,0,0,0-.84.74,1.78,1.78,0,0,0-.33,1.08,1.47,1.47,0,0,0,.08.45,2.29,2.29,0,0,0,.21.46,3.38,3.38,0,0,0,.3.44,1.84,1.84,0,0,0,.36.34,2.79,2.79,0,0,0,1,.39q.54.09,1.1.12a10.23,10.23,0,0,1,1.4.19,4.26,4.26,0,0,1,1.4.55,3.14,3.14,0,0,1,.62.54,3.79,3.79,0,0,1,.48.68,3.69,3.69,0,0,1,.31.75A2.74,2.74,0,0,1,142.59,104.33Z"/><path d="M154.49,95.3v1.1h-4.83v11.42h-1.08V96.4h-4.86V95.3Z"/><path d="M162,95.18a6.13,6.13,0,0,1,2.47.5,6.46,6.46,0,0,1,2,1.37,6.42,6.42,0,0,1,0,9,6.48,6.48,0,0,1-2,1.37,6.11,6.11,0,0,1-2.47.5,6.22,6.22,0,0,1-2.49-.5,6.38,6.38,0,0,1-3.4-3.4,6.36,6.36,0,0,1,0-5,6.38,6.38,0,0,1,3.4-3.4A6.24,6.24,0,0,1,162,95.18Zm5.25,6.38a5.24,5.24,0,0,0-1.53-3.73A5.38,5.38,0,0,0,164,96.7a5.07,5.07,0,0,0-2-.42,5.17,5.17,0,0,0-2.07.42,5.3,5.3,0,0,0-2.82,2.8,5.28,5.28,0,0,0,0,4.12,5.3,5.3,0,0,0,2.82,2.8,5.19,5.19,0,0,0,2.07.42,5.09,5.09,0,0,0,2-.42,5.39,5.39,0,0,0,1.67-1.13,5.27,5.27,0,0,0,1.12-1.67A5.21,5.21,0,0,0,167.23,101.56Z"/><path d="M171.91,103v4.77h-1.08V95.3h3.58a3.53,3.53,0,0,1,1.51.32,4,4,0,0,1,1.2.87,4.14,4.14,0,0,1,.8,1.23,3.64,3.64,0,0,1,.29,1.44,4.23,4.23,0,0,1-.15,1.12,3.62,3.62,0,0,1-.46,1,3.79,3.79,0,0,1-1.69,1.42l.77,1,.77,1,2.39,3.12h-1.39L174.78,103Zm0-6.65v5.55h2.5a2.68,2.68,0,0,0,2.52-1.69,2.82,2.82,0,0,0,.21-1.08,2.75,2.75,0,0,0-.21-1.07,2.86,2.86,0,0,0-.57-.88,2.65,2.65,0,0,0-.87-.6,2.69,2.69,0,0,0-1.08-.22Z"/><path d="M181.43,107.82V95.3h7.26v1.1h-6.17v3.52h4.16V101h-4.16v5.7h6.59v1.1Z"/><path d="M197.43,95.3v12.52h-1.08V95.3Z"/><path d="M210,95.26V108l-8.4-10v9.82H200.5V95.09l8.4,10V95.26Z"/><path d="M230.52,95.3v1.1H225.7v11.42h-1.08V96.4h-4.86V95.3Z"/><path d="M240.63,101.19h-7.54v6.63H232V95.3h1.08v4.79h7.54V95.3h1.08v12.52h-1.08Z"/><path d="M244.53,107.82V95.3h7.26v1.1h-6.17v3.52h4.16V101h-4.16v5.7h6.59v1.1Z"/><path d="M266.66,95.43l1.16,2.74.45-1c.15-.32.27-.61.37-.86l.36-.82,1,.44-1.56,3.67q.32.78.66,1.45t.67,1.33c.23.44.45.88.67,1.34s.45.95.67,1.48l.55-1.25q.32-.72.69-1.52t.75-1.65q.38-.86.76-1.65l1.81-3.91,1,.46L271.11,108l-3.29-7-3.25,7L259,95.64l1-.46,4.56,10,2.66-5.62q-.38-.91-.79-1.86l-.79-1.86Z"/><path d="M284.55,95.18a6.13,6.13,0,0,1,2.47.5,6.46,6.46,0,0,1,2,1.37,6.42,6.42,0,0,1,0,9,6.48,6.48,0,0,1-2,1.37,6.11,6.11,0,0,1-2.47.5,6.22,6.22,0,0,1-2.49-.5,6.38,6.38,0,0,1-3.4-3.4,6.36,6.36,0,0,1,0-5,6.38,6.38,0,0,1,3.4-3.4A6.24,6.24,0,0,1,284.55,95.18Zm5.25,6.38a5.24,5.24,0,0,0-1.53-3.73,5.38,5.38,0,0,0-1.67-1.13,5.07,5.07,0,0,0-2-.42,5.17,5.17,0,0,0-2.07.42,5.3,5.3,0,0,0-2.82,2.8,5.28,5.28,0,0,0,0,4.12,5.3,5.3,0,0,0,2.82,2.8,5.19,5.19,0,0,0,2.07.42,5.09,5.09,0,0,0,2-.42,5.39,5.39,0,0,0,1.67-1.13,5.27,5.27,0,0,0,1.12-1.67A5.21,5.21,0,0,0,289.8,101.56Z"/><path d="M294.48,103v4.77h-1.08V95.3H297a3.53,3.53,0,0,1,1.51.32,4,4,0,0,1,1.2.87,4.14,4.14,0,0,1,.8,1.23,3.64,3.64,0,0,1,.29,1.44,4.23,4.23,0,0,1-.15,1.12,3.62,3.62,0,0,1-.46,1,3.79,3.79,0,0,1-1.69,1.42l.77,1,.77,1,2.39,3.12H301L297.35,103Zm0-6.65v5.55H297a2.68,2.68,0,0,0,2.52-1.69,2.82,2.82,0,0,0,.21-1.08,2.75,2.75,0,0,0-.21-1.07,2.86,2.86,0,0,0-.57-.88,2.65,2.65,0,0,0-.87-.6A2.69,2.69,0,0,0,297,96.4Z"/><path d="M312.18,106.71v1.1H304V95.3h1.08v11.42Z"/><path d="M317.4,95.3a6,6,0,0,1,2.43.49,6.33,6.33,0,0,1,2,1.35,6.46,6.46,0,0,1,1.34,2,6.22,6.22,0,0,1,0,4.86,6.32,6.32,0,0,1-3.32,3.33,6,6,0,0,1-2.43.49h-3.88V95.3Zm5.16,6.27a5,5,0,0,0-.41-2,5.24,5.24,0,0,0-2.76-2.76,5,5,0,0,0-2-.41H314.6v10.32h2.78a5.16,5.16,0,0,0,3.66-1.5,5.31,5.31,0,0,0,1.11-1.63A4.94,4.94,0,0,0,322.56,101.56Z"/></g></g></svg>