<svg xmlns="http://www.w3.org/2000/svg" viewBox="0 0 236 150"><defs><style>.cls-1{fill:#231f20;}.cls-2{fill:#6d5a75;}.cls-3{fill:#38b7b7;}</style></defs><title>Asset 1</title><g id="Layer_2" data-name="Layer 2"><g id="logo"><path class="cls-1" d="M4.77,135v11.51H2.53V135H0V133.1H7.3V135Z"/><path class="cls-1" d="M13.93,146.55v-6.08a7.16,7.16,0,0,0,0-.73,2.46,2.46,0,0,0-.16-.67,1.13,1.13,0,0,0-.36-.48,1,1,0,0,0-.62-.18,1.29,1.29,0,0,0-1.15.72,3.54,3.54,0,0,0-.43,1.82v5.6H9V132.19h2.15v6.17h0a3,3,0,0,1,.85-1.28,2.17,2.17,0,0,1,1.51-.54,2.28,2.28,0,0,1,1.29.33,2.2,2.2,0,0,1,.76.88A4.16,4.16,0,0,1,16,139a11,11,0,0,1,.09,1.45v6.08Z"/><path class="cls-1" d="M20.71,142.26a4.87,4.87,0,0,0,.11,1.07,3,3,0,0,0,.33.87,1.84,1.84,0,0,0,.53.59,1.25,1.25,0,0,0,.73.22,1.22,1.22,0,0,0,.94-.38,3,3,0,0,0,.56-.87l1.58.91a3.86,3.86,0,0,1-1.19,1.61,3.11,3.11,0,0,1-2,.6,3.26,3.26,0,0,1-2.72-1.33,6.15,6.15,0,0,1-1-3.82,7.92,7.92,0,0,1,.27-2.12,5.11,5.11,0,0,1,.76-1.64,3.54,3.54,0,0,1,1.17-1.05,3.38,3.38,0,0,1,3.1,0A3,3,0,0,1,25,138a4.8,4.8,0,0,1,.6,1.55,9.32,9.32,0,0,1,.19,1.94v.82Zm3-1.56a3.89,3.89,0,0,0-.34-1.76,1.12,1.12,0,0,0-1.06-.67,1.07,1.07,0,0,0-.71.25,1.85,1.85,0,0,0-.47.62,3.86,3.86,0,0,0-.37,1.57Z"/><path class="cls-1" d="M39.37,146.29a8.54,8.54,0,0,1-.21,2,4.08,4.08,0,0,1-.68,1.52,3.21,3.21,0,0,1-1.22,1,4.19,4.19,0,0,1-1.8.35,4.83,4.83,0,0,1-1.92-.39,4.26,4.26,0,0,1-1.5-1l1.16-1.54a3.73,3.73,0,0,0,1,.76,2.53,2.53,0,0,0,1.23.3,1.7,1.7,0,0,0,.89-.22,1.67,1.67,0,0,0,.58-.59,2.7,2.7,0,0,0,.31-.87,5.93,5.93,0,0,0,.09-1.09v-1.18h0a2.27,2.27,0,0,1-.77,1.09,2.11,2.11,0,0,1-1.36.45,2.47,2.47,0,0,1-1.37-.38,3,3,0,0,1-1-1.06,5.64,5.64,0,0,1-.59-1.62,9.72,9.72,0,0,1-.2-2,9.62,9.62,0,0,1,.21-2.07,5.62,5.62,0,0,1,.61-1.63,3.22,3.22,0,0,1,1-1.07,2.35,2.35,0,0,1,1.34-.39,2,2,0,0,1,1.43.48,2.86,2.86,0,0,1,.72,1.21h.06v-1.37h2.05Zm-2-4.6a7.66,7.66,0,0,0-.1-1.29,4.26,4.26,0,0,0-.3-1,2,2,0,0,0-.5-.69,1.06,1.06,0,0,0-.7-.26,1.08,1.08,0,0,0-.72.26,1.85,1.85,0,0,0-.49.69,4.29,4.29,0,0,0-.29,1,8.86,8.86,0,0,0,0,2.58A4.45,4.45,0,0,0,34.5,144a1.83,1.83,0,0,0,.49.7,1.08,1.08,0,0,0,.72.26,1.06,1.06,0,0,0,.7-.26,1.93,1.93,0,0,0,.5-.7,4.42,4.42,0,0,0,.3-1.05A7.66,7.66,0,0,0,37.33,141.69Z"/><path class="cls-1" d="M45.48,137.09a1.69,1.69,0,0,1,1.25-.55h.16a.46.46,0,0,1,.16,0l-.11,2.2a1.73,1.73,0,0,0-.46-.06,1.16,1.16,0,0,0-.74.26,2.18,2.18,0,0,0-.55.67,3.51,3.51,0,0,0-.34,1,5.17,5.17,0,0,0-.11,1.08v4.86H42.56v-9.69h2.11v1.86h0A3.4,3.4,0,0,1,45.48,137.09Z"/><path class="cls-1" d="M50.37,142.26a4.87,4.87,0,0,0,.11,1.07,3,3,0,0,0,.33.87,1.84,1.84,0,0,0,.53.59,1.25,1.25,0,0,0,.73.22,1.22,1.22,0,0,0,.94-.38,3,3,0,0,0,.56-.87l1.58.91A3.86,3.86,0,0,1,54,146.28a3.11,3.11,0,0,1-2,.6,3.26,3.26,0,0,1-2.72-1.33,6.15,6.15,0,0,1-1-3.82,7.92,7.92,0,0,1,.27-2.12,5.11,5.11,0,0,1,.76-1.64,3.54,3.54,0,0,1,1.17-1.05,3.38,3.38,0,0,1,3.1,0,3,3,0,0,1,1.06,1,4.8,4.8,0,0,1,.6,1.55,9.32,9.32,0,0,1,.19,1.94v.82Zm3-1.56a3.89,3.89,0,0,0-.34-1.76,1.12,1.12,0,0,0-1.06-.67,1.07,1.07,0,0,0-.71.25,1.85,1.85,0,0,0-.47.62,3.86,3.86,0,0,0-.37,1.57Z"/><path class="cls-1" d="M61.83,145.11a2.29,2.29,0,0,1-.76,1.24,2.25,2.25,0,0,1-1.46.45,2.6,2.6,0,0,1-.85-.15,2.07,2.07,0,0,1-.79-.5,2.71,2.71,0,0,1-.58-.91,3.61,3.61,0,0,1-.23-1.36,3.39,3.39,0,0,1,.37-1.68,3,3,0,0,1,.95-1,3.62,3.62,0,0,1,1.29-.52,7.1,7.1,0,0,1,1.4-.14h.53v-.3a2,2,0,0,0-.39-1.4,1.33,1.33,0,0,0-1-.43,2,2,0,0,0-1,.26,2.6,2.6,0,0,0-.77.67l-1-1.35a3.6,3.6,0,0,1,1.35-1,3.89,3.89,0,0,1,1.62-.37,3.59,3.59,0,0,1,1.51.29,2.45,2.45,0,0,1,1,.83,3.51,3.51,0,0,1,.54,1.34,9.17,9.17,0,0,1,.16,1.81v5.76H61.86v-1.44Zm-.08-3.1h-.63a4.39,4.39,0,0,0-.77.07,1.72,1.72,0,0,0-.66.26,1.36,1.36,0,0,0-.46.52,1.84,1.84,0,0,0-.17.85,1.61,1.61,0,0,0,.33,1.12,1,1,0,0,0,.77.36,1.14,1.14,0,0,0,.74-.25,1.77,1.77,0,0,0,.48-.63,3.39,3.39,0,0,0,.27-.85,5,5,0,0,0,.09-.9Z"/><path class="cls-1" d="M68.84,138.51v5a2.17,2.17,0,0,0,.24,1.16.81.81,0,0,0,.73.36,1.66,1.66,0,0,0,.35,0,1.05,1.05,0,0,0,.31-.11l0,1.67a2.46,2.46,0,0,1-.61.19,3.86,3.86,0,0,1-.76.08,2.07,2.07,0,0,1-1.78-.73,3.49,3.49,0,0,1-.54-2.1v-5.45H65.61v-1.65h1.22v-2.47h2v2.47h1.69v1.65Z"/><path class="cls-1" d="M74.19,142.26a4.87,4.87,0,0,0,.11,1.07,3,3,0,0,0,.33.87,1.84,1.84,0,0,0,.53.59,1.25,1.25,0,0,0,.73.22,1.22,1.22,0,0,0,.94-.38,3,3,0,0,0,.56-.87l1.58.91a3.86,3.86,0,0,1-1.19,1.61,3.11,3.11,0,0,1-2,.6,3.26,3.26,0,0,1-2.72-1.33,6.15,6.15,0,0,1-1-3.82,7.92,7.92,0,0,1,.27-2.12,5.11,5.11,0,0,1,.76-1.64,3.54,3.54,0,0,1,1.17-1.05,3.38,3.38,0,0,1,3.1,0,3,3,0,0,1,1.06,1,4.8,4.8,0,0,1,.6,1.55,9.32,9.32,0,0,1,.19,1.94v.82Zm3-1.56a3.89,3.89,0,0,0-.34-1.76,1.12,1.12,0,0,0-1.06-.67,1.07,1.07,0,0,0-.71.25,1.85,1.85,0,0,0-.47.62,3.86,3.86,0,0,0-.37,1.57Z"/><path class="cls-1" d="M85.88,139a2.13,2.13,0,0,0-.67-.59,1.81,1.81,0,0,0-.91-.23,1.07,1.07,0,0,0-.8.33,1.21,1.21,0,0,0-.32.88,1,1,0,0,0,.34.83,4.31,4.31,0,0,0,1.08.52,6.5,6.5,0,0,1,.83.37,3,3,0,0,1,.74.56,2.59,2.59,0,0,1,.53.83,3,3,0,0,1,.2,1.15,3.52,3.52,0,0,1-.26,1.4,2.85,2.85,0,0,1-.69,1,2.79,2.79,0,0,1-1,.59,3.62,3.62,0,0,1-1.17.19,4.1,4.1,0,0,1-3-1.33l1.16-1.37a3.45,3.45,0,0,0,.8.68,2,2,0,0,0,1.06.29,1,1,0,0,0,.84-.36,1.43,1.43,0,0,0,.3-.95,1.11,1.11,0,0,0-.45-1,5.36,5.36,0,0,0-1.19-.57,5.4,5.4,0,0,1-.74-.32,2.53,2.53,0,0,1-.67-.51,2.4,2.4,0,0,1-.48-.79,3.13,3.13,0,0,1-.18-1.13,2.94,2.94,0,0,1,.26-1.25,3,3,0,0,1,.67-.94,2.81,2.81,0,0,1,1-.59,3.33,3.33,0,0,1,1.14-.2,3.83,3.83,0,0,1,1.58.31,4,4,0,0,1,1.2.81Z"/><path class="cls-1" d="M91.56,138.51v5a2.17,2.17,0,0,0,.24,1.16.81.81,0,0,0,.73.36,1.66,1.66,0,0,0,.35,0,1.05,1.05,0,0,0,.31-.11l0,1.67a2.46,2.46,0,0,1-.61.19,3.86,3.86,0,0,1-.76.08,2.07,2.07,0,0,1-1.78-.73,3.49,3.49,0,0,1-.54-2.1v-5.45H88.33v-1.65h1.22v-2.47h2v2.47h1.69v1.65Z"/><path class="cls-1" d="M103.8,139a2.13,2.13,0,0,0-.67-.59,1.81,1.81,0,0,0-.91-.23,1.07,1.07,0,0,0-.8.33,1.21,1.21,0,0,0-.32.88,1,1,0,0,0,.34.83,4.31,4.31,0,0,0,1.08.52,6.5,6.5,0,0,1,.83.37,3,3,0,0,1,.74.56,2.59,2.59,0,0,1,.53.83,3,3,0,0,1,.2,1.15,3.52,3.52,0,0,1-.26,1.4,2.85,2.85,0,0,1-.69,1,2.79,2.79,0,0,1-1,.59,3.62,3.62,0,0,1-1.17.19,4.1,4.1,0,0,1-3-1.33l1.16-1.37a3.45,3.45,0,0,0,.8.68,2,2,0,0,0,1.06.29,1,1,0,0,0,.84-.36,1.43,1.43,0,0,0,.3-.95,1.11,1.11,0,0,0-.45-1,5.36,5.36,0,0,0-1.19-.57,5.4,5.4,0,0,1-.74-.32,2.53,2.53,0,0,1-.67-.51,2.4,2.4,0,0,1-.48-.79,3.13,3.13,0,0,1-.18-1.13,2.94,2.94,0,0,1,.26-1.25,3,3,0,0,1,.67-.94,2.81,2.81,0,0,1,1-.59,3.33,3.33,0,0,1,1.14-.2,3.83,3.83,0,0,1,1.58.31,4,4,0,0,1,1.2.81Z"/><path class="cls-1" d="M109.48,138.51v5a2.17,2.17,0,0,0,.24,1.16.81.81,0,0,0,.73.36,1.66,1.66,0,0,0,.35,0,1.05,1.05,0,0,0,.31-.11l0,1.67a2.46,2.46,0,0,1-.61.19,3.86,3.86,0,0,1-.76.08,2.07,2.07,0,0,1-1.78-.73,3.49,3.49,0,0,1-.54-2.1v-5.45h-1.22v-1.65h1.22v-2.47h2v2.47h1.69v1.65Z"/><path class="cls-1" d="M120.19,141.73a8,8,0,0,1-.26,2.09,5,5,0,0,1-.74,1.62,3.56,3.56,0,0,1-1.17,1.05,3.4,3.4,0,0,1-3.12,0,3.56,3.56,0,0,1-1.17-1.05,5,5,0,0,1-.74-1.62,8,8,0,0,1-.26-2.09,8.18,8.18,0,0,1,.26-2.12,5.21,5.21,0,0,1,.73-1.64,3.32,3.32,0,0,1,1.17-1.05,3.29,3.29,0,0,1,1.57-.37,3.23,3.23,0,0,1,1.56.37,3.44,3.44,0,0,1,1.17,1.05,5.1,5.1,0,0,1,.74,1.64A8.2,8.2,0,0,1,120.19,141.73Zm-2.15,0a8.3,8.3,0,0,0-.1-1.3,4.16,4.16,0,0,0-.29-1,2,2,0,0,0-.49-.7,1.12,1.12,0,0,0-1.43,0,1.9,1.9,0,0,0-.48.7,4.45,4.45,0,0,0-.29,1,8.92,8.92,0,0,0,0,2.59,4.29,4.29,0,0,0,.29,1,1.91,1.91,0,0,0,.48.69,1,1,0,0,0,.71.26,1.08,1.08,0,0,0,.72-.26,1.86,1.86,0,0,0,.49-.69,4.31,4.31,0,0,0,.28-1A8.35,8.35,0,0,0,118,141.71Z"/><path class="cls-1" d="M125.74,137.09a1.69,1.69,0,0,1,1.25-.55h.16a.46.46,0,0,1,.16,0l-.11,2.2a1.73,1.73,0,0,0-.46-.06,1.16,1.16,0,0,0-.74.26,2.18,2.18,0,0,0-.55.67,3.51,3.51,0,0,0-.34,1,5.17,5.17,0,0,0-.11,1.08v4.86h-2.19v-9.69h2.11v1.86h0A3.4,3.4,0,0,1,125.74,137.09Z"/><path class="cls-1" d="M130.62,142.26a4.87,4.87,0,0,0,.11,1.07,3,3,0,0,0,.33.87,1.84,1.84,0,0,0,.53.59,1.25,1.25,0,0,0,.73.22,1.22,1.22,0,0,0,.94-.38,3,3,0,0,0,.56-.87l1.58.91a3.86,3.86,0,0,1-1.19,1.61,3.11,3.11,0,0,1-2,.6,3.26,3.26,0,0,1-2.72-1.33,6.15,6.15,0,0,1-1-3.82,7.92,7.92,0,0,1,.27-2.12,5.11,5.11,0,0,1,.76-1.64,3.54,3.54,0,0,1,1.17-1.05,3.38,3.38,0,0,1,3.1,0,3,3,0,0,1,1.06,1,4.8,4.8,0,0,1,.6,1.55,9.32,9.32,0,0,1,.19,1.94v.82Zm3-1.56a3.89,3.89,0,0,0-.34-1.76,1.12,1.12,0,0,0-1.06-.67,1.07,1.07,0,0,0-.71.25,1.85,1.85,0,0,0-.47.62,3.86,3.86,0,0,0-.37,1.57Z"/><path class="cls-1" d="M144.8,134.05a1.33,1.33,0,0,1-.36,1,1.25,1.25,0,0,1-1.8,0,1.34,1.34,0,0,1-.35-1,1.39,1.39,0,0,1,.35-1,1.22,1.22,0,0,1,1.8,0A1.39,1.39,0,0,1,144.8,134.05Zm-2.32,12.5v-9.69h2.15v9.69Z"/><path class="cls-1" d="M149.93,136.86v1.54h0a3,3,0,0,1,.88-1.32,2.24,2.24,0,0,1,3.56.67,4.16,4.16,0,0,1,.36,1.26,11,11,0,0,1,.09,1.45v6.08h-2.15v-6.08a7.16,7.16,0,0,0,0-.73,2.46,2.46,0,0,0-.16-.67,1.13,1.13,0,0,0-.36-.48,1,1,0,0,0-.62-.18,1.29,1.29,0,0,0-1.15.72,3.54,3.54,0,0,0-.43,1.82v5.6h-2.15v-9.69Z"/><path class="cls-1" d="M164.42,138.51v5a2.17,2.17,0,0,0,.24,1.16.81.81,0,0,0,.73.36,1.66,1.66,0,0,0,.35,0,1.05,1.05,0,0,0,.31-.11l0,1.67a2.46,2.46,0,0,1-.61.19,3.86,3.86,0,0,1-.76.08,2.07,2.07,0,0,1-1.78-.73,3.49,3.49,0,0,1-.54-2.1v-5.45h-1.22v-1.65h1.22v-2.47h2v2.47h1.69v1.65Z"/><path class="cls-1" d="M173.15,146.55v-6.08a7.16,7.16,0,0,0,0-.73,2.46,2.46,0,0,0-.16-.67,1.13,1.13,0,0,0-.36-.48,1,1,0,0,0-.62-.18,1.29,1.29,0,0,0-1.15.72,3.54,3.54,0,0,0-.43,1.82v5.6h-2.15V132.19h2.15v6.17h0a3,3,0,0,1,.85-1.28,2.17,2.17,0,0,1,1.51-.54,2.28,2.28,0,0,1,1.29.33,2.2,2.2,0,0,1,.76.88,4.16,4.16,0,0,1,.36,1.26,11,11,0,0,1,.09,1.45v6.08Z"/><path class="cls-1" d="M179.93,142.26a4.87,4.87,0,0,0,.11,1.07,3,3,0,0,0,.33.87,1.84,1.84,0,0,0,.53.59,1.25,1.25,0,0,0,.73.22,1.22,1.22,0,0,0,.94-.38,3,3,0,0,0,.56-.87l1.58.91a3.86,3.86,0,0,1-1.19,1.61,3.11,3.11,0,0,1-2,.6,3.26,3.26,0,0,1-2.72-1.33,6.15,6.15,0,0,1-1-3.82,7.92,7.92,0,0,1,.27-2.12,5.11,5.11,0,0,1,.76-1.64,3.54,3.54,0,0,1,1.17-1.05,3.38,3.38,0,0,1,3.1,0,3,3,0,0,1,1.06,1,4.8,4.8,0,0,1,.6,1.55,9.32,9.32,0,0,1,.19,1.94v.82Zm3-1.56a3.89,3.89,0,0,0-.34-1.76,1.12,1.12,0,0,0-1.06-.67,1.07,1.07,0,0,0-.71.25,1.85,1.85,0,0,0-.47.62,3.86,3.86,0,0,0-.37,1.57Z"/><path class="cls-1" d="M200.16,146.55h-2.3l-1.39-6.63h0l-1.39,6.63h-2.24l-2.07-9.69H193l1.18,7.13h0l1.39-7.12h1.9l1.42,7.13h0l1.2-7.12h2.15Z"/><path class="cls-1" d="M211.33,141.73a8,8,0,0,1-.26,2.09,5,5,0,0,1-.74,1.62,3.56,3.56,0,0,1-1.17,1.05,3.4,3.4,0,0,1-3.12,0,3.56,3.56,0,0,1-1.17-1.05,5,5,0,0,1-.74-1.62,8,8,0,0,1-.26-2.09,8.18,8.18,0,0,1,.26-2.12,5.21,5.21,0,0,1,.73-1.64,3.32,3.32,0,0,1,1.17-1.05,3.29,3.29,0,0,1,1.57-.37,3.23,3.23,0,0,1,1.56.37,3.44,3.44,0,0,1,1.17,1.05,5.1,5.1,0,0,1,.74,1.64A8.2,8.2,0,0,1,211.33,141.73Zm-2.15,0a8.3,8.3,0,0,0-.1-1.3,4.16,4.16,0,0,0-.29-1,2,2,0,0,0-.49-.7,1.12,1.12,0,0,0-1.43,0,1.9,1.9,0,0,0-.48.7,4.45,4.45,0,0,0-.29,1,8.92,8.92,0,0,0,0,2.59,4.29,4.29,0,0,0,.29,1,1.91,1.91,0,0,0,.48.69,1,1,0,0,0,.71.26,1.08,1.08,0,0,0,.72-.26,1.86,1.86,0,0,0,.49-.69,4.31,4.31,0,0,0,.28-1A8.35,8.35,0,0,0,209.19,141.71Z"/><path class="cls-1" d="M216.88,137.09a1.69,1.69,0,0,1,1.25-.55h.16a.46.46,0,0,1,.16,0l-.11,2.2a1.73,1.73,0,0,0-.46-.06,1.15,1.15,0,0,0-.74.26,2.16,2.16,0,0,0-.55.67,3.51,3.51,0,0,0-.34,1,5.2,5.2,0,0,0-.11,1.08v4.86H214v-9.69h2.11v1.86h0A3.4,3.4,0,0,1,216.88,137.09Z"/><path class="cls-1" d="M220.34,146.55V132.19h2.15v14.36Z"/><path class="cls-1" d="M230.45,146.55v-1.39h0a2.73,2.73,0,0,1-.71,1.22,2,2,0,0,1-1.45.49,2.32,2.32,0,0,1-1.33-.4,3.2,3.2,0,0,1-1-1.11,6,6,0,0,1-.61-1.67,10.47,10.47,0,0,1,0-4.11,5.31,5.31,0,0,1,.6-1.61,3.15,3.15,0,0,1,1-1.05,2.42,2.42,0,0,1,1.36-.38,2.07,2.07,0,0,1,1.35.45,2.28,2.28,0,0,1,.76,1.11h.06v-5.91h2.11v14.36Zm0-4.85a7.61,7.61,0,0,0-.1-1.3,4.43,4.43,0,0,0-.3-1,1.88,1.88,0,0,0-.51-.7,1.09,1.09,0,0,0-.71-.26,1.08,1.08,0,0,0-.72.26,1.84,1.84,0,0,0-.49.7,4.45,4.45,0,0,0-.29,1,8.3,8.3,0,0,0-.09,1.3,8.17,8.17,0,0,0,.09,1.28,4.45,4.45,0,0,0,.29,1,1.84,1.84,0,0,0,.49.7,1.15,1.15,0,0,0,1.44,0,1.93,1.93,0,0,0,.5-.7,4.42,4.42,0,0,0,.3-1A7.49,7.49,0,0,0,230.49,141.71Z"/><path class="cls-1" d="M238,145.32a1.4,1.4,0,0,1-.37,1,1.23,1.23,0,0,1-.94.4,1.2,1.2,0,0,1-.93-.4,1.42,1.42,0,0,1-.36-1,1.46,1.46,0,0,1,.36-1,1.17,1.17,0,0,1,.93-.42,1.2,1.2,0,0,1,.94.42A1.44,1.44,0,0,1,238,145.32Z"/><path class="cls-2" d="M41,20.25C41-14.58-4.39-.83.6,33.84,3.68,55.21,13.15,77.21,19.16,98,25.94,74.61,41,44.83,41,20.25Z"/><ellipse class="cls-3" cx="18.62" cy="114.6" rx="9.47" ry="12.63"/><path class="cls-1" d="M84.81,110c-.31,1.24-.69,1.86-1.12,1.86a3.46,3.46,0,0,1-1.08-.25,3.47,3.47,0,0,0-1.08-.25q-4,0-11.64,4.57t-11.64,4.57q-13.18,0-13.18-40.07,0-31.78.94-54.27l.19-5.41A33.12,33.12,0,0,0,46,17.33q-.23-2.11-.23-3,0-4.05,3.09-4.57,3.46-.68,13.65-5.24Q71.73.51,75.75.51a3.84,3.84,0,0,1,1.31.34A3.35,3.35,0,0,1,80,2.37a5.51,5.51,0,0,1,1.4,3.56q0,3.39-4.77,3.39Q72.29,9.31,64,12q-9.35,3.22-11.59,6.6-.75,12.87-1.78,40.29c.25.57.59.85,1,.85q2.8,0,8.32-3.22t8.41-3.22A6.91,6.91,0,0,1,73,55.53l.75,5.08q.19.68-2.43,2.37A4.08,4.08,0,0,0,68,61.28q-2.34,0-8.84,3t-8.84,5.08q-.37,3.73-.37,17.27,0,25.56,7.2,25.56,3.46,0,10-4.15t10-4.15Q83,103.95,84.81,110Z"/><path class="cls-1" d="M114.82,53.84q0,5.25-.61,15.66t-.61,18q0,3,.33,11.6t.33,12.27q0,7.45-.93,9a2,2,0,0,1-1.59.68q-2.06,0-2.81-3.22-.37-3.21-.75-6.26-2.71,7.55-9.26,9.48-2.43.68-5.61-3.91A23,23,0,0,1,89.49,109q-1.31-5.61-1.31-21.6V50.47q-.56-5.1,3.18-5.1,2.62,0,2.62,5.42,0,8.13-.28,21.16-.28,16.59-.28,21.16a45.3,45.3,0,0,0,1.5,12.19q1.87,7.28,4.77,7.28,4.77,0,7.39-11.51a89.71,89.71,0,0,0,1.87-19V59.93a20.06,20.06,0,0,0-.51-3.81,20.31,20.31,0,0,1-.51-4q0-.84.09-1.86,1.31-2.2,2.62-2.37Q114.83,47.24,114.82,53.84Z"/><path class="cls-1" d="M142,56.88q0,.68-.09,2.88-1.22,3.39-2.34,3.39-.75,0-1.31-1.69-.28-10.67-4.86-10.67-3,0-5.89,20a133.73,133.73,0,0,0-1.12,19.47q0,15.58.47,19.13.09.51.47,2.12a11.91,11.91,0,0,1,.37,2.46q0,3.73-2.8,3.72-3.18,0-3.18-5.93a18.47,18.47,0,0,1,.23-2.46,18.62,18.62,0,0,0,.23-2.45q0-9.31-.47-27.93T121.28,51q0-3.39.65-4.15a3.26,3.26,0,0,1,2.52-.76q2.34,0,2.71,3,.09,3.39.19,6.6,2.43-6.77,2.8-7.62,2.06-4.23,4.3-4.23a4.69,4.69,0,0,1,3.37,1.86A20.31,20.31,0,0,1,140.39,51,20,20,0,0,1,142,56.88Z"/><path class="cls-1" d="M171.11,100.39a19.12,19.12,0,0,1-5.52,13.37q-5,5.42-9.35,5.42-12.53,0-12.53-28.78a160.06,160.06,0,0,1,2.52-27.26q3.37-19,8.6-19,4.49,0,9.82,8.21T170,68.73A34.83,34.83,0,0,1,165.31,87q-4.68,7.79-10.56,7.79-.56,0-2.38-1.69t-2.48-1.69q-1.22,0-1.21,1.35,0,19.47,7.11,19.47,3.65,0,6.73-4.4a39.74,39.74,0,0,0,4.11-8q1.77-4.23,2.34-4.23Q171.11,95.65,171.11,100.39Zm-6.45-31.15a32.34,32.34,0,0,0-1.87-11.09q-1.87-5.16-5-5.16-3.74,0-6.08,8.46a55.07,55.07,0,0,0-2,14.73,17.54,17.54,0,0,0,1.73,8.21q1.73,3.3,4.44,3.3,3.83,0,6.36-5.93A31.4,31.4,0,0,0,164.66,69.24Z"/><path class="cls-1" d="M208.13,123.75q-2.34,3.38-3.75,3.39-2.06,0-7.13-10.67-6.38-13.71-6.75-14.39a70.43,70.43,0,0,1-3.94-8,30.17,30.17,0,0,0-4.32-7.28l-1.69,4.06v16.76a20.38,20.38,0,0,0,.65,4.32,20.49,20.49,0,0,1,.65,4.32,3,3,0,0,1-.79,1.95,2.13,2.13,0,0,1-1.45.93q-3.74,0-3.74-7.28V88.2q0-2.2.28-6.52t.28-6.52V28.44q0-10-.43-15.74A33.54,33.54,0,0,0,175.57,9a37.26,37.26,0,0,1-.26-3.89,5.23,5.23,0,0,1,1.45-3.39Q178.21,0,179.33,0a2.8,2.8,0,0,1,1.82.93,3,3,0,0,1,1,2.29q0,.17-.5,4.06-.7,4.57-.7,17.78l-.4,49.1L181,75q3-3.39,8.26-12.53l6.57-12.19q5.35-9.82,6.29-9.82,1.41,0,2.25,2.29a12.49,12.49,0,0,1,.75,4.83l-.09.85a154.41,154.41,0,0,0-10.53,15.24q-8,12.7-8,16.76,0,1.52,2.82,7.62,4.41,9.31,8.73,18.62,5.92,11.68,10,15.24Z"/><path class="cls-1" d="M233.56,122.06q0,2.37-2.06,2.37-2.24,0-2.71-3.39-.09-.51-.09-6.6a10.53,10.53,0,0,0-.28-2.71q-5.24,6.94-11.31,6.94-4.21,0-8.13-4.23a16.56,16.56,0,0,1-4.49-11.85q0-6.94,5.33-13.54,4.86-6.1,9-6.1H228a8,8,0,0,0,.56-3.55,105.14,105.14,0,0,0-1-17.1q-1.68-9.65-6.64-9.65-3.55,0-6.54,8.13A41.56,41.56,0,0,0,211.68,75v1.86c0,.91-.25,1.35-.75,1.35s-1.31-.68-2.06-2a7.61,7.61,0,0,1-1.12-3.56,57.34,57.34,0,0,1,1.59-11.94,49,49,0,0,1,3.46-10.92q2.34-4.57,5.8-4.57,5.33,0,9.82,6.09a26.94,26.94,0,0,1,4.86,15.91Zm-5-26.92q0-6.77-5.8-6.77a12.2,12.2,0,0,0-8,2.88q-4.4,3.73-4.39,11.17a10.1,10.1,0,0,0,2.34,7.11,6.06,6.06,0,0,0,4.67,2.2q4,0,7.62-4.74A19,19,0,0,0,228.6,95.14Z"/></g></g></svg>