<svg xmlns="http://www.w3.org/2000/svg" viewBox="0 0 900 300"><defs><style>.cls-1{fill:#2e7cff;}.cls-2{fill:none;}.cls-2,.cls-3,.cls-4{stroke:#231f20;stroke-miterlimit:10;}.cls-3{fill:#e7ca00;}.cls-4{fill:#e74f00;}</style></defs><title>Asset 1</title><g id="Layer_2" data-name="Layer 2"><g id="Layer_1-2" data-name="Layer 1"><rect class="cls-1" width="900" height="300"/><path d="M54,177.93c-.4,1.33-1.33,1.59-2.26.53-2.26-2.52-3.32-7.7-.66-14.87,6.5-17.92,23.89-49.38,34.38-67,1.19-2,2.12-2.12,3.45-1.19,4.91,3.58,6,7.3,4.51,16.46C91.3,124.44,90,141,89,159.62A541.3,541.3,0,0,1,123.29,96c1.06-1.59,2.26-1.19,3.05.27,2,4,1.86,9.29-4.12,19.25-7.83,13-24.69,44.87-32.52,62.52-.53,1.33-1.19,1.59-2.65.8-4-2.12-5.84-5.31-6.51-13.8-.66-8.1-.13-26,2.26-44.87C72.85,137.31,59.31,162,54,177.93Z"/><path d="M134,100.68c-.27-1.19.13-1.73,1.46-1.59,11,.66,25.62-3.19,33.05-3.32,5.58-.13,8.5,2.12,10.09,6.51.4,1.06.13,2-1.46,1.73-9.56-.13-18.85,2.26-26.94,3.58-5.31,8-11.81,19.51-18.32,31.33a75.23,75.23,0,0,1,9.42-1.06c6.64-.27,9.56,1.86,10.89,6,.4,1.19.4,2-1.33,2-7.17,0-17.12,1.86-24.56,3.72-3.85,7.43-7.43,14.73-10.22,21,6.37-2,15.13-3.85,20.58-4.11,6.5-.27,9.82,1.86,11.28,5.84.4,1.19.26,2-1.33,2-7.43-.13-21.9,3.32-29.33,5.31-2.52.66-4,.66-5.58-1.33a28.13,28.13,0,0,1-2.79-4.91c-1.19-2.26-1.19-4,.13-7.57,6.11-16.33,19.38-41,30.53-58.27C136.3,106.12,134.84,103.47,134,100.68Z"/><path d="M171.34,178.46c-.93,1.46-2.25,2.12-4,.66-4.65-4.12-5.71-9.16-3.59-18.32,4.78-20.18,15.53-50.71,22-63.19,1.06-2,2.39-2.12,3.32-.53,2.26,3.85,2.52,8.63-1.33,18.85-4.38,11.95-10.89,29.2-16.59,48.05,12.35-20.18,32.79-48.05,46.46-64.65.93-1.06,2.25-1.46,3.32.13,2.65,3.85,3.32,7.17,0,17.26-4.25,12.48-9.82,28.67-14.87,47.92,13.41-21.9,39.16-56,50.84-68.5,1.59-1.59,2.92-1.33,3.19.53.8,4.65-.93,10.35-7.7,19.25-9.69,12.74-29.34,37.17-45.4,61.86-1.06,1.59-2.25,2.26-4,.66-4.52-4.12-6.11-8.89-4.12-18.32,2.12-9.82,6.64-24.43,11-36.9C198,138.91,182.62,160.54,171.34,178.46Z"/><path d="M271.54,178.73c-.53,1.33-1.33,1.33-2.25.26-1.86-2-3.32-6.5-.27-14.47,4.91-12.61,26.42-48.05,40.75-67.57,1.2-1.73,2.52-2.26,4.25-.8,5.18,4.51,6.64,9.16,3.19,19.65-4.25,12.74-9,28.27-14.07,46.86C317.61,139,337,119.26,351.59,96.56c1.19-1.86,2.25-2,3.85-.4,5.31,5.44,4,12.74.4,19.38-9.29,17.26-22.57,44.07-29.21,63.19-.53,1.33-1.06,1.33-2.12.4-2.13-1.73-3.72-5.71-1.46-14.47,2-7.83,10.49-26.42,19.12-43C327,140,311.63,160.28,302.07,178.07c-.66,1.33-1.33,1.73-2.39.93-4.38-3.19-6.37-7.83-5-16.06,1.19-7.57,5.57-25.88,11.41-43.54C294.24,137.18,279.38,160.94,271.54,178.73Z"/><path d="M347.46,154.84c3.72-15,18.72-40,30.8-58.28,1.06-1.59,2.25-1.33,3.18.13,2.13,3.32,2.65,8.5-2.52,18.45-6.5,12.61-19.91,32.39-23.23,46.46-1.59,6.77-1.19,11.81,2.65,13.28,8.1,3.19,18.72-8.5,28-26.42,7.3-14.2,21.77-40.49,29.07-52,1.06-1.73,2.26-1.33,3.19.13,1.59,2.79,1.73,8.76-1.73,16.46-4.64,10.22-21.11,40.75-30,53.1-9.42,13-21.24,16.33-30.4,12.61C350,176.08,343.88,169.44,347.46,154.84Z"/><path d="M412.77,162.14c5.31,4.25,14.33,11.15,23,11.15,3.72,0,6.5-.93,8.23-2.39a4.59,4.59,0,0,0-.26-6.9c-7-6-28-14.2-28-27.88,0-18.18,20.57-33.72,32.39-38.76,6.37-2.65,12.74-3.72,17.12.27a23.87,23.87,0,0,1,6.64,11.15c1.33,5.31-1.86,10.49-3.85,13.27a152.81,152.81,0,0,0-9.16,14.73c-.66,1.19-1.46,1.86-2.92.4-2.52-2.52-4.11-6.64-1.33-12.88s12.74-17.39,9.56-20.71C459.63,99,427,119.26,426.31,135.85c-.4,8.63,16.59,15.66,24,21,5,3.58,4.38,9.69-1.46,16.46-8,9.16-31.06,11.68-49.78-10.89-1.46-1.73-.93-2.65.26-3.05A15.28,15.28,0,0,1,412.77,162.14Z"/><path d="M501.57,95.5c1.86,3.85,1.73,10.22-4,20.31-8.23,14.47-22.83,40.09-32.52,61.86-.53,1.33-1.06,1.46-2.13.27-1.86-2-3.45-6.64-.53-14.73,6.5-18.05,25.22-52.3,36-67.83C499.58,93.64,500.78,93.91,501.57,95.5Z"/><path d="M541.13,150.06c3.32,8.89-5.18,18.85-10.75,22.83-9.42,6.77-20.57,6.64-27.74,2.79-6-3.19-11.15-11.42-11.42-22.3-.53-28.14,23.1-52.17,38-57.88,7.17-2.79,13.67-3.32,17.92.4,2.92,2.52,6,6.37,7,9.69,1.2,3.85.8,7.57-1.19,11.68s-3.85,9.29-5.31,13.14c-.4,1.06-1.33,1.86-2.92.8-3.05-2-5.18-6.11-3.19-12.74,2.13-7,6.9-14.6,3.85-17.79-3.72-4-23.89,6.77-35.84,26.55-11.68,19.38-10.35,39-3.85,44.34,8.5,6.9,22.57-2,32.66-21.77C539,148.33,540.46,148.33,541.13,150.06Z"/><path d="M555.32,178.73c-1.59,2-5.44,1.19-7.3-1.86a8.06,8.06,0,0,1,.66-9.69c2-2.12,5.84-.66,7.56,3.05A8.55,8.55,0,0,1,555.32,178.73Zm34.12-83c1.73,3.72,1.46,10.22-4,20-7.3,13.14-18.45,34-25.22,48.72-.66,1.33-1.19,1.59-2.25.53-2-2.12-3.32-6.51-.4-14.47,5.31-14.2,18.58-40.49,28.54-55.09C587.18,93.91,588.64,93.91,589.44,95.77Z"/><line class="cls-2" x1="23.36" y1="212.44" x2="583.8" y2="212.44"/><line class="cls-2" x1="32.68" y1="196.7" x2="593.12" y2="196.7"/><circle class="cls-3" cx="768.13" cy="159.01" r="93.96"/><polygon class="cls-4" points="721.64 268.42 665.41 239.89 610.03 270.04 619.78 207.75 574 164.41 636.25 154.43 663.33 97.49 692.05 153.62 754.57 161.77 710.07 206.44 721.64 268.42"/></g></g></svg>